%TF.GenerationSoftware,Altium Limited,Altium Designer,26.7.1 (11)*%
G04 Layer_Color=65535*
G04 Board_Origin=0|0*
%FSLAX45Y45*%
%MOMM*%
%TF.SameCoordinates,4D1129F9-08A1-487B-85B4-D750B3D58634*%
%TF.FilePolarity,Positive*%
%TF.FileFunction,Legend,Top*%
%TF.Part,Single*%
G01*
G75*
%TA.AperFunction,NonConductor*%
%ADD42C,0.25000*%
%ADD43C,0.15000*%
%ADD44C,0.50000*%
%ADD45C,0.20000*%
%ADD46C,0.25400*%
D42*
X11129540Y20987320D02*
G03*
X11129540Y20987320I-12500J0D01*
G01*
X11217120Y15974420D02*
G03*
X11217120Y15974420I-12500J0D01*
G01*
X4661380Y20957719D02*
G03*
X4661380Y20957719I-12500J0D01*
G01*
X4844260Y16004539D02*
G03*
X4844260Y16004539I-12500J0D01*
G01*
X12741500Y4363420D02*
G03*
X12741500Y4363420I-12500J0D01*
G01*
X14282919Y2501380D02*
G03*
X14282919Y2501380I-12500J0D01*
G01*
X12476280Y2458440D02*
G03*
X12476280Y2458440I-12500J0D01*
G01*
X10505160Y2500460D02*
G03*
X10505160Y2500460I-12500J0D01*
G01*
X13536861Y20899120D02*
G03*
X13536861Y20899120I-12500J0D01*
G01*
X5937040Y4717680D02*
G03*
X5937040Y4717680I-12500J0D01*
G01*
X12705940Y10093660D02*
G03*
X12705940Y10093660I-12500J0D01*
G01*
X14631261Y8219140D02*
G03*
X14631261Y8219140I-12500J0D01*
G01*
X10963500Y8178500D02*
G03*
X10963500Y8178500I-12500J0D01*
G01*
X14633800Y5943300D02*
G03*
X14633800Y5943300I-12500J0D01*
G01*
X10963500Y5892500D02*
G03*
X10963500Y5892500I-12500J0D01*
G01*
D43*
X14794360Y20899120D02*
G03*
X14794360Y20899120I-610000J0D01*
G01*
X13528360Y4448261D02*
X13568359D01*
X10152380Y1821500D02*
Y1861500D01*
X10107143Y2081921D02*
X10167142D01*
X10107143Y1971919D02*
X10167142D01*
X10152380Y2431100D02*
Y2471100D01*
X10107143Y2346081D02*
X10167142D01*
X10107143Y2236079D02*
X10167142D01*
X6101400Y4956261D02*
X6141400D01*
X9612081Y16568739D02*
Y16608740D01*
X13502960Y10167620D02*
X13542960D01*
X14021521Y2314260D02*
Y2354260D01*
X14024062Y1714820D02*
Y1754820D01*
X13985722Y1867779D02*
X14045721D01*
X13985722Y1977781D02*
X14045721D01*
X13986819Y2098919D02*
X14046820D01*
X13986819Y2208921D02*
X14046820D01*
X1204681Y3985580D02*
Y4025580D01*
X5300259Y3993200D02*
Y4033200D01*
X7350039Y3985580D02*
Y4025580D01*
X3286039Y3993200D02*
Y4033200D01*
X8378739Y3985580D02*
Y4025580D01*
X4289339Y3998280D02*
Y4038280D01*
X2256241Y3990660D02*
Y4030660D01*
X6317701Y3985580D02*
Y4025580D01*
X9640021Y13081320D02*
Y13121320D01*
X1741719Y18080040D02*
Y18120039D01*
X1971040Y13058459D02*
Y13098460D01*
X2068281Y21623340D02*
Y21663341D01*
X2071919Y18087660D02*
Y18127660D01*
X2229399Y13058459D02*
Y13098460D01*
X2266401Y16675420D02*
Y16715421D01*
X2501900Y13058459D02*
Y13098460D01*
X3020060Y16683040D02*
Y16723039D01*
X3095163Y21653819D02*
Y21693820D01*
X10107381Y16568739D02*
Y16608740D01*
X10137861Y13086400D02*
Y13126401D01*
X10374081Y16576360D02*
Y16616360D01*
X10416540Y13086400D02*
Y13126401D01*
X3284220Y16675420D02*
Y16715421D01*
X3721821Y13058459D02*
Y13098460D01*
X3787140Y16675420D02*
Y16715421D01*
X3837940Y18054640D02*
Y18094640D01*
X3861521Y21653819D02*
Y21693820D01*
X8269519Y18123219D02*
Y18163220D01*
X8542020Y18125760D02*
Y18165759D01*
X8547821Y21608099D02*
Y21648100D01*
X9061999Y21610640D02*
Y21650639D01*
X9563100Y21620799D02*
Y21660800D01*
X9866081Y13086400D02*
Y13126401D01*
X10048240Y18074960D02*
Y18114960D01*
X10307320Y21608099D02*
Y21648100D01*
X10313121Y18074960D02*
Y18114960D01*
X3578860Y18067340D02*
Y18107339D01*
X3625301Y21653819D02*
Y21693820D01*
X9853381Y16568739D02*
Y16608740D01*
X2930210Y5415056D02*
X2970210D01*
X2930210Y6799067D02*
X2970210D01*
X2930210Y6337732D02*
X2970210D01*
X2930210Y7260407D02*
X2970210D01*
X2930210Y4953721D02*
X2970210D01*
X2928940Y5881924D02*
X2968940D01*
X2930210Y10951103D02*
X2970210D01*
X2930210Y11412438D02*
X2970210D01*
X2930210Y9567093D02*
X2970210D01*
X2930210Y10028428D02*
X2970210D01*
X2930210Y10489768D02*
X2970210D01*
X2930210Y8644418D02*
X2970210D01*
X2930210Y8183082D02*
X2970210D01*
X2930210Y9105753D02*
X2970210D01*
X2930210Y11873779D02*
X2970210D01*
X2930210Y7721742D02*
X2970210D01*
X12050243Y1837299D02*
X12110242D01*
X12050243Y1947301D02*
X12110242D01*
X11636060Y5979881D02*
X11676060D01*
X15316521Y6030681D02*
X15356520D01*
X15313980Y8303981D02*
X15353979D01*
X11651300Y8263341D02*
X11691300D01*
X12077700Y2263460D02*
Y2303460D01*
X12050243Y2183521D02*
X12110242D01*
X12050243Y2073519D02*
X12110242D01*
X12082780Y1709740D02*
Y1749740D01*
D44*
X15302820Y2034740D02*
G03*
X15302820Y2034740I-25000J0D01*
G01*
D45*
X14879581Y19667094D02*
G03*
X14952811Y19740421I238508J-164966D01*
G01*
X11057042Y18582320D02*
Y21192322D01*
X7452040D02*
X11057042D01*
X7452040Y18582320D02*
Y21192322D01*
Y18582320D02*
X11057042D01*
X7539619Y13569421D02*
X11144621D01*
X7539619D02*
Y16179419D01*
X11144621D01*
Y13569421D02*
Y16179419D01*
X4588881Y18552719D02*
Y21162721D01*
X983879D02*
X4588881D01*
X983879Y18552719D02*
Y21162721D01*
Y18552719D02*
X4588881D01*
X4771761Y13599541D02*
Y16209538D01*
X1166759D02*
X4771761D01*
X1166759Y13599541D02*
Y16209538D01*
Y13599541D02*
X4771761D01*
X12843999Y4520921D02*
X13064001D01*
X13253999Y4610918D02*
Y5030922D01*
X12843999Y5120919D02*
X13064001D01*
X12654001Y4610918D02*
Y5030922D01*
X14424670Y2476632D02*
X14775169D01*
Y1826128D02*
Y2476632D01*
X14424670Y1826128D02*
X14775169D01*
X14424670D02*
Y2476632D01*
X12628778Y1788439D02*
Y2458441D01*
X12888779Y1788439D02*
Y2458441D01*
X12628778D02*
X12888779D01*
X12628778Y1788439D02*
X12888779D01*
X10707660Y2486462D02*
X10767659D01*
X10707660Y1826458D02*
X10767659D01*
X10707660D02*
Y2486462D01*
X2277379Y4894798D02*
Y4934798D01*
X2257608Y4914900D02*
X2297608D01*
X2087880Y4991867D02*
X2212340D01*
X2087880Y4837400D02*
X2212340D01*
X16472322Y2811739D02*
X16672321D01*
X15778819Y1361740D02*
X16672321D01*
Y2811739D01*
X15778819Y1361740D02*
Y2811739D01*
X16062320D01*
X5653918Y5676819D02*
Y6701820D01*
Y5676819D02*
X6073922D01*
Y6701820D01*
X5653918D02*
X6073922D01*
X5947039Y4930181D02*
Y4935179D01*
X5742041Y4930181D02*
Y4935179D01*
X14795570Y19751111D02*
X14879588Y19667088D01*
X14869109Y19824649D02*
X14953127Y19740627D01*
X14795570Y19751111D02*
X14869109Y19824649D01*
X798479Y3328822D02*
X1548481D01*
X798479Y1918818D02*
Y3328822D01*
Y1918818D02*
X1548481D01*
Y3328822D01*
X15541441Y21903258D02*
X16291438D01*
X15541441Y20230263D02*
Y21903258D01*
Y20230263D02*
X16291438D01*
Y21903258D01*
X12618441Y10341158D02*
Y10761162D01*
X12808438Y10851159D02*
X13028442D01*
X13218439Y10341158D02*
Y10761162D01*
X12808438Y10251161D02*
X13028442D01*
X2615281Y1923898D02*
Y3333902D01*
X1865279Y1923898D02*
X2615281D01*
X1865279D02*
Y3333902D01*
X2615281D01*
X3682081Y1916278D02*
Y3326282D01*
X2932079Y1916278D02*
X3682081D01*
X2932079D02*
Y3326282D01*
X3682081D01*
X4695541Y1926438D02*
Y3336442D01*
X3945539Y1926438D02*
X4695541D01*
X3945539D02*
Y3336442D01*
X4695541D01*
X5701381Y1928978D02*
Y3338982D01*
X4951379Y1928978D02*
X5701381D01*
X4951379D02*
Y3338982D01*
X5701381D01*
X6712301Y1923898D02*
Y3333902D01*
X5962299Y1923898D02*
X6712301D01*
X5962299D02*
Y3333902D01*
X6712301D01*
X7766401Y1923898D02*
Y3333902D01*
X7016399Y1923898D02*
X7766401D01*
X7016399D02*
Y3333902D01*
X7766401D01*
X8792561Y1928978D02*
Y3338982D01*
X8042559Y1928978D02*
X8792561D01*
X8042559D02*
Y3338982D01*
X8792561D01*
X2087880Y10370536D02*
X2212340D01*
X2087880Y10525003D02*
X2212340D01*
X2257608Y10448036D02*
X2297608D01*
X2277379Y10427934D02*
Y10467934D01*
X2087880Y10831632D02*
X2212340D01*
X2087880Y10986094D02*
X2212340D01*
X2257608Y10909127D02*
X2297608D01*
X2277379Y10889031D02*
Y10929031D01*
X2087880Y9909439D02*
X2212340D01*
X2087880Y10063907D02*
X2212340D01*
X2257608Y9986940D02*
X2297608D01*
X2277379Y9966838D02*
Y10006838D01*
X2087880Y9448348D02*
X2212340D01*
X2087880Y9602810D02*
X2212340D01*
X2257608Y9525848D02*
X2297608D01*
X2277379Y9505747D02*
Y9545747D01*
X2087880Y5759587D02*
X2212340D01*
X2087880Y5914055D02*
X2212340D01*
X2257608Y5837088D02*
X2297608D01*
X2277379Y5816991D02*
Y5856991D01*
X2087880Y11753820D02*
X2212340D01*
X2087880Y11908287D02*
X2212340D01*
X2257608Y11831320D02*
X2297608D01*
X2277379Y11811218D02*
Y11851218D01*
X2087880Y7603968D02*
X2212340D01*
X2087880Y7758435D02*
X2212340D01*
X2257608Y7681468D02*
X2297608D01*
X2277379Y7661366D02*
Y7701366D01*
X2087880Y8987252D02*
X2212340D01*
X2087880Y9141719D02*
X2212340D01*
X2257608Y9064752D02*
X2297608D01*
X2277379Y9044650D02*
Y9084650D01*
X2087880Y8065064D02*
X2212340D01*
X2087880Y8219526D02*
X2212340D01*
X2257608Y8142564D02*
X2297608D01*
X2277379Y8122463D02*
Y8162463D01*
X2087880Y8526155D02*
X2212340D01*
X2087880Y8680623D02*
X2212340D01*
X2257608Y8603656D02*
X2297608D01*
X2277379Y8583559D02*
Y8623559D01*
X2087880Y7142871D02*
X2212340D01*
X2087880Y7297339D02*
X2212340D01*
X2257608Y7220372D02*
X2297608D01*
X2277379Y7200275D02*
Y7240275D01*
X2087880Y6220684D02*
X2212340D01*
X2087880Y6375151D02*
X2212340D01*
X2257608Y6298184D02*
X2297608D01*
X2277379Y6278082D02*
Y6318082D01*
X2087880Y6681780D02*
X2212340D01*
X2087880Y6836247D02*
X2212340D01*
X2257608Y6759280D02*
X2297608D01*
X2277379Y6739179D02*
Y6779179D01*
X2087880Y11292723D02*
X2212340D01*
X2087880Y11447191D02*
X2212340D01*
X2257608Y11370224D02*
X2297608D01*
X2277379Y11350122D02*
Y11390122D01*
X2087880Y5298496D02*
X2212340D01*
X2087880Y5452963D02*
X2212340D01*
X2257608Y5375996D02*
X2297608D01*
X2277379Y5355895D02*
Y5395895D01*
X14543761Y8466638D02*
Y8886642D01*
X14733759Y8976639D02*
X14953761D01*
X15143759Y8466638D02*
Y8886642D01*
X14733759Y8376641D02*
X14953761D01*
X10876001Y8425998D02*
Y8846002D01*
X11065998Y8935999D02*
X11286002D01*
X11475999Y8425998D02*
Y8846002D01*
X11065998Y8336001D02*
X11286002D01*
X14546301Y6190798D02*
Y6610802D01*
X14736298Y6700799D02*
X14956302D01*
X15146300Y6190798D02*
Y6610802D01*
X14736298Y6100801D02*
X14956302D01*
X10876001Y6139998D02*
Y6560002D01*
X11065998Y6649999D02*
X11286002D01*
X11475999Y6139998D02*
Y6560002D01*
X11065998Y6050001D02*
X11286002D01*
D46*
X7647940Y4696460D02*
Y12316460D01*
X8154670Y4823460D02*
X8166100D01*
X8155940Y4696460D02*
X8409940D01*
Y12316460D01*
X7647940D02*
X8409940D01*
X7647940Y4696460D02*
X8155940D01*
X11742429Y1922764D02*
X11717038Y1948157D01*
X11666255Y1948158D01*
X11640862Y1922767D01*
X11640860Y1821200D01*
X11666251Y1795807D01*
X11717034Y1795806D01*
X11742427Y1821197D01*
X11894781Y1948152D02*
X11793213Y1948155D01*
X11793212Y1871979D01*
X11843996Y1897370D01*
X11869388Y1897369D01*
X11894779Y1871977D01*
X11894778Y1821193D01*
X11869385Y1795802D01*
X11818602Y1795803D01*
X11793210Y1821196D01*
X11399832Y19959286D02*
X11298265D01*
Y19806937D01*
X11399832D01*
X11298265Y19883112D02*
X11349049D01*
X11552183Y19756152D02*
Y19908504D01*
X11476008D01*
X11450616Y19883112D01*
Y19832327D01*
X11476008Y19806937D01*
X11552183D01*
X11602967Y19908504D02*
Y19832327D01*
X11628359Y19806937D01*
X11704534D01*
Y19908504D01*
X11755317Y19806937D02*
X11806101D01*
X11780709D01*
Y19908504D01*
X11755317D01*
X11882276Y19756152D02*
Y19908504D01*
X11958452D01*
X11983843Y19883112D01*
Y19832327D01*
X11958452Y19806937D01*
X11882276D01*
X12034627D02*
Y19908504D01*
X12060019D01*
X12085410Y19883112D01*
Y19806937D01*
Y19883112D01*
X12110802Y19908504D01*
X12136194Y19883112D01*
Y19806937D01*
X12263153D02*
X12212370D01*
X12186978Y19832327D01*
Y19883112D01*
X12212370Y19908504D01*
X12263153D01*
X12288545Y19883112D01*
Y19857719D01*
X12186978D01*
X12339328Y19806937D02*
Y19908504D01*
X12415504D01*
X12440896Y19883112D01*
Y19806937D01*
X12517071Y19933894D02*
Y19908504D01*
X12491679D01*
X12542463D01*
X12517071D01*
Y19832327D01*
X12542463Y19806937D01*
X12618638Y19781544D02*
X12720205D01*
X12872556Y19933894D02*
X12847163Y19959286D01*
X12796381D01*
X12770989Y19933894D01*
Y19908504D01*
X12796381Y19883112D01*
X12847163D01*
X12872556Y19857719D01*
Y19832327D01*
X12847163Y19806937D01*
X12796381D01*
X12770989Y19832327D01*
X12948730Y19933894D02*
Y19908504D01*
X12923338D01*
X12974123D01*
X12948730D01*
Y19832327D01*
X12974123Y19806937D01*
X13075690Y19908504D02*
X13126474D01*
X13151865Y19883112D01*
Y19806937D01*
X13075690D01*
X13050298Y19832327D01*
X13075690Y19857719D01*
X13151865D01*
X13228041Y19933894D02*
Y19908504D01*
X13202649D01*
X13253432D01*
X13228041D01*
Y19832327D01*
X13253432Y19806937D01*
X13405783D02*
X13355000D01*
X13329608Y19832327D01*
Y19883112D01*
X13355000Y19908504D01*
X13405783D01*
X13431175Y19883112D01*
Y19857719D01*
X13329608D01*
X11496402Y14864050D02*
X11394834D01*
Y14787875D01*
X11445618D01*
X11394834D01*
Y14711700D01*
X11572577Y14813268D02*
X11623361D01*
X11648752Y14787875D01*
Y14711700D01*
X11572577D01*
X11547185Y14737093D01*
X11572577Y14762485D01*
X11648752D01*
X11699536Y14813268D02*
Y14737093D01*
X11724928Y14711700D01*
X11801103D01*
Y14813268D01*
X11851887Y14711700D02*
X11902670D01*
X11877279D01*
Y14864050D01*
X11851887D01*
X12004237Y14838660D02*
Y14813268D01*
X11978845D01*
X12029629D01*
X12004237D01*
Y14737093D01*
X12029629Y14711700D01*
X12207372Y14813268D02*
X12131196D01*
X12105804Y14787875D01*
Y14737093D01*
X12131196Y14711700D01*
X12207372D01*
X12283547D02*
X12334330D01*
X12359722Y14737093D01*
Y14787875D01*
X12334330Y14813268D01*
X12283547D01*
X12258155Y14787875D01*
Y14737093D01*
X12283547Y14711700D01*
X12512073Y14864050D02*
Y14711700D01*
X12435898D01*
X12410506Y14737093D01*
Y14787875D01*
X12435898Y14813268D01*
X12512073D01*
X12639032Y14711700D02*
X12588248D01*
X12562857Y14737093D01*
Y14787875D01*
X12588248Y14813268D01*
X12639032D01*
X12664424Y14787875D01*
Y14762485D01*
X12562857D01*
X12715207Y14686308D02*
X12816774D01*
X12969125Y14838660D02*
X12943733Y14864050D01*
X12892950D01*
X12867558Y14838660D01*
Y14737093D01*
X12892950Y14711700D01*
X12943733D01*
X12969125Y14737093D01*
X13045300Y14711700D02*
X13096085D01*
X13121477Y14737093D01*
Y14787875D01*
X13096085Y14813268D01*
X13045300D01*
X13019910Y14787875D01*
Y14737093D01*
X13045300Y14711700D01*
X13172260Y14813268D02*
Y14737093D01*
X13197652Y14711700D01*
X13273827D01*
Y14813268D01*
X13324609Y14711700D02*
Y14813268D01*
X13400784D01*
X13426176Y14787875D01*
Y14711700D01*
X13502353Y14838660D02*
Y14813268D01*
X13476961D01*
X13527744D01*
X13502353D01*
Y14737093D01*
X13527744Y14711700D01*
X13680095D02*
X13629312D01*
X13603920Y14737093D01*
Y14787875D01*
X13629312Y14813268D01*
X13680095D01*
X13705487Y14787875D01*
Y14762485D01*
X13603920D01*
X13756270Y14813268D02*
Y14711700D01*
Y14762485D01*
X13781662Y14787875D01*
X13807054Y14813268D01*
X13832446D01*
X4679087Y19771378D02*
Y19923727D01*
X4755262D01*
X4780654Y19898335D01*
Y19847552D01*
X4755262Y19822160D01*
X4679087D01*
X4856830Y19872945D02*
X4907613D01*
X4933005Y19847552D01*
Y19771378D01*
X4856830D01*
X4831438Y19796768D01*
X4856830Y19822160D01*
X4933005D01*
X5009180Y19898335D02*
Y19872945D01*
X4983788D01*
X5034572D01*
X5009180D01*
Y19796768D01*
X5034572Y19771378D01*
X5110747D02*
X5161531D01*
X5136139D01*
Y19872945D01*
X5110747D01*
X5313881Y19771378D02*
X5263098D01*
X5237706Y19796768D01*
Y19847552D01*
X5263098Y19872945D01*
X5313881D01*
X5339273Y19847552D01*
Y19822160D01*
X5237706D01*
X5390057Y19771378D02*
Y19872945D01*
X5466232D01*
X5491624Y19847552D01*
Y19771378D01*
X5567799Y19898335D02*
Y19872945D01*
X5542408D01*
X5593191D01*
X5567799D01*
Y19796768D01*
X5593191Y19771378D01*
X5669366Y19923727D02*
X5720150D01*
X5694758D01*
Y19771378D01*
X5669366D01*
X5720150D01*
X5796325Y19923727D02*
Y19771378D01*
X5872501D01*
X5897892Y19796768D01*
Y19898335D01*
X5872501Y19923727D01*
X5796325D01*
X5948676Y19745985D02*
X6050243D01*
X6101027Y19771378D02*
Y19923727D01*
X6177202D01*
X6202594Y19898335D01*
Y19847552D01*
X6177202Y19822160D01*
X6101027D01*
X6253377Y19872945D02*
Y19771378D01*
Y19822160D01*
X6278769Y19847552D01*
X6304161Y19872945D01*
X6329553D01*
X6405728Y19771378D02*
X6456512D01*
X6431120D01*
Y19872945D01*
X6405728D01*
X6558079Y19771378D02*
X6608862D01*
X6634254Y19796768D01*
Y19847552D01*
X6608862Y19872945D01*
X6558079D01*
X6532687Y19847552D01*
Y19796768D01*
X6558079Y19771378D01*
X6685038Y19872945D02*
Y19771378D01*
Y19822160D01*
X6710430Y19847552D01*
X6735821Y19872945D01*
X6761213D01*
X6837388Y19771378D02*
X6888172D01*
X6862780D01*
Y19872945D01*
X6837388D01*
X6989739Y19898335D02*
Y19872945D01*
X6964347D01*
X7015131D01*
X6989739D01*
Y19796768D01*
X7015131Y19771378D01*
X7091306Y19872945D02*
Y19796768D01*
X7116698Y19771378D01*
X7192873D01*
Y19745985D01*
X7167481Y19720593D01*
X7142090D01*
X7192873Y19771378D02*
Y19872945D01*
X4938015Y14711700D02*
Y14864050D01*
X5014190D01*
X5039582Y14838660D01*
Y14787875D01*
X5014190Y14762485D01*
X4938015D01*
X4988798D02*
X5039582Y14711700D01*
X5115757D02*
X5166541D01*
X5191933Y14737093D01*
Y14787875D01*
X5166541Y14813268D01*
X5115757D01*
X5090365Y14787875D01*
Y14737093D01*
X5115757Y14711700D01*
X5268108D02*
X5318892D01*
X5344283Y14737093D01*
Y14787875D01*
X5318892Y14813268D01*
X5268108D01*
X5242716Y14787875D01*
Y14737093D01*
X5268108Y14711700D01*
X5395067D02*
Y14813268D01*
X5420459D01*
X5445850Y14787875D01*
Y14711700D01*
Y14787875D01*
X5471242Y14813268D01*
X5496634Y14787875D01*
Y14711700D01*
X5547418Y14686308D02*
X5648985D01*
X5699768Y14864050D02*
Y14711700D01*
X5775944D01*
X5801336Y14737093D01*
Y14838660D01*
X5775944Y14864050D01*
X5699768D01*
X5877511Y14711700D02*
X5928294D01*
X5953686Y14737093D01*
Y14787875D01*
X5928294Y14813268D01*
X5877511D01*
X5852119Y14787875D01*
Y14737093D01*
X5877511Y14711700D01*
X6106037Y14813268D02*
X6029862D01*
X6004470Y14787875D01*
Y14737093D01*
X6029862Y14711700D01*
X6106037D01*
X6182212Y14838660D02*
Y14813268D01*
X6156821D01*
X6207604D01*
X6182212D01*
Y14737093D01*
X6207604Y14711700D01*
X6309171D02*
X6359955D01*
X6385347Y14737093D01*
Y14787875D01*
X6359955Y14813268D01*
X6309171D01*
X6283779Y14787875D01*
Y14737093D01*
X6309171Y14711700D01*
X6436130Y14813268D02*
Y14711700D01*
Y14762485D01*
X6461522Y14787875D01*
X6486914Y14813268D01*
X6512305D01*
X13396022Y4147845D02*
Y4300195D01*
X13472197D01*
X13497589Y4274803D01*
Y4224020D01*
X13472197Y4198628D01*
X13396022D01*
X13446805D02*
X13497589Y4147845D01*
X13548372D02*
X13599156D01*
X13573764D01*
Y4300195D01*
X13548372Y4274803D01*
X13776900Y4147845D02*
X13675331D01*
X13776900Y4249412D01*
Y4274803D01*
X13751508Y4300195D01*
X13700723D01*
X13675331Y4274803D01*
X12293888Y5547331D02*
Y5394981D01*
X12370063D01*
X12395455Y5420372D01*
Y5445764D01*
X12370063Y5471156D01*
X12293888D01*
X12370063D01*
X12395455Y5496548D01*
Y5521939D01*
X12370063Y5547331D01*
X12293888D01*
X12446238D02*
X12547805D01*
X12497022D01*
Y5394981D01*
X12598589D02*
Y5547331D01*
X12700156Y5394981D01*
Y5547331D01*
X12852507D02*
X12750940D01*
Y5471156D01*
X12801723Y5496548D01*
X12827115D01*
X12852507Y5471156D01*
Y5420372D01*
X12827115Y5394981D01*
X12776332D01*
X12750940Y5420372D01*
X12903290Y5369589D02*
X13004858D01*
X13055641Y5394981D02*
Y5547331D01*
X13131818D01*
X13157208Y5521939D01*
Y5471156D01*
X13131818Y5445764D01*
X13055641D01*
X13106425D02*
X13157208Y5394981D01*
X13309560Y5547331D02*
X13207993D01*
Y5394981D01*
X13309560D01*
X13207993Y5471156D02*
X13258775D01*
X13360342Y5547331D02*
Y5394981D01*
X13461909D01*
X13614261Y5547331D02*
X13512692D01*
Y5394981D01*
X13614261D01*
X13512692Y5471156D02*
X13563477D01*
X13665044Y5394981D02*
Y5496548D01*
X13715828Y5547331D01*
X13766611Y5496548D01*
Y5394981D01*
Y5471156D01*
X13665044D01*
X13918962Y5521939D02*
X13893570Y5547331D01*
X13842787D01*
X13817395Y5521939D01*
Y5496548D01*
X13842787Y5471156D01*
X13893570D01*
X13918962Y5445764D01*
Y5420372D01*
X13893570Y5394981D01*
X13842787D01*
X13817395Y5420372D01*
X14071313Y5547331D02*
X13969745D01*
Y5394981D01*
X14071313D01*
X13969745Y5471156D02*
X14020529D01*
X14406914Y2730475D02*
Y2603517D01*
X14432304Y2578125D01*
X14483089D01*
X14508479Y2603517D01*
Y2730475D01*
X14559264Y2578125D02*
X14610046D01*
X14584656D01*
Y2730475D01*
X14559264Y2705083D01*
X12479061Y2717775D02*
Y2590817D01*
X12504453Y2565425D01*
X12555237D01*
X12580628Y2590817D01*
Y2717775D01*
X12732979Y2565425D02*
X12631412D01*
X12732979Y2666992D01*
Y2692383D01*
X12707587Y2717775D01*
X12656804D01*
X12631412Y2692383D01*
X10693441Y2773655D02*
Y2646697D01*
X10718833Y2621305D01*
X10769617D01*
X10795008Y2646697D01*
Y2773655D01*
X10845792Y2748263D02*
X10871184Y2773655D01*
X10921967D01*
X10947359Y2748263D01*
Y2722872D01*
X10921967Y2697480D01*
X10896575D01*
X10921967D01*
X10947359Y2672088D01*
Y2646697D01*
X10921967Y2621305D01*
X10871184D01*
X10845792Y2646697D01*
X10063509Y1729723D02*
X10038117Y1755115D01*
X9987334D01*
X9961942Y1729723D01*
Y1628157D01*
X9987334Y1602765D01*
X10038117D01*
X10063509Y1628157D01*
X10114292Y1602765D02*
X10165076D01*
X10139684D01*
Y1755115D01*
X10114292Y1729723D01*
X10342819Y1602765D02*
X10241251D01*
X10342819Y1704332D01*
Y1729723D01*
X10317427Y1755115D01*
X10266643D01*
X10241251Y1729723D01*
X9705361Y2077703D02*
X9679969Y2103095D01*
X9629185D01*
X9603794Y2077703D01*
Y1976137D01*
X9629185Y1950745D01*
X9679969D01*
X9705361Y1976137D01*
X9756144Y1950745D02*
X9806928D01*
X9781536D01*
Y2103095D01*
X9756144Y2077703D01*
X9883103Y1950745D02*
X9933887D01*
X9908495D01*
Y2103095D01*
X9883103Y2077703D01*
X10124469Y2692383D02*
X10099077Y2717775D01*
X10048294D01*
X10022902Y2692383D01*
Y2590817D01*
X10048294Y2565425D01*
X10099077D01*
X10124469Y2590817D01*
X10175252Y2565425D02*
X10226036D01*
X10200644D01*
Y2717775D01*
X10175252Y2692383D01*
X10302211D02*
X10327603Y2717775D01*
X10378387D01*
X10403779Y2692383D01*
Y2590817D01*
X10378387Y2565425D01*
X10327603D01*
X10302211Y2590817D01*
Y2692383D01*
X9766308Y2357103D02*
X9740917Y2382495D01*
X9690133D01*
X9664741Y2357103D01*
Y2255537D01*
X9690133Y2230145D01*
X9740917D01*
X9766308Y2255537D01*
X9817092D02*
X9842484Y2230145D01*
X9893267D01*
X9918659Y2255537D01*
Y2357103D01*
X9893267Y2382495D01*
X9842484D01*
X9817092Y2357103D01*
Y2331712D01*
X9842484Y2306320D01*
X9918659D01*
X13350302Y9888245D02*
Y10040595D01*
X13426477D01*
X13451869Y10015203D01*
Y9964420D01*
X13426477Y9939028D01*
X13350302D01*
X13401085D02*
X13451869Y9888245D01*
X13502652D02*
X13553436D01*
X13528044D01*
Y10040595D01*
X13502652Y10015203D01*
X13629611D02*
X13655003Y10040595D01*
X13705788D01*
X13731178Y10015203D01*
Y9913637D01*
X13705788Y9888245D01*
X13655003D01*
X13629611Y9913637D01*
Y10015203D01*
X12004377Y11214071D02*
Y11061721D01*
X12080552D01*
X12105944Y11087112D01*
Y11112504D01*
X12080552Y11137896D01*
X12004377D01*
X12080552D01*
X12105944Y11163288D01*
Y11188679D01*
X12080552Y11214071D01*
X12004377D01*
X12156728D02*
X12258295D01*
X12207511D01*
Y11061721D01*
X12309078D02*
Y11214071D01*
X12410645Y11061721D01*
Y11214071D01*
X12537604Y11061721D02*
Y11214071D01*
X12461429Y11137896D01*
X12562996D01*
X12613780Y11036329D02*
X12715347D01*
X12867699Y11188679D02*
X12842307Y11214071D01*
X12791522D01*
X12766130Y11188679D01*
Y11087112D01*
X12791522Y11061721D01*
X12842307D01*
X12867699Y11087112D01*
X12918481Y11061721D02*
Y11214071D01*
X12994656D01*
X13020049Y11188679D01*
Y11137896D01*
X12994656Y11112504D01*
X12918481D01*
X13070831Y11214071D02*
Y11087112D01*
X13096223Y11061721D01*
X13147008D01*
X13172398Y11087112D01*
Y11214071D01*
X13223183Y11036329D02*
X13324750D01*
X13375533Y11061721D02*
Y11214071D01*
X13451709D01*
X13477101Y11188679D01*
Y11137896D01*
X13451709Y11112504D01*
X13375533D01*
X13426317D02*
X13477101Y11061721D01*
X13629451Y11214071D02*
X13527884D01*
Y11061721D01*
X13629451D01*
X13527884Y11137896D02*
X13578668D01*
X13781802Y11188679D02*
X13756410Y11214071D01*
X13705627D01*
X13680235Y11188679D01*
Y11163288D01*
X13705627Y11137896D01*
X13756410D01*
X13781802Y11112504D01*
Y11087112D01*
X13756410Y11061721D01*
X13705627D01*
X13680235Y11087112D01*
X13934154Y11214071D02*
X13832585D01*
Y11061721D01*
X13934154D01*
X13832585Y11137896D02*
X13883369D01*
X13984937Y11214071D02*
X14086504D01*
X14035719D01*
Y11061721D01*
X15164062Y22318951D02*
Y22191992D01*
X15189455Y22166602D01*
X15240237D01*
X15265630Y22191992D01*
Y22318951D01*
X15316414Y22166602D02*
Y22268169D01*
X15367197Y22318951D01*
X15417981Y22268169D01*
Y22166602D01*
Y22242776D01*
X15316414D01*
X15468764Y22166602D02*
Y22318951D01*
X15544940D01*
X15570332Y22293559D01*
Y22242776D01*
X15544940Y22217384D01*
X15468764D01*
X15519548D02*
X15570332Y22166602D01*
X15621115Y22318951D02*
X15722682D01*
X15671899D01*
Y22166602D01*
X15773466Y22141209D02*
X15875034D01*
X15925816Y22318951D02*
Y22166602D01*
Y22242776D01*
X16027383D01*
Y22318951D01*
Y22166602D01*
X16179733Y22318951D02*
X16078168D01*
Y22166602D01*
X16179733D01*
X16078168Y22242776D02*
X16128951D01*
X16230518Y22166602D02*
Y22268169D01*
X16281300Y22318951D01*
X16332085Y22268169D01*
Y22166602D01*
Y22242776D01*
X16230518D01*
X16382869Y22318951D02*
Y22166602D01*
X16459044D01*
X16484436Y22191992D01*
Y22293559D01*
X16459044Y22318951D01*
X16382869D01*
X16636787D02*
X16535219D01*
Y22166602D01*
X16636787D01*
X16535219Y22242776D02*
X16586003D01*
X16687570Y22166602D02*
Y22318951D01*
X16763745D01*
X16789137Y22293559D01*
Y22242776D01*
X16763745Y22217384D01*
X16687570D01*
X16738354D02*
X16789137Y22166602D01*
X1137953Y1783063D02*
X1112561Y1808455D01*
X1061778D01*
X1036386Y1783063D01*
Y1757672D01*
X1061778Y1732280D01*
X1112561D01*
X1137953Y1706888D01*
Y1681497D01*
X1112561Y1656105D01*
X1061778D01*
X1036386Y1681497D01*
X1188737Y1808455D02*
Y1656105D01*
X1239520Y1706888D01*
X1290304Y1656105D01*
Y1808455D01*
X1341087D02*
X1442654D01*
Y1783063D01*
X1341087Y1681497D01*
Y1656105D01*
X2151413Y1805923D02*
X2126021Y1831315D01*
X2075238D01*
X2049846Y1805923D01*
Y1780532D01*
X2075238Y1755140D01*
X2126021D01*
X2151413Y1729748D01*
Y1704357D01*
X2126021Y1678965D01*
X2075238D01*
X2049846Y1704357D01*
X2202197Y1831315D02*
Y1678965D01*
X2252980Y1729748D01*
X2303764Y1678965D01*
Y1831315D01*
X2456114D02*
X2405331Y1805923D01*
X2354547Y1755140D01*
Y1704357D01*
X2379939Y1678965D01*
X2430723D01*
X2456114Y1704357D01*
Y1729748D01*
X2430723Y1755140D01*
X2354547D01*
X3220753Y1803383D02*
X3195361Y1828775D01*
X3144578D01*
X3119186Y1803383D01*
Y1777992D01*
X3144578Y1752600D01*
X3195361D01*
X3220753Y1727208D01*
Y1701817D01*
X3195361Y1676425D01*
X3144578D01*
X3119186Y1701817D01*
X3271537Y1828775D02*
Y1676425D01*
X3322320Y1727208D01*
X3373104Y1676425D01*
Y1828775D01*
X3525454D02*
X3423887D01*
Y1752600D01*
X3474671Y1777992D01*
X3500063D01*
X3525454Y1752600D01*
Y1701817D01*
X3500063Y1676425D01*
X3449279D01*
X3423887Y1701817D01*
X4244373Y1803383D02*
X4218981Y1828775D01*
X4168198D01*
X4142806Y1803383D01*
Y1777992D01*
X4168198Y1752600D01*
X4218981D01*
X4244373Y1727208D01*
Y1701817D01*
X4218981Y1676425D01*
X4168198D01*
X4142806Y1701817D01*
X4295157Y1828775D02*
Y1676425D01*
X4345940Y1727208D01*
X4396724Y1676425D01*
Y1828775D01*
X4523683Y1676425D02*
Y1828775D01*
X4447507Y1752600D01*
X4549074D01*
X5229893Y1823703D02*
X5204501Y1849095D01*
X5153718D01*
X5128326Y1823703D01*
Y1798312D01*
X5153718Y1772920D01*
X5204501D01*
X5229893Y1747528D01*
Y1722137D01*
X5204501Y1696745D01*
X5153718D01*
X5128326Y1722137D01*
X5280677Y1849095D02*
Y1696745D01*
X5331460Y1747528D01*
X5382244Y1696745D01*
Y1849095D01*
X5433027Y1823703D02*
X5458419Y1849095D01*
X5509203D01*
X5534594Y1823703D01*
Y1798312D01*
X5509203Y1772920D01*
X5483811D01*
X5509203D01*
X5534594Y1747528D01*
Y1722137D01*
X5509203Y1696745D01*
X5458419D01*
X5433027Y1722137D01*
X6250973Y1798303D02*
X6225581Y1823695D01*
X6174798D01*
X6149406Y1798303D01*
Y1772912D01*
X6174798Y1747520D01*
X6225581D01*
X6250973Y1722128D01*
Y1696737D01*
X6225581Y1671345D01*
X6174798D01*
X6149406Y1696737D01*
X6301757Y1823695D02*
Y1671345D01*
X6352540Y1722128D01*
X6403324Y1671345D01*
Y1823695D01*
X6555674Y1671345D02*
X6454107D01*
X6555674Y1772912D01*
Y1798303D01*
X6530283Y1823695D01*
X6479499D01*
X6454107Y1798303D01*
X7320305Y1785603D02*
X7294913Y1810995D01*
X7244130D01*
X7218738Y1785603D01*
Y1760212D01*
X7244130Y1734820D01*
X7294913D01*
X7320305Y1709428D01*
Y1684037D01*
X7294913Y1658645D01*
X7244130D01*
X7218738Y1684037D01*
X7371088Y1810995D02*
Y1658645D01*
X7421872Y1709428D01*
X7472656Y1658645D01*
Y1810995D01*
X7523439Y1658645D02*
X7574223D01*
X7548831D01*
Y1810995D01*
X7523439Y1785603D01*
X8326153Y1780523D02*
X8300761Y1805915D01*
X8249978D01*
X8224586Y1780523D01*
Y1755132D01*
X8249978Y1729740D01*
X8300761D01*
X8326153Y1704348D01*
Y1678957D01*
X8300761Y1653565D01*
X8249978D01*
X8224586Y1678957D01*
X8376937Y1805915D02*
Y1653565D01*
X8427720Y1704348D01*
X8478504Y1653565D01*
Y1805915D01*
X8529287Y1780523D02*
X8554679Y1805915D01*
X8605463D01*
X8630854Y1780523D01*
Y1678957D01*
X8605463Y1653565D01*
X8554679D01*
X8529287Y1678957D01*
Y1780523D01*
X9700235Y16680246D02*
X9547884D01*
Y16756421D01*
X9573276Y16781813D01*
X9624060D01*
X9649452Y16756421D01*
Y16680246D01*
Y16731029D02*
X9700235Y16781813D01*
X9547884Y16934163D02*
X9573276Y16883380D01*
X9624060Y16832596D01*
X9674843D01*
X9700235Y16857988D01*
Y16908772D01*
X9674843Y16934163D01*
X9649452D01*
X9624060Y16908772D01*
Y16832596D01*
X9700235Y17086514D02*
Y16984947D01*
X9598668Y17086514D01*
X9573276D01*
X9547884Y17061122D01*
Y17010339D01*
X9573276Y16984947D01*
X10213315Y12583226D02*
X10060964D01*
Y12659401D01*
X10086356Y12684793D01*
X10137140D01*
X10162532Y12659401D01*
Y12583226D01*
Y12634009D02*
X10213315Y12684793D01*
X10060964Y12837143D02*
X10086356Y12786360D01*
X10137140Y12735576D01*
X10187923D01*
X10213315Y12760968D01*
Y12811752D01*
X10187923Y12837143D01*
X10162532D01*
X10137140Y12811752D01*
Y12735576D01*
X10086356Y12887927D02*
X10060964Y12913319D01*
Y12964102D01*
X10086356Y12989494D01*
X10187923D01*
X10213315Y12964102D01*
Y12913319D01*
X10187923Y12887927D01*
X10086356D01*
X10500335Y12545126D02*
X10347984D01*
Y12621301D01*
X10373376Y12646693D01*
X10424160D01*
X10449552Y12621301D01*
Y12545126D01*
Y12595909D02*
X10500335Y12646693D01*
X10347984Y12799043D02*
Y12697476D01*
X10424160D01*
X10398768Y12748260D01*
Y12773652D01*
X10424160Y12799043D01*
X10474943D01*
X10500335Y12773652D01*
Y12722868D01*
X10474943Y12697476D01*
X10373376Y12849828D02*
X10347984Y12875220D01*
Y12926003D01*
X10373376Y12951395D01*
X10398768D01*
X10424160Y12926003D01*
X10449552Y12951395D01*
X10474943D01*
X10500335Y12926003D01*
Y12875220D01*
X10474943Y12849828D01*
X10449552D01*
X10424160Y12875220D01*
X10398768Y12849828D01*
X10373376D01*
X10424160Y12875220D02*
Y12926003D01*
X10446995Y16700566D02*
X10294644D01*
Y16776741D01*
X10320036Y16802133D01*
X10370820D01*
X10396212Y16776741D01*
Y16700566D01*
Y16751349D02*
X10446995Y16802133D01*
X10294644Y16954483D02*
Y16852916D01*
X10370820D01*
X10345428Y16903700D01*
Y16929092D01*
X10370820Y16954483D01*
X10421603D01*
X10446995Y16929092D01*
Y16878308D01*
X10421603Y16852916D01*
X10294644Y17106834D02*
X10320036Y17056050D01*
X10370820Y17005267D01*
X10421603D01*
X10446995Y17030659D01*
Y17081442D01*
X10421603Y17106834D01*
X10396212D01*
X10370820Y17081442D01*
Y17005267D01*
X10175215Y16698026D02*
X10022864D01*
Y16774200D01*
X10048256Y16799593D01*
X10099040D01*
X10124432Y16774200D01*
Y16698026D01*
Y16748808D02*
X10175215Y16799593D01*
X10022864Y16951942D02*
Y16850375D01*
X10099040D01*
X10073648Y16901160D01*
Y16926552D01*
X10099040Y16951942D01*
X10149823D01*
X10175215Y16926552D01*
Y16875768D01*
X10149823Y16850375D01*
X10175215Y17078902D02*
X10022864D01*
X10099040Y17002727D01*
Y17104294D01*
X9928835Y16685326D02*
X9776484D01*
Y16761501D01*
X9801876Y16786893D01*
X9852660D01*
X9878052Y16761501D01*
Y16685326D01*
Y16736108D02*
X9928835Y16786893D01*
X9776484Y16939243D02*
Y16837675D01*
X9852660D01*
X9827268Y16888460D01*
Y16913852D01*
X9852660Y16939243D01*
X9903443D01*
X9928835Y16913852D01*
Y16863068D01*
X9903443Y16837675D01*
X9928835Y17091594D02*
Y16990027D01*
X9827268Y17091594D01*
X9801876D01*
X9776484Y17066202D01*
Y17015419D01*
X9801876Y16990027D01*
X9720555Y12590846D02*
X9568204D01*
Y12667021D01*
X9593596Y12692413D01*
X9644380D01*
X9669772Y12667021D01*
Y12590846D01*
Y12641629D02*
X9720555Y12692413D01*
X9568204Y12844763D02*
Y12743196D01*
X9644380D01*
X9618988Y12793980D01*
Y12819373D01*
X9644380Y12844763D01*
X9695163D01*
X9720555Y12819373D01*
Y12768588D01*
X9695163Y12743196D01*
X9593596Y12895547D02*
X9568204Y12920940D01*
Y12971722D01*
X9593596Y12997115D01*
X9695163D01*
X9720555Y12971722D01*
Y12920940D01*
X9695163Y12895547D01*
X9593596D01*
X9959315Y12590846D02*
X9806964D01*
Y12667021D01*
X9832356Y12692413D01*
X9883140D01*
X9908532Y12667021D01*
Y12590846D01*
Y12641629D02*
X9959315Y12692413D01*
Y12819373D02*
X9806964D01*
X9883140Y12743196D01*
Y12844763D01*
X9832356Y12895547D02*
X9806964Y12920940D01*
Y12971722D01*
X9832356Y12997115D01*
X9857748D01*
X9883140Y12971722D01*
X9908532Y12997115D01*
X9933923D01*
X9959315Y12971722D01*
Y12920940D01*
X9933923Y12895547D01*
X9908532D01*
X9883140Y12920940D01*
X9857748Y12895547D01*
X9832356D01*
X9883140Y12920940D02*
Y12971722D01*
X9651975Y21742467D02*
X9499624D01*
Y21818642D01*
X9525016Y21844032D01*
X9575800D01*
X9601192Y21818642D01*
Y21742467D01*
Y21793250D02*
X9651975Y21844032D01*
Y21970992D02*
X9499624D01*
X9575800Y21894817D01*
Y21996384D01*
X9499624Y22148734D02*
X9525016Y22097951D01*
X9575800Y22047166D01*
X9626583D01*
X9651975Y22072559D01*
Y22123341D01*
X9626583Y22148734D01*
X9601192D01*
X9575800Y22123341D01*
Y22047166D01*
X10137835Y17614966D02*
X9985484D01*
Y17691141D01*
X10010876Y17716533D01*
X10061660D01*
X10087052Y17691141D01*
Y17614966D01*
Y17665749D02*
X10137835Y17716533D01*
Y17843492D02*
X9985484D01*
X10061660Y17767316D01*
Y17868883D01*
X10137835Y17995842D02*
X9985484D01*
X10061660Y17919667D01*
Y18021234D01*
X10376595Y17589566D02*
X10224244D01*
Y17665741D01*
X10249636Y17691133D01*
X10300420D01*
X10325812Y17665741D01*
Y17589566D01*
Y17640349D02*
X10376595Y17691133D01*
Y17818092D02*
X10224244D01*
X10300420Y17741916D01*
Y17843483D01*
X10376595Y17995834D02*
Y17894267D01*
X10275028Y17995834D01*
X10249636D01*
X10224244Y17970442D01*
Y17919659D01*
X10249636Y17894267D01*
X10391115Y21722147D02*
X10238764D01*
Y21798322D01*
X10264156Y21823714D01*
X10314940D01*
X10340332Y21798322D01*
Y21722147D01*
Y21772929D02*
X10391115Y21823714D01*
Y21950671D02*
X10238764D01*
X10314940Y21874496D01*
Y21976064D01*
X10264156Y22026846D02*
X10238764Y22052238D01*
Y22103021D01*
X10264156Y22128413D01*
X10365723D01*
X10391115Y22103021D01*
Y22052238D01*
X10365723Y22026846D01*
X10264156D01*
X9133815Y21704366D02*
X8981465D01*
Y21780540D01*
X9006857Y21805933D01*
X9057640D01*
X9083032Y21780540D01*
Y21704366D01*
Y21755148D02*
X9133815Y21805933D01*
X9006857Y21856717D02*
X8981465Y21882108D01*
Y21932892D01*
X9006857Y21958284D01*
X9032248D01*
X9057640Y21932892D01*
Y21907500D01*
Y21932892D01*
X9083032Y21958284D01*
X9108423D01*
X9133815Y21932892D01*
Y21882108D01*
X9108423Y21856717D01*
X9006857Y22009067D02*
X8981465Y22034459D01*
Y22085243D01*
X9006857Y22110634D01*
X9032248D01*
X9057640Y22085243D01*
X9083032Y22110634D01*
X9108423D01*
X9133815Y22085243D01*
Y22034459D01*
X9108423Y22009067D01*
X9083032D01*
X9057640Y22034459D01*
X9032248Y22009067D01*
X9006857D01*
X9057640Y22034459D02*
Y22085243D01*
X8627255Y21724686D02*
X8474905D01*
Y21800861D01*
X8500296Y21826253D01*
X8551080D01*
X8576472Y21800861D01*
Y21724686D01*
Y21775468D02*
X8627255Y21826253D01*
X8500296Y21877036D02*
X8474905Y21902428D01*
Y21953212D01*
X8500296Y21978603D01*
X8525688D01*
X8551080Y21953212D01*
Y21927820D01*
Y21953212D01*
X8576472Y21978603D01*
X8601863D01*
X8627255Y21953212D01*
Y21902428D01*
X8601863Y21877036D01*
X8474905Y22130954D02*
X8500296Y22080170D01*
X8551080Y22029387D01*
X8601863D01*
X8627255Y22054779D01*
Y22105562D01*
X8601863Y22130954D01*
X8576472D01*
X8551080Y22105562D01*
Y22029387D01*
X8354035Y17658147D02*
X8201684D01*
Y17734322D01*
X8227076Y17759714D01*
X8277860D01*
X8303252Y17734322D01*
Y17658147D01*
Y17708929D02*
X8354035Y17759714D01*
X8227076Y17810497D02*
X8201684Y17835889D01*
Y17886671D01*
X8227076Y17912064D01*
X8252468D01*
X8277860Y17886671D01*
Y17861279D01*
Y17886671D01*
X8303252Y17912064D01*
X8328643D01*
X8354035Y17886671D01*
Y17835889D01*
X8328643Y17810497D01*
X8354035Y18039021D02*
X8201684D01*
X8277860Y17962846D01*
Y18064413D01*
X8618195Y17663226D02*
X8465844D01*
Y17739401D01*
X8491236Y17764793D01*
X8542020D01*
X8567412Y17739401D01*
Y17663226D01*
Y17714009D02*
X8618195Y17764793D01*
X8491236Y17815576D02*
X8465844Y17840968D01*
Y17891753D01*
X8491236Y17917143D01*
X8516628D01*
X8542020Y17891753D01*
Y17866360D01*
Y17891753D01*
X8567412Y17917143D01*
X8592803D01*
X8618195Y17891753D01*
Y17840968D01*
X8592803Y17815576D01*
X8618195Y18069495D02*
Y17967928D01*
X8516628Y18069495D01*
X8491236D01*
X8465844Y18044102D01*
Y17993320D01*
X8491236Y17967928D01*
X3378895Y16850417D02*
X3226544D01*
Y16926593D01*
X3251936Y16951985D01*
X3302720D01*
X3328112Y16926593D01*
Y16850417D01*
Y16901201D02*
X3378895Y16951985D01*
X3226544Y17104335D02*
X3251936Y17053552D01*
X3302720Y17002768D01*
X3353503D01*
X3378895Y17028160D01*
Y17078943D01*
X3353503Y17104335D01*
X3328112D01*
X3302720Y17078943D01*
Y17002768D01*
X3378895Y17155119D02*
Y17205902D01*
Y17180511D01*
X3226544D01*
X3251936Y17155119D01*
X3791095Y12550206D02*
X3638745D01*
Y12626381D01*
X3664136Y12651773D01*
X3714920D01*
X3740312Y12626381D01*
Y12550206D01*
Y12600989D02*
X3791095Y12651773D01*
X3638745Y12804123D02*
Y12702556D01*
X3714920D01*
X3689528Y12753340D01*
Y12778732D01*
X3714920Y12804123D01*
X3765703D01*
X3791095Y12778732D01*
Y12727948D01*
X3765703Y12702556D01*
Y12854907D02*
X3791095Y12880299D01*
Y12931082D01*
X3765703Y12956474D01*
X3664136D01*
X3638745Y12931082D01*
Y12880299D01*
X3664136Y12854907D01*
X3689528D01*
X3714920Y12880299D01*
Y12956474D01*
X2572995Y12537506D02*
X2420644D01*
Y12613681D01*
X2446036Y12639073D01*
X2496820D01*
X2522212Y12613681D01*
Y12537506D01*
Y12588289D02*
X2572995Y12639073D01*
X2420644Y12791423D02*
Y12689856D01*
X2496820D01*
X2471428Y12740640D01*
Y12766032D01*
X2496820Y12791423D01*
X2547603D01*
X2572995Y12766032D01*
Y12715248D01*
X2547603Y12689856D01*
X2420644Y12842207D02*
Y12943774D01*
X2446036D01*
X2547603Y12842207D01*
X2572995D01*
X3102035Y16832646D02*
X2949684D01*
Y16908821D01*
X2975076Y16934213D01*
X3025860D01*
X3051252Y16908821D01*
Y16832646D01*
Y16883429D02*
X3102035Y16934213D01*
X2949684Y17086563D02*
Y16984996D01*
X3025860D01*
X3000468Y17035780D01*
Y17061172D01*
X3025860Y17086563D01*
X3076643D01*
X3102035Y17061172D01*
Y17010388D01*
X3076643Y16984996D01*
X2949684Y17238914D02*
Y17137347D01*
X3025860D01*
X3000468Y17188130D01*
Y17213522D01*
X3025860Y17238914D01*
X3076643D01*
X3102035Y17213522D01*
Y17162740D01*
X3076643Y17137347D01*
X3856415Y16799626D02*
X3704064D01*
Y16875801D01*
X3729456Y16901193D01*
X3780240D01*
X3805632Y16875801D01*
Y16799626D01*
Y16850409D02*
X3856415Y16901193D01*
X3704064Y17053543D02*
Y16951976D01*
X3780240D01*
X3754848Y17002760D01*
Y17028152D01*
X3780240Y17053543D01*
X3831023D01*
X3856415Y17028152D01*
Y16977368D01*
X3831023Y16951976D01*
X3729456Y17104327D02*
X3704064Y17129720D01*
Y17180502D01*
X3729456Y17205894D01*
X3754848D01*
X3780240Y17180502D01*
Y17155110D01*
Y17180502D01*
X3805632Y17205894D01*
X3831023D01*
X3856415Y17180502D01*
Y17129720D01*
X3831023Y17104327D01*
X2350195Y16827557D02*
X2197844D01*
Y16903732D01*
X2223236Y16929124D01*
X2274020D01*
X2299412Y16903732D01*
Y16827557D01*
Y16878342D02*
X2350195Y16929124D01*
X2197844Y17081474D02*
Y16979909D01*
X2274020D01*
X2248628Y17030692D01*
Y17056084D01*
X2274020Y17081474D01*
X2324803D01*
X2350195Y17056084D01*
Y17005299D01*
X2324803Y16979909D01*
X2350195Y17132259D02*
Y17183041D01*
Y17157651D01*
X2197844D01*
X2223236Y17132259D01*
X2031975Y12524806D02*
X1879624D01*
Y12600981D01*
X1905016Y12626373D01*
X1955800D01*
X1981192Y12600981D01*
Y12524806D01*
Y12575589D02*
X2031975Y12626373D01*
Y12753332D02*
X1879624D01*
X1955800Y12677156D01*
Y12778723D01*
X2006583Y12829507D02*
X2031975Y12854900D01*
Y12905682D01*
X2006583Y12931075D01*
X1905016D01*
X1879624Y12905682D01*
Y12854900D01*
X1905016Y12829507D01*
X1930408D01*
X1955800Y12854900D01*
Y12931075D01*
X2298675Y12550206D02*
X2146324D01*
Y12626381D01*
X2171716Y12651773D01*
X2222500D01*
X2247892Y12626381D01*
Y12550206D01*
Y12600989D02*
X2298675Y12651773D01*
Y12778732D02*
X2146324D01*
X2222500Y12702556D01*
Y12804123D01*
X2146324Y12854907D02*
Y12956474D01*
X2171716D01*
X2273283Y12854907D01*
X2298675D01*
X3180775Y21767867D02*
X3028425D01*
Y21844041D01*
X3053817Y21869434D01*
X3104600D01*
X3129992Y21844041D01*
Y21767867D01*
Y21818649D02*
X3180775Y21869434D01*
Y21996391D02*
X3028425D01*
X3104600Y21920216D01*
Y22021783D01*
X3028425Y22174133D02*
Y22072568D01*
X3104600D01*
X3079208Y22123351D01*
Y22148743D01*
X3104600Y22174133D01*
X3155384D01*
X3180775Y22148743D01*
Y22097958D01*
X3155384Y22072568D01*
X3656855Y17584486D02*
X3504505D01*
Y17660661D01*
X3529896Y17686053D01*
X3580680D01*
X3606072Y17660661D01*
Y17584486D01*
Y17635269D02*
X3656855Y17686053D01*
Y17813013D02*
X3504505D01*
X3580680Y17736836D01*
Y17838403D01*
X3529896Y17889188D02*
X3504505Y17914578D01*
Y17965363D01*
X3529896Y17990755D01*
X3555288D01*
X3580680Y17965363D01*
Y17939970D01*
Y17965363D01*
X3606072Y17990755D01*
X3631463D01*
X3656855Y17965363D01*
Y17914578D01*
X3631463Y17889188D01*
X3921015Y17612418D02*
X3768665D01*
Y17688593D01*
X3794056Y17713985D01*
X3844840D01*
X3870232Y17688593D01*
Y17612418D01*
Y17663200D02*
X3921015Y17713985D01*
Y17840944D02*
X3768665D01*
X3844840Y17764767D01*
Y17866336D01*
X3921015Y17917119D02*
Y17967903D01*
Y17942511D01*
X3768665D01*
X3794056Y17917119D01*
X3942775Y21767867D02*
X3790425D01*
Y21844041D01*
X3815817Y21869434D01*
X3866600D01*
X3891992Y21844041D01*
Y21767867D01*
Y21818649D02*
X3942775Y21869434D01*
X3815817Y21920216D02*
X3790425Y21945609D01*
Y21996391D01*
X3815817Y22021783D01*
X3841208D01*
X3866600Y21996391D01*
Y21971001D01*
Y21996391D01*
X3891992Y22021783D01*
X3917384D01*
X3942775Y21996391D01*
Y21945609D01*
X3917384Y21920216D01*
Y22072568D02*
X3942775Y22097958D01*
Y22148743D01*
X3917384Y22174133D01*
X3815817D01*
X3790425Y22148743D01*
Y22097958D01*
X3815817Y22072568D01*
X3841208D01*
X3866600Y22097958D01*
Y22174133D01*
X3698215Y21775487D02*
X3545865D01*
Y21851662D01*
X3571257Y21877052D01*
X3622040D01*
X3647432Y21851662D01*
Y21775487D01*
Y21826270D02*
X3698215Y21877052D01*
X3571257Y21927837D02*
X3545865Y21953229D01*
Y22004012D01*
X3571257Y22029404D01*
X3596648D01*
X3622040Y22004012D01*
Y21978619D01*
Y22004012D01*
X3647432Y22029404D01*
X3672823D01*
X3698215Y22004012D01*
Y21953229D01*
X3672823Y21927837D01*
X3545865Y22080186D02*
Y22181754D01*
X3571257D01*
X3672823Y22080186D01*
X3698215D01*
X2143735Y21780566D02*
X1991385D01*
Y21856741D01*
X2016777Y21882133D01*
X2067560D01*
X2092952Y21856741D01*
Y21780566D01*
Y21831349D02*
X2143735Y21882133D01*
X2016777Y21932916D02*
X1991385Y21958308D01*
Y22009093D01*
X2016777Y22034483D01*
X2042168D01*
X2067560Y22009093D01*
Y21983701D01*
Y22009093D01*
X2092952Y22034483D01*
X2118343D01*
X2143735Y22009093D01*
Y21958308D01*
X2118343Y21932916D01*
X1991385Y22186835D02*
Y22085268D01*
X2067560D01*
X2042168Y22136050D01*
Y22161443D01*
X2067560Y22186835D01*
X2118343D01*
X2143735Y22161443D01*
Y22110658D01*
X2118343Y22085268D01*
X1818615Y17556546D02*
X1666265D01*
Y17632721D01*
X1691657Y17658113D01*
X1742440D01*
X1767832Y17632721D01*
Y17556546D01*
Y17607329D02*
X1818615Y17658113D01*
X1691657Y17708897D02*
X1666265Y17734288D01*
Y17785072D01*
X1691657Y17810464D01*
X1717048D01*
X1742440Y17785072D01*
Y17759680D01*
Y17785072D01*
X1767832Y17810464D01*
X1793223D01*
X1818615Y17785072D01*
Y17734288D01*
X1793223Y17708897D01*
X1691657Y17861247D02*
X1666265Y17886639D01*
Y17937424D01*
X1691657Y17962814D01*
X1717048D01*
X1742440Y17937424D01*
Y17912032D01*
Y17937424D01*
X1767832Y17962814D01*
X1793223D01*
X1818615Y17937424D01*
Y17886639D01*
X1793223Y17861247D01*
X2166595Y17581938D02*
X2014245D01*
Y17658113D01*
X2039637Y17683505D01*
X2090420D01*
X2115812Y17658113D01*
Y17581938D01*
Y17632721D02*
X2166595Y17683505D01*
X2039637Y17734288D02*
X2014245Y17759680D01*
Y17810464D01*
X2039637Y17835857D01*
X2065028D01*
X2090420Y17810464D01*
Y17785072D01*
Y17810464D01*
X2115812Y17835857D01*
X2141203D01*
X2166595Y17810464D01*
Y17759680D01*
X2141203Y17734288D01*
X2166595Y17886639D02*
Y17937424D01*
Y17912032D01*
X2014245D01*
X2039637Y17886639D01*
X13878625Y19353046D02*
Y19505396D01*
X13954800D01*
X13980193Y19480003D01*
Y19429221D01*
X13954800Y19403828D01*
X13878625D01*
X13929408D02*
X13980193Y19353046D01*
X14132544Y19505396D02*
X14081760Y19480003D01*
X14030977Y19429221D01*
Y19378436D01*
X14056367Y19353046D01*
X14107152D01*
X14132544Y19378436D01*
Y19403828D01*
X14107152Y19429221D01*
X14030977D01*
X14183327Y19480003D02*
X14208719Y19505396D01*
X14259503D01*
X14284894Y19480003D01*
Y19454613D01*
X14259503Y19429221D01*
X14234111D01*
X14259503D01*
X14284894Y19403828D01*
Y19378436D01*
X14259503Y19353046D01*
X14208719D01*
X14183327Y19378436D01*
X3065846Y4884445D02*
Y5036795D01*
X3142021D01*
X3167413Y5011403D01*
Y4960620D01*
X3142021Y4935228D01*
X3065846D01*
X3116629D02*
X3167413Y4884445D01*
X3218197Y5011403D02*
X3243588Y5036795D01*
X3294372D01*
X3319764Y5011403D01*
Y4986012D01*
X3294372Y4960620D01*
X3268980D01*
X3294372D01*
X3319764Y4935228D01*
Y4909837D01*
X3294372Y4884445D01*
X3243588D01*
X3218197Y4909837D01*
X3370547Y5011403D02*
X3395939Y5036795D01*
X3446723D01*
X3472114Y5011403D01*
Y4909837D01*
X3446723Y4884445D01*
X3395939D01*
X3370547Y4909837D01*
Y5011403D01*
X3073466Y5331982D02*
Y5484333D01*
X3149641D01*
X3175033Y5458941D01*
Y5408157D01*
X3149641Y5382765D01*
X3073466D01*
X3124249D02*
X3175033Y5331982D01*
X3327384D02*
X3225817D01*
X3327384Y5433549D01*
Y5458941D01*
X3301992Y5484333D01*
X3251208D01*
X3225817Y5458941D01*
X3378167D02*
X3403559Y5484333D01*
X3454343D01*
X3479734Y5458941D01*
Y5433549D01*
X3454343Y5408157D01*
X3479734Y5382765D01*
Y5357374D01*
X3454343Y5331982D01*
X3403559D01*
X3378167Y5357374D01*
Y5382765D01*
X3403559Y5408157D01*
X3378167Y5433549D01*
Y5458941D01*
X3403559Y5408157D02*
X3454343D01*
X3064576Y5805746D02*
Y5958097D01*
X3140751D01*
X3166143Y5932705D01*
Y5881921D01*
X3140751Y5856530D01*
X3064576D01*
X3115359D02*
X3166143Y5805746D01*
X3318494D02*
X3216927D01*
X3318494Y5907313D01*
Y5932705D01*
X3293102Y5958097D01*
X3242318D01*
X3216927Y5932705D01*
X3470844Y5958097D02*
X3420061Y5932705D01*
X3369277Y5881921D01*
Y5831138D01*
X3394669Y5805746D01*
X3445453D01*
X3470844Y5831138D01*
Y5856530D01*
X3445453Y5881921D01*
X3369277D01*
X3058226Y6257196D02*
Y6409547D01*
X3134401D01*
X3159793Y6384155D01*
Y6333372D01*
X3134401Y6307980D01*
X3058226D01*
X3109009D02*
X3159793Y6257196D01*
X3312144D02*
X3210577D01*
X3312144Y6358764D01*
Y6384155D01*
X3286752Y6409547D01*
X3235968D01*
X3210577Y6384155D01*
X3439103Y6257196D02*
Y6409547D01*
X3362927Y6333372D01*
X3464494D01*
X3076006Y6723613D02*
Y6875964D01*
X3152181D01*
X3177573Y6850572D01*
Y6799789D01*
X3152181Y6774397D01*
X3076006D01*
X3126789D02*
X3177573Y6723613D01*
X3329924D02*
X3228357D01*
X3329924Y6825181D01*
Y6850572D01*
X3304532Y6875964D01*
X3253748D01*
X3228357Y6850572D01*
X3482274Y6723613D02*
X3380707D01*
X3482274Y6825181D01*
Y6850572D01*
X3456883Y6875964D01*
X3406099D01*
X3380707Y6850572D01*
X3088706Y7190031D02*
Y7342381D01*
X3164881D01*
X3190273Y7316989D01*
Y7266206D01*
X3164881Y7240814D01*
X3088706D01*
X3139489D02*
X3190273Y7190031D01*
X3342624D02*
X3241057D01*
X3342624Y7291598D01*
Y7316989D01*
X3317232Y7342381D01*
X3266448D01*
X3241057Y7316989D01*
X3393407D02*
X3418799Y7342381D01*
X3469583D01*
X3494974Y7316989D01*
Y7215422D01*
X3469583Y7190031D01*
X3418799D01*
X3393407Y7215422D01*
Y7316989D01*
X3103942Y7648828D02*
Y7801178D01*
X3180117D01*
X3205509Y7775787D01*
Y7725003D01*
X3180117Y7699611D01*
X3103942D01*
X3154725D02*
X3205509Y7648828D01*
X3256292D02*
X3307076D01*
X3281684D01*
Y7801178D01*
X3256292Y7775787D01*
X3383251D02*
X3408643Y7801178D01*
X3459427D01*
X3484819Y7775787D01*
Y7750395D01*
X3459427Y7725003D01*
X3484819Y7699611D01*
Y7674220D01*
X3459427Y7648828D01*
X3408643D01*
X3383251Y7674220D01*
Y7699611D01*
X3408643Y7725003D01*
X3383251Y7750395D01*
Y7775787D01*
X3408643Y7725003D02*
X3459427D01*
X3091242Y8115245D02*
Y8267596D01*
X3167417D01*
X3192809Y8242204D01*
Y8191420D01*
X3167417Y8166028D01*
X3091242D01*
X3142025D02*
X3192809Y8115245D01*
X3243592D02*
X3294376D01*
X3268984D01*
Y8267596D01*
X3243592Y8242204D01*
X3472119Y8267596D02*
X3421335Y8242204D01*
X3370551Y8191420D01*
Y8140637D01*
X3395943Y8115245D01*
X3446727D01*
X3472119Y8140637D01*
Y8166028D01*
X3446727Y8191420D01*
X3370551D01*
X3088706Y8566422D02*
Y8718773D01*
X3164881D01*
X3190273Y8693381D01*
Y8642597D01*
X3164881Y8617206D01*
X3088706D01*
X3139489D02*
X3190273Y8566422D01*
X3342624D02*
X3241057D01*
X3342624Y8667989D01*
Y8693381D01*
X3317232Y8718773D01*
X3266448D01*
X3241057Y8693381D01*
X3393407Y8591814D02*
X3418799Y8566422D01*
X3469583D01*
X3494974Y8591814D01*
Y8693381D01*
X3469583Y8718773D01*
X3418799D01*
X3393407Y8693381D01*
Y8667989D01*
X3418799Y8642597D01*
X3494974D01*
X3058226Y9022679D02*
Y9175030D01*
X3134401D01*
X3159793Y9149638D01*
Y9098855D01*
X3134401Y9073463D01*
X3058226D01*
X3109009D02*
X3159793Y9022679D01*
X3312144D02*
X3210577D01*
X3312144Y9124246D01*
Y9149638D01*
X3286752Y9175030D01*
X3235968D01*
X3210577Y9149638D01*
X3362927Y9175030D02*
X3464494D01*
Y9149638D01*
X3362927Y9048071D01*
Y9022679D01*
X3083626Y9496716D02*
Y9649067D01*
X3159801D01*
X3185193Y9623675D01*
Y9572892D01*
X3159801Y9547500D01*
X3083626D01*
X3134409D02*
X3185193Y9496716D01*
X3337544D02*
X3235977D01*
X3337544Y9598284D01*
Y9623675D01*
X3312152Y9649067D01*
X3261368D01*
X3235977Y9623675D01*
X3489894Y9649067D02*
X3388327D01*
Y9572892D01*
X3439111Y9598284D01*
X3464503D01*
X3489894Y9572892D01*
Y9522108D01*
X3464503Y9496716D01*
X3413719D01*
X3388327Y9522108D01*
X3078546Y9950433D02*
Y10102784D01*
X3154721D01*
X3180113Y10077392D01*
Y10026609D01*
X3154721Y10001217D01*
X3078546D01*
X3129329D02*
X3180113Y9950433D01*
X3332464D02*
X3230897D01*
X3332464Y10052001D01*
Y10077392D01*
X3307072Y10102784D01*
X3256288D01*
X3230897Y10077392D01*
X3383247D02*
X3408639Y10102784D01*
X3459423D01*
X3484814Y10077392D01*
Y10052001D01*
X3459423Y10026609D01*
X3434031D01*
X3459423D01*
X3484814Y10001217D01*
Y9975825D01*
X3459423Y9950433D01*
X3408639D01*
X3383247Y9975825D01*
X3088698Y10414311D02*
Y10566661D01*
X3164873D01*
X3190265Y10541269D01*
Y10490486D01*
X3164873Y10465094D01*
X3088698D01*
X3139481D02*
X3190265Y10414311D01*
X3342616D02*
X3241048D01*
X3342616Y10515878D01*
Y10541269D01*
X3317224Y10566661D01*
X3266440D01*
X3241048Y10541269D01*
X3393399Y10414311D02*
X3444183D01*
X3418791D01*
Y10566661D01*
X3393399Y10541269D01*
X3093782Y10871225D02*
Y11023575D01*
X3169957D01*
X3195349Y10998183D01*
Y10947400D01*
X3169957Y10922008D01*
X3093782D01*
X3144565D02*
X3195349Y10871225D01*
X3246132D02*
X3296916D01*
X3271524D01*
Y11023575D01*
X3246132Y10998183D01*
X3373091Y10896617D02*
X3398483Y10871225D01*
X3449267D01*
X3474659Y10896617D01*
Y10998183D01*
X3449267Y11023575D01*
X3398483D01*
X3373091Y10998183D01*
Y10972792D01*
X3398483Y10947400D01*
X3474659D01*
X3086162Y11336985D02*
Y11489336D01*
X3162337D01*
X3187729Y11463944D01*
Y11413160D01*
X3162337Y11387768D01*
X3086162D01*
X3136945D02*
X3187729Y11336985D01*
X3238512D02*
X3289296D01*
X3263904D01*
Y11489336D01*
X3238512Y11463944D01*
X3365471Y11489336D02*
X3467039D01*
Y11463944D01*
X3365471Y11362377D01*
Y11336985D01*
X3076002Y11795782D02*
Y11948133D01*
X3152177D01*
X3177569Y11922741D01*
Y11871957D01*
X3152177Y11846566D01*
X3076002D01*
X3126785D02*
X3177569Y11795782D01*
X3228352D02*
X3279136D01*
X3253744D01*
Y11948133D01*
X3228352Y11922741D01*
X3456879Y11948133D02*
X3355311D01*
Y11871957D01*
X3406095Y11897349D01*
X3431487D01*
X3456879Y11871957D01*
Y11821174D01*
X3431487Y11795782D01*
X3380703D01*
X3355311Y11821174D01*
X11430062Y5702325D02*
Y5854675D01*
X11506237D01*
X11531629Y5829283D01*
Y5778500D01*
X11506237Y5753108D01*
X11430062D01*
X11480845D02*
X11531629Y5702325D01*
X11582412D02*
X11633196D01*
X11607804D01*
Y5854675D01*
X11582412Y5829283D01*
X11785547Y5702325D02*
Y5854675D01*
X11709371Y5778500D01*
X11810939D01*
X11493562Y7988325D02*
Y8140675D01*
X11569737D01*
X11595129Y8115283D01*
Y8064500D01*
X11569737Y8039108D01*
X11493562D01*
X11544345D02*
X11595129Y7988325D01*
X11645912D02*
X11696696D01*
X11671304D01*
Y8140675D01*
X11645912Y8115283D01*
X11772871D02*
X11798263Y8140675D01*
X11849047D01*
X11874439Y8115283D01*
Y8089892D01*
X11849047Y8064500D01*
X11823655D01*
X11849047D01*
X11874439Y8039108D01*
Y8013717D01*
X11849047Y7988325D01*
X11798263D01*
X11772871Y8013717D01*
X15179094Y5763285D02*
Y5915635D01*
X15255269D01*
X15280661Y5890243D01*
Y5839460D01*
X15255269Y5814068D01*
X15179094D01*
X15229877D02*
X15280661Y5763285D01*
X15331444D02*
X15382228D01*
X15356836D01*
Y5915635D01*
X15331444Y5890243D01*
X15458403Y5763285D02*
X15509187D01*
X15483795D01*
Y5915635D01*
X15458403Y5890243D01*
X15199400Y8034045D02*
Y8186395D01*
X15275577D01*
X15300967Y8161003D01*
Y8110220D01*
X15275577Y8084828D01*
X15199400D01*
X15250185D02*
X15300967Y8034045D01*
X15351752Y8059437D02*
X15377144Y8034045D01*
X15427927D01*
X15453319Y8059437D01*
Y8161003D01*
X15427927Y8186395D01*
X15377144D01*
X15351752Y8161003D01*
Y8135612D01*
X15377144Y8110220D01*
X15453319D01*
X1059941Y3708425D02*
Y3860775D01*
X1136117D01*
X1161508Y3835383D01*
Y3784600D01*
X1136117Y3759208D01*
X1059941D01*
X1110725D02*
X1161508Y3708425D01*
X1212292Y3835383D02*
X1237684Y3860775D01*
X1288467D01*
X1313859Y3835383D01*
Y3809992D01*
X1288467Y3784600D01*
X1313859Y3759208D01*
Y3733817D01*
X1288467Y3708425D01*
X1237684D01*
X1212292Y3733817D01*
Y3759208D01*
X1237684Y3784600D01*
X1212292Y3809992D01*
Y3835383D01*
X1237684Y3784600D02*
X1288467D01*
X2116581Y3708425D02*
Y3860775D01*
X2192757D01*
X2218148Y3835383D01*
Y3784600D01*
X2192757Y3759208D01*
X2116581D01*
X2167365D02*
X2218148Y3708425D01*
X2268932Y3860775D02*
X2370499D01*
Y3835383D01*
X2268932Y3733817D01*
Y3708425D01*
X3161621Y3723665D02*
Y3876015D01*
X3237796D01*
X3263188Y3850623D01*
Y3799840D01*
X3237796Y3774448D01*
X3161621D01*
X3212405D02*
X3263188Y3723665D01*
X3415539Y3876015D02*
X3364755Y3850623D01*
X3313972Y3799840D01*
Y3749057D01*
X3339364Y3723665D01*
X3390147D01*
X3415539Y3749057D01*
Y3774448D01*
X3390147Y3799840D01*
X3313972D01*
X4177621Y3705885D02*
Y3858235D01*
X4253796D01*
X4279188Y3832843D01*
Y3782060D01*
X4253796Y3756668D01*
X4177621D01*
X4228405D02*
X4279188Y3705885D01*
X4431539Y3858235D02*
X4329972D01*
Y3782060D01*
X4380755Y3807452D01*
X4406147D01*
X4431539Y3782060D01*
Y3731277D01*
X4406147Y3705885D01*
X4355364D01*
X4329972Y3731277D01*
X5173301Y3733825D02*
Y3886175D01*
X5249476D01*
X5274868Y3860783D01*
Y3810000D01*
X5249476Y3784608D01*
X5173301D01*
X5224085D02*
X5274868Y3733825D01*
X5401827D02*
Y3886175D01*
X5325652Y3810000D01*
X5427219D01*
X6196541Y3690645D02*
Y3842995D01*
X6272717D01*
X6298109Y3817603D01*
Y3766820D01*
X6272717Y3741428D01*
X6196541D01*
X6247325D02*
X6298109Y3690645D01*
X6348892Y3817603D02*
X6374284Y3842995D01*
X6425067D01*
X6450459Y3817603D01*
Y3792212D01*
X6425067Y3766820D01*
X6399676D01*
X6425067D01*
X6450459Y3741428D01*
Y3716037D01*
X6425067Y3690645D01*
X6374284D01*
X6348892Y3716037D01*
X7223081Y3708425D02*
Y3860775D01*
X7299256D01*
X7324648Y3835383D01*
Y3784600D01*
X7299256Y3759208D01*
X7223081D01*
X7273865D02*
X7324648Y3708425D01*
X7476999D02*
X7375432D01*
X7476999Y3809992D01*
Y3835383D01*
X7451607Y3860775D01*
X7400824D01*
X7375432Y3835383D01*
X8282973Y3708425D02*
Y3860775D01*
X8359148D01*
X8384540Y3835383D01*
Y3784600D01*
X8359148Y3759208D01*
X8282973D01*
X8333757D02*
X8384540Y3708425D01*
X8435324D02*
X8486107D01*
X8460716D01*
Y3860775D01*
X8435324Y3835383D01*
X14912308Y19936452D02*
Y20038019D01*
X14886916Y20063411D01*
X14836131D01*
X14810741Y20038019D01*
Y19936452D01*
X14836131Y19911060D01*
X14886916D01*
X14861523Y19961842D02*
X14912308Y19911060D01*
X14886916D02*
X14912308Y19936452D01*
X14963091Y19911060D02*
X15013873D01*
X14988483D01*
Y20063411D01*
X14963091Y20038019D01*
X5720138Y5422875D02*
X5669354D01*
X5643962Y5397483D01*
Y5295917D01*
X5669354Y5270525D01*
X5720138D01*
X5745530Y5295917D01*
Y5397483D01*
X5720138Y5422875D01*
X5897880Y5397483D02*
X5872488Y5422875D01*
X5821705D01*
X5796313Y5397483D01*
Y5372092D01*
X5821705Y5346700D01*
X5872488D01*
X5897880Y5321308D01*
Y5295917D01*
X5872488Y5270525D01*
X5821705D01*
X5796313Y5295917D01*
X6050231Y5397483D02*
X6024839Y5422875D01*
X5974056D01*
X5948664Y5397483D01*
Y5295917D01*
X5974056Y5270525D01*
X6024839D01*
X6050231Y5295917D01*
X6101014Y5270525D02*
X6151798D01*
X6126406D01*
Y5422875D01*
X6101014Y5397483D01*
X5237710Y7058631D02*
X5186926D01*
X5212318D01*
Y6931672D01*
X5186926Y6906281D01*
X5161535D01*
X5136143Y6931672D01*
X5288494Y7058631D02*
X5390061D01*
X5339277D01*
Y6906281D01*
X5440844D02*
Y7007848D01*
X5491628Y7058631D01*
X5542412Y7007848D01*
Y6906281D01*
Y6982456D01*
X5440844D01*
X5694762Y7033239D02*
X5669370Y7058631D01*
X5618587D01*
X5593195Y7033239D01*
Y6931672D01*
X5618587Y6906281D01*
X5669370D01*
X5694762Y6931672D01*
Y6982456D01*
X5643979D01*
X5745546Y6880889D02*
X5847113D01*
X5897897Y7058631D02*
Y6906281D01*
Y6982456D01*
X5999464D01*
Y7058631D01*
Y6906281D01*
X6151814Y7058631D02*
X6050247D01*
Y6906281D01*
X6151814D01*
X6050247Y6982456D02*
X6101031D01*
X6202598Y6906281D02*
Y7007848D01*
X6253381Y7058631D01*
X6304165Y7007848D01*
Y6906281D01*
Y6982456D01*
X6202598D01*
X6354949Y7058631D02*
Y6906281D01*
X6431124D01*
X6456516Y6931672D01*
Y7033239D01*
X6431124Y7058631D01*
X6354949D01*
X6608867D02*
X6507299D01*
Y6906281D01*
X6608867D01*
X6507299Y6982456D02*
X6558083D01*
X6659650Y6906281D02*
Y7058631D01*
X6735825D01*
X6761217Y7033239D01*
Y6982456D01*
X6735825Y6957064D01*
X6659650D01*
X6710434D02*
X6761217Y6906281D01*
X15715140Y3474695D02*
Y3322345D01*
X15791316D01*
X15816708Y3347737D01*
Y3449303D01*
X15791316Y3474695D01*
X15715140D01*
X15969058Y3449303D02*
X15943666Y3474695D01*
X15892883D01*
X15867491Y3449303D01*
Y3347737D01*
X15892883Y3322345D01*
X15943666D01*
X15969058Y3347737D01*
X16273759Y3474695D02*
X16222977D01*
X16248367D01*
Y3347737D01*
X16222977Y3322345D01*
X16197585D01*
X16172192Y3347737D01*
X16349934Y3423912D02*
X16400719D01*
X16426109Y3398520D01*
Y3322345D01*
X16349934D01*
X16324544Y3347737D01*
X16349934Y3373128D01*
X16426109D01*
X16578461Y3423912D02*
X16502286D01*
X16476894Y3398520D01*
Y3347737D01*
X16502286Y3322345D01*
X16578461D01*
X16629245D02*
Y3474695D01*
Y3373128D02*
X16705420Y3423912D01*
X16629245Y3373128D02*
X16705420Y3322345D01*
X1605342Y5011395D02*
Y4859045D01*
X1681517D01*
X1706909Y4884437D01*
Y4986003D01*
X1681517Y5011395D01*
X1605342D01*
X1757692Y4859045D02*
X1808476D01*
X1783084D01*
Y5011395D01*
X1757692Y4986003D01*
X1986219Y5011395D02*
X1935435Y4986003D01*
X1884651Y4935220D01*
Y4884437D01*
X1910043Y4859045D01*
X1960827D01*
X1986219Y4884437D01*
Y4909828D01*
X1960827Y4935220D01*
X1884651D01*
X1592642Y5454710D02*
Y5302359D01*
X1668817D01*
X1694209Y5327751D01*
Y5429318D01*
X1668817Y5454710D01*
X1592642D01*
X1744992Y5302359D02*
X1795776D01*
X1770384D01*
Y5454710D01*
X1744992Y5429318D01*
X1973519Y5454710D02*
X1871951D01*
Y5378535D01*
X1922735Y5403926D01*
X1948127D01*
X1973519Y5378535D01*
Y5327751D01*
X1948127Y5302359D01*
X1897343D01*
X1871951Y5327751D01*
X1610422Y5900565D02*
Y5748214D01*
X1686597D01*
X1711989Y5773606D01*
Y5875173D01*
X1686597Y5900565D01*
X1610422D01*
X1762772Y5748214D02*
X1813556D01*
X1788164D01*
Y5900565D01*
X1762772Y5875173D01*
X1965907Y5748214D02*
Y5900565D01*
X1889731Y5824389D01*
X1991299D01*
X1612962Y6354039D02*
Y6201688D01*
X1689137D01*
X1714529Y6227080D01*
Y6328647D01*
X1689137Y6354039D01*
X1612962D01*
X1765312Y6201688D02*
X1816096D01*
X1790704D01*
Y6354039D01*
X1765312Y6328647D01*
X1892271D02*
X1917663Y6354039D01*
X1968447D01*
X1993839Y6328647D01*
Y6303256D01*
X1968447Y6277864D01*
X1943055D01*
X1968447D01*
X1993839Y6252472D01*
Y6227080D01*
X1968447Y6201688D01*
X1917663D01*
X1892271Y6227080D01*
X1633282Y6853234D02*
Y6700883D01*
X1709457D01*
X1734849Y6726275D01*
Y6827842D01*
X1709457Y6853234D01*
X1633282D01*
X1785632Y6700883D02*
X1836416D01*
X1811024D01*
Y6853234D01*
X1785632Y6827842D01*
X2014159Y6700883D02*
X1912591D01*
X2014159Y6802450D01*
Y6827842D01*
X1988767Y6853234D01*
X1937983D01*
X1912591Y6827842D01*
X1620574Y7301628D02*
Y7149278D01*
X1696749D01*
X1722141Y7174669D01*
Y7276236D01*
X1696749Y7301628D01*
X1620574D01*
X1772924Y7149278D02*
X1823708D01*
X1798316D01*
Y7301628D01*
X1772924Y7276236D01*
X1899883Y7149278D02*
X1950667D01*
X1925275D01*
Y7301628D01*
X1899883Y7276236D01*
X1638362Y7765263D02*
Y7612912D01*
X1714537D01*
X1739929Y7638304D01*
Y7739871D01*
X1714537Y7765263D01*
X1638362D01*
X1790712Y7612912D02*
X1841496D01*
X1816104D01*
Y7765263D01*
X1790712Y7739871D01*
X1917671D02*
X1943063Y7765263D01*
X1993847D01*
X2019239Y7739871D01*
Y7638304D01*
X1993847Y7612912D01*
X1943063D01*
X1917671Y7638304D01*
Y7739871D01*
X1635801Y8213657D02*
Y8061307D01*
X1711977D01*
X1737368Y8086699D01*
Y8188266D01*
X1711977Y8213657D01*
X1635801D01*
X1788152Y8086699D02*
X1813544Y8061307D01*
X1864327D01*
X1889719Y8086699D01*
Y8188266D01*
X1864327Y8213657D01*
X1813544D01*
X1788152Y8188266D01*
Y8162874D01*
X1813544Y8137482D01*
X1889719D01*
X1638341Y8674752D02*
Y8522401D01*
X1714517D01*
X1739908Y8547793D01*
Y8649360D01*
X1714517Y8674752D01*
X1638341D01*
X1790692Y8649360D02*
X1816084Y8674752D01*
X1866867D01*
X1892259Y8649360D01*
Y8623969D01*
X1866867Y8598577D01*
X1892259Y8573185D01*
Y8547793D01*
X1866867Y8522401D01*
X1816084D01*
X1790692Y8547793D01*
Y8573185D01*
X1816084Y8598577D01*
X1790692Y8623969D01*
Y8649360D01*
X1816084Y8598577D02*
X1866867D01*
X1638341Y9143467D02*
Y8991116D01*
X1714517D01*
X1739908Y9016508D01*
Y9118075D01*
X1714517Y9143467D01*
X1638341D01*
X1790692D02*
X1892259D01*
Y9118075D01*
X1790692Y9016508D01*
Y8991116D01*
X1640881Y9584241D02*
Y9431890D01*
X1717057D01*
X1742448Y9457282D01*
Y9558849D01*
X1717057Y9584241D01*
X1640881D01*
X1894799D02*
X1844015Y9558849D01*
X1793232Y9508066D01*
Y9457282D01*
X1818624Y9431890D01*
X1869407D01*
X1894799Y9457282D01*
Y9482674D01*
X1869407Y9508066D01*
X1793232D01*
X1630721Y10060576D02*
Y9908225D01*
X1706897D01*
X1732288Y9933617D01*
Y10035184D01*
X1706897Y10060576D01*
X1630721D01*
X1884639D02*
X1783072D01*
Y9984400D01*
X1833855Y10009792D01*
X1859247D01*
X1884639Y9984400D01*
Y9933617D01*
X1859247Y9908225D01*
X1808464D01*
X1783072Y9933617D01*
X1620561Y10511510D02*
Y10359160D01*
X1696737D01*
X1722128Y10384551D01*
Y10486118D01*
X1696737Y10511510D01*
X1620561D01*
X1849087Y10359160D02*
Y10511510D01*
X1772912Y10435335D01*
X1874479D01*
X1620561Y10954825D02*
Y10802474D01*
X1696737D01*
X1722128Y10827866D01*
Y10929433D01*
X1696737Y10954825D01*
X1620561D01*
X1772912Y10929433D02*
X1798304Y10954825D01*
X1849087D01*
X1874479Y10929433D01*
Y10904041D01*
X1849087Y10878650D01*
X1823695D01*
X1849087D01*
X1874479Y10853258D01*
Y10827866D01*
X1849087Y10802474D01*
X1798304D01*
X1772912Y10827866D01*
X1633261Y11413380D02*
Y11261029D01*
X1709437D01*
X1734828Y11286421D01*
Y11387988D01*
X1709437Y11413380D01*
X1633261D01*
X1887179Y11261029D02*
X1785612D01*
X1887179Y11362596D01*
Y11387988D01*
X1861787Y11413380D01*
X1811004D01*
X1785612Y11387988D01*
X1661193Y11902414D02*
Y11750063D01*
X1737368D01*
X1762760Y11775455D01*
Y11877022D01*
X1737368Y11902414D01*
X1661193D01*
X1813544Y11750063D02*
X1864327D01*
X1838936D01*
Y11902414D01*
X1813544Y11877022D01*
X6327169Y5006323D02*
X6301777Y5031715D01*
X6250994D01*
X6225602Y5006323D01*
Y4904757D01*
X6250994Y4879365D01*
X6301777D01*
X6327169Y4904757D01*
X6377952Y4879365D02*
X6428736D01*
X6403344D01*
Y5031715D01*
X6377952Y5006323D01*
X6504911D02*
X6530303Y5031715D01*
X6581087D01*
X6606479Y5006323D01*
Y4980932D01*
X6581087Y4955540D01*
X6555695D01*
X6581087D01*
X6606479Y4930148D01*
Y4904757D01*
X6581087Y4879365D01*
X6530303D01*
X6504911Y4904757D01*
X12051588Y2496803D02*
X12026196Y2522195D01*
X11975413D01*
X11950021Y2496803D01*
Y2395237D01*
X11975413Y2369845D01*
X12026196D01*
X12051588Y2395237D01*
X12102372Y2496803D02*
X12127764Y2522195D01*
X12178547D01*
X12203939Y2496803D01*
Y2471412D01*
X12178547Y2446020D01*
X12203939Y2420628D01*
Y2395237D01*
X12178547Y2369845D01*
X12127764D01*
X12102372Y2395237D01*
Y2420628D01*
X12127764Y2446020D01*
X12102372Y2471412D01*
Y2496803D01*
X12127764Y2446020D02*
X12178547D01*
X11760208Y2171683D02*
X11734817Y2197075D01*
X11684033D01*
X11658641Y2171683D01*
Y2070117D01*
X11684033Y2044725D01*
X11734817D01*
X11760208Y2070117D01*
X11810992Y2197075D02*
X11912559D01*
Y2171683D01*
X11810992Y2070117D01*
Y2044725D01*
X12074448Y1612883D02*
X12049056Y1638275D01*
X11998273D01*
X11972881Y1612883D01*
Y1511317D01*
X11998273Y1485925D01*
X12049056D01*
X12074448Y1511317D01*
X12226799Y1638275D02*
X12176015Y1612883D01*
X12125232Y1562100D01*
Y1511317D01*
X12150624Y1485925D01*
X12201407D01*
X12226799Y1511317D01*
Y1536708D01*
X12201407Y1562100D01*
X12125232D01*
X13982709Y2522203D02*
X13957317Y2547595D01*
X13906532D01*
X13881142Y2522203D01*
Y2420637D01*
X13906532Y2395245D01*
X13957317D01*
X13982709Y2420637D01*
X14109666Y2395245D02*
Y2547595D01*
X14033492Y2471420D01*
X14135059D01*
X13680447Y2194543D02*
X13655057Y2219935D01*
X13604272D01*
X13578880Y2194543D01*
Y2092977D01*
X13604272Y2067585D01*
X13655057D01*
X13680447Y2092977D01*
X13731232Y2194543D02*
X13756624Y2219935D01*
X13807407D01*
X13832799Y2194543D01*
Y2169152D01*
X13807407Y2143760D01*
X13782014D01*
X13807407D01*
X13832799Y2118368D01*
Y2092977D01*
X13807407Y2067585D01*
X13756624D01*
X13731232Y2092977D01*
X14033508Y1605263D02*
X14008118Y1630655D01*
X13957333D01*
X13931941Y1605263D01*
Y1503697D01*
X13957333Y1478305D01*
X14008118D01*
X14033508Y1503697D01*
X14185860Y1478305D02*
X14084293D01*
X14185860Y1579872D01*
Y1605263D01*
X14160468Y1630655D01*
X14109685D01*
X14084293Y1605263D01*
X13716000Y1958323D02*
X13690608Y1983715D01*
X13639825D01*
X13614433Y1958323D01*
Y1856757D01*
X13639825Y1831365D01*
X13690608D01*
X13716000Y1856757D01*
X13766785Y1831365D02*
X13817567D01*
X13792175D01*
Y1983715D01*
X13766785Y1958323D01*
X13525500Y21757591D02*
Y21605240D01*
X13601675D01*
X13627068Y21630632D01*
Y21656023D01*
X13601675Y21681415D01*
X13525500D01*
X13601675D01*
X13627068Y21706807D01*
Y21732199D01*
X13601675Y21757591D01*
X13525500D01*
X13677850D02*
X13779417D01*
Y21732199D01*
X13677850Y21630632D01*
Y21605240D01*
X13779417D01*
X13830202D02*
X13880984D01*
X13855592D01*
Y21757591D01*
X13830202Y21732199D01*
X9952274Y7101811D02*
Y6949461D01*
X10028450D01*
X10053842Y6974852D01*
Y7000244D01*
X10028450Y7025636D01*
X9952274D01*
X10028450D01*
X10053842Y7051028D01*
Y7076419D01*
X10028450Y7101811D01*
X9952274D01*
X10104625D02*
X10206192D01*
X10155409D01*
Y6949461D01*
X10256976D02*
Y7101811D01*
X10358543Y6949461D01*
Y7101811D01*
X10409327Y7076419D02*
X10434719Y7101811D01*
X10485502D01*
X10510894Y7076419D01*
Y7051028D01*
X10485502Y7025636D01*
X10460110D01*
X10485502D01*
X10510894Y7000244D01*
Y6974852D01*
X10485502Y6949461D01*
X10434719D01*
X10409327Y6974852D01*
X10561677Y6924069D02*
X10663245D01*
X10815595Y7101811D02*
X10714028D01*
Y6949461D01*
X10815595D01*
X10714028Y7025636D02*
X10764812D01*
X10866379Y6949461D02*
Y7101811D01*
X10917162Y7051028D01*
X10967946Y7101811D01*
Y6949461D01*
X11120297Y7101811D02*
X11018730D01*
Y6949461D01*
X11120297D01*
X11018730Y7025636D02*
X11069513D01*
X11171080Y6949461D02*
Y7101811D01*
X11247256D01*
X11272648Y7076419D01*
Y7025636D01*
X11247256Y7000244D01*
X11171080D01*
X11221864D02*
X11272648Y6949461D01*
X11424998Y7076419D02*
X11399606Y7101811D01*
X11348823D01*
X11323431Y7076419D01*
Y6974852D01*
X11348823Y6949461D01*
X11399606D01*
X11424998Y6974852D01*
Y7025636D01*
X11374214D01*
X11577349Y7101811D02*
X11475782D01*
Y6949461D01*
X11577349D01*
X11475782Y7025636D02*
X11526565D01*
X11628132Y6949461D02*
Y7101811D01*
X11729700Y6949461D01*
Y7101811D01*
X11882050Y7076419D02*
X11856659Y7101811D01*
X11805875D01*
X11780483Y7076419D01*
Y6974852D01*
X11805875Y6949461D01*
X11856659D01*
X11882050Y6974852D01*
X11932834Y7101811D02*
Y7076419D01*
X11983617Y7025636D01*
X12034401Y7076419D01*
Y7101811D01*
X11983617Y7025636D02*
Y6949461D01*
X12085185Y6924069D02*
X12186752D01*
X12313711Y7101811D02*
X12262927D01*
X12237535Y7076419D01*
Y6974852D01*
X12262927Y6949461D01*
X12313711D01*
X12339103Y6974852D01*
Y7076419D01*
X12313711Y7101811D01*
X12389886D02*
Y7000244D01*
X12440670Y6949461D01*
X12491453Y7000244D01*
Y7101811D01*
X12643804D02*
X12542237D01*
Y6949461D01*
X12643804D01*
X12542237Y7025636D02*
X12593020D01*
X12694588Y6949461D02*
Y7101811D01*
X12770763D01*
X12796155Y7076419D01*
Y7025636D01*
X12770763Y7000244D01*
X12694588D01*
X12745371D02*
X12796155Y6949461D01*
X12846938D02*
Y7101811D01*
X12923114D01*
X12948505Y7076419D01*
Y7025636D01*
X12923114Y7000244D01*
X12846938D01*
X12897722D02*
X12948505Y6949461D01*
X12999289Y7101811D02*
X13050072D01*
X13024681D01*
Y6949461D01*
X12999289D01*
X13050072D01*
X13126248Y7101811D02*
Y6949461D01*
X13202423D01*
X13227815Y6974852D01*
Y7076419D01*
X13202423Y7101811D01*
X13126248D01*
X13380167D02*
X13278600D01*
Y6949461D01*
X13380167D01*
X13278600Y7025636D02*
X13329382D01*
X10416852Y9344631D02*
Y9192281D01*
X10493028D01*
X10518419Y9217672D01*
Y9243064D01*
X10493028Y9268456D01*
X10416852D01*
X10493028D01*
X10518419Y9293848D01*
Y9319239D01*
X10493028Y9344631D01*
X10416852D01*
X10569203D02*
X10670770D01*
X10619986D01*
Y9192281D01*
X10721554D02*
Y9344631D01*
X10823121Y9192281D01*
Y9344631D01*
X10975472Y9192281D02*
X10873904D01*
X10975472Y9293848D01*
Y9319239D01*
X10950080Y9344631D01*
X10899296D01*
X10873904Y9319239D01*
X11026255Y9166889D02*
X11127822D01*
X11280173Y9319239D02*
X11254781Y9344631D01*
X11203998D01*
X11178606Y9319239D01*
Y9293848D01*
X11203998Y9268456D01*
X11254781D01*
X11280173Y9243064D01*
Y9217672D01*
X11254781Y9192281D01*
X11203998D01*
X11178606Y9217672D01*
X11330957Y9344631D02*
X11432524D01*
X11381740D01*
Y9192281D01*
X11584874Y9344631D02*
X11483307D01*
Y9192281D01*
X11584874D01*
X11483307Y9268456D02*
X11534091D01*
X11635658Y9192281D02*
Y9344631D01*
X11711833D01*
X11737225Y9319239D01*
Y9268456D01*
X11711833Y9243064D01*
X11635658D01*
X11788009Y9166889D02*
X11889576D01*
X12041927Y9344631D02*
X11940359D01*
Y9268456D01*
X11991143D01*
X11940359D01*
Y9192281D01*
X12194277Y9319239D02*
X12168885Y9344631D01*
X12118102D01*
X12092710Y9319239D01*
Y9293848D01*
X12118102Y9268456D01*
X12168885D01*
X12194277Y9243064D01*
Y9217672D01*
X12168885Y9192281D01*
X12118102D01*
X12092710Y9217672D01*
X12245061Y9192281D02*
Y9344631D01*
X12295844Y9293848D01*
X12346628Y9344631D01*
Y9192281D01*
X13899258Y7172931D02*
Y7020581D01*
X13975433D01*
X14000826Y7045972D01*
Y7071364D01*
X13975433Y7096756D01*
X13899258D01*
X13975433D01*
X14000826Y7122148D01*
Y7147539D01*
X13975433Y7172931D01*
X13899258D01*
X14051608D02*
X14153175D01*
X14102393D01*
Y7020581D01*
X14203960D02*
Y7172931D01*
X14305527Y7020581D01*
Y7172931D01*
X14356310Y7020581D02*
X14407094D01*
X14381702D01*
Y7172931D01*
X14356310Y7147539D01*
X14483269Y6995189D02*
X14584836D01*
X14635620Y7020581D02*
Y7172931D01*
X14737187Y7020581D01*
Y7172931D01*
X14889539D02*
X14787970D01*
Y7020581D01*
X14889539D01*
X14787970Y7096756D02*
X14838754D01*
X14940321Y7172931D02*
Y7020581D01*
X14991106Y7071364D01*
X15041888Y7020581D01*
Y7172931D01*
X15092673Y6995189D02*
X15194238D01*
X15245023Y7020581D02*
Y7172931D01*
X15321198D01*
X15346590Y7147539D01*
Y7096756D01*
X15321198Y7071364D01*
X15245023D01*
X15397372Y7020581D02*
Y7122148D01*
X15448157Y7172931D01*
X15498941Y7122148D01*
Y7020581D01*
Y7096756D01*
X15397372D01*
X15549724Y7172931D02*
X15651291D01*
X15600508D01*
Y7020581D01*
X15702075Y7172931D02*
X15752858D01*
X15727467D01*
Y7020581D01*
X15702075D01*
X15752858D01*
X15930602Y7172931D02*
X15829034D01*
Y7020581D01*
X15930602D01*
X15829034Y7096756D02*
X15879817D01*
X15981384Y7020581D02*
Y7172931D01*
X16082951Y7020581D01*
Y7172931D01*
X16133736D02*
X16235303D01*
X16184518D01*
Y7020581D01*
X14183574Y9410671D02*
Y9258321D01*
X14259749D01*
X14285141Y9283712D01*
Y9309104D01*
X14259749Y9334496D01*
X14183574D01*
X14259749D01*
X14285141Y9359888D01*
Y9385279D01*
X14259749Y9410671D01*
X14183574D01*
X14335924D02*
X14437492D01*
X14386708D01*
Y9258321D01*
X14488275D02*
Y9410671D01*
X14589842Y9258321D01*
Y9410671D01*
X14640627Y9385279D02*
X14666019Y9410671D01*
X14716801D01*
X14742194Y9385279D01*
Y9283712D01*
X14716801Y9258321D01*
X14666019D01*
X14640627Y9283712D01*
Y9385279D01*
X14792976Y9232929D02*
X14894543D01*
X14945328Y9258321D02*
Y9410671D01*
X15021503D01*
X15046893Y9385279D01*
Y9334496D01*
X15021503Y9309104D01*
X14945328D01*
X15097678Y9258321D02*
Y9359888D01*
X15148460Y9410671D01*
X15199245Y9359888D01*
Y9258321D01*
Y9334496D01*
X15097678D01*
X15250029Y9258321D02*
Y9410671D01*
X15326204D01*
X15351596Y9385279D01*
Y9334496D01*
X15326204Y9309104D01*
X15250029D01*
X15300812D02*
X15351596Y9258321D01*
X15402379Y9410671D02*
Y9258321D01*
Y9309104D01*
X15503947Y9410671D01*
X15427771Y9334496D01*
X15503947Y9258321D01*
X8305800Y4620235D02*
X8255017D01*
X8280408D01*
Y4493277D01*
X8255017Y4467885D01*
X8229625D01*
X8204233Y4493277D01*
X8356584Y4467885D02*
X8407367D01*
X8381976D01*
Y4620235D01*
X8356584Y4594843D01*
%TF.MD5,2a5a376ec29eb67488e34e7780e40536*%
M02*
