%TF.GenerationSoftware,Altium Limited,Altium Designer,26.7.1 (11)*%
G04 Layer_Physical_Order=2*
G04 Layer_Color=16711680*
G04 Board_Origin=0|0*
%FSLAX45Y45*%
%MOMM*%
%TF.SameCoordinates,4D1129F9-08A1-487B-85B4-D750B3D58634*%
%TF.FilePolarity,Positive*%
%TF.FileFunction,Copper,L2,Bot,Signal*%
%TF.Part,Single*%
G01*
G75*
%TA.AperFunction,Conductor*%
%ADD26C,0.15240*%
%TA.AperFunction,ComponentPad*%
%ADD28C,1.55000*%
%ADD29R,1.55000X1.55000*%
%ADD30R,1.55000X1.55000*%
%ADD31C,2.03200*%
%ADD32R,2.03200X2.03200*%
%ADD33R,1.35000X1.35000*%
%ADD34C,1.35000*%
%ADD35C,1.40000*%
%ADD36R,1.40000X1.40000*%
%ADD37C,1.25000*%
%ADD38C,1.70000*%
%ADD39R,1.70000X1.70000*%
%ADD40C,2.10000*%
%TA.AperFunction,ViaPad*%
%ADD41C,1.01600*%
D26*
X5841834Y5823463D02*
G03*
X5841837Y5823461I10779J10774D01*
G01*
X5841042Y5824260D02*
G03*
X5827555Y5838548I-64597J-47464D01*
G01*
X5714704Y5725672D02*
G03*
X5801089Y5700518I61741J51124D01*
G01*
X5714704Y5725672D02*
G03*
X5712797Y5727579I-11688J-9781D01*
G01*
X5841052Y5824246D02*
G03*
X5841042Y5824260I-12337J-8949D01*
G01*
X5825673Y5840431D02*
G03*
X5712797Y5727579I-61753J-51110D01*
G01*
X5825673Y5840431D02*
G03*
X5827555Y5838548I11676J9794D01*
G01*
X3174383Y10843844D02*
G03*
X3174384Y10843843I10777J10776D01*
G01*
X5841052Y5824246D02*
X5841834Y5823463D01*
X5841837Y5823461D02*
X5846301Y5818998D01*
X8155940Y5458460D02*
X10567618D01*
X8326120Y5379720D02*
X8333740Y5387340D01*
X8326120Y5379720D02*
X8332470Y5373370D01*
X11476990D01*
X5867853Y5827925D02*
Y5885387D01*
X5763920Y5989320D02*
X5867853Y5885387D01*
X10951002Y6025002D02*
X10963526Y5955122D01*
X5867853Y5651675D02*
X5931353Y5588175D01*
X8168465Y5470985D02*
Y5579248D01*
X5846301Y5818998D02*
X5858926D01*
X5867853Y5827925D01*
X10963526Y5854369D02*
Y5955122D01*
X8155940Y5458460D02*
X8168465Y5470985D01*
X5867853Y5651675D02*
Y5660243D01*
X8159537Y5588175D02*
X8168465Y5579248D01*
X5801089Y5700518D02*
X5814557Y5704840D01*
X5823256D01*
X10567618Y5458460D02*
X10963526Y5854369D01*
X5931353Y5588175D02*
X8159537D01*
X5823256Y5704840D02*
X5867853Y5660243D01*
X8155940Y5458460D02*
X8168465Y5445935D01*
X5763920Y5789320D02*
X5876988Y5676253D01*
X5889613D01*
X5906755Y5693395D01*
X11476990Y5373370D02*
X11483340Y5367020D01*
X10787380Y6129020D02*
X11296980D01*
X11400998Y6025002D01*
X5906755Y5693395D02*
X6139927D01*
X6225646Y5661660D02*
X7305040D01*
X6176772Y5730240D02*
X6193805Y5747273D01*
X6156960Y5730240D02*
X6176772D01*
X6156960Y5710428D02*
Y5730240D01*
X6139927Y5693395D02*
X6156960Y5710428D01*
X6193805Y5767085D02*
X6250940Y5824220D01*
X6193805Y5747273D02*
Y5767085D01*
X6250940Y5824220D02*
X8044180D01*
X6179820Y5707380D02*
X6179926D01*
X6225646Y5661660D01*
X5930900Y13703300D02*
X7030720D01*
X7155180Y13578841D01*
X7112000Y11686540D02*
X7233920Y11808460D01*
X7094220Y11686540D02*
X7112000D01*
X3756660Y13428979D02*
X9956800D01*
X3746500Y13418820D02*
X3756660Y13428979D01*
X3410023Y10819203D02*
X3477260Y10886440D01*
X3178276Y10839950D02*
X3403009Y10819203D01*
X3410023D01*
X3169920Y10848307D02*
Y11277102D01*
X3174384Y10843843D02*
X3178276Y10839950D01*
X3169920Y10848307D02*
X3174383Y10843844D01*
X3477260Y10886440D02*
X3876040D01*
X3370580Y10909300D02*
X7975600D01*
X3357880Y10896600D02*
X3370580Y10909300D01*
X3388360Y11023600D02*
X3835400D01*
X7975600Y10909300D02*
X8013700Y10871200D01*
Y10718800D02*
Y10871200D01*
X3827780Y10825480D02*
X3843020D01*
X4259580Y10408920D01*
X3896360Y10866120D02*
X7383780D01*
X3876040Y10886440D02*
X3896360Y10866120D01*
X10172278Y16949841D02*
X10525760Y16596359D01*
X9409760Y16949841D02*
X10172278D01*
X9959340Y16649699D02*
X10126980Y16482060D01*
X9959340Y16649699D02*
Y16860519D01*
X6799580Y11252200D02*
X7228840Y11681460D01*
X3957320Y11252200D02*
X6799580D01*
X3855720Y11191240D02*
X7787640D01*
X7790180Y11188700D02*
X8006080D01*
X7787640Y11191240D02*
X7790180Y11188700D01*
X3835400Y11023600D02*
X3926840Y10932160D01*
X8016240D02*
X8155940Y10792460D01*
X3926840Y10932160D02*
X8016240D01*
X9679940Y13495020D02*
X9685020Y13489940D01*
X8928100Y13495020D02*
X9679940D01*
X8917940D02*
X8923020Y13500101D01*
X8928100Y13495020D01*
X2021119D02*
X8917940D01*
X2016039Y13489940D02*
X2021119Y13495020D01*
X14507852Y2442852D02*
X14607539Y2542540D01*
X14507852Y2402212D02*
Y2442852D01*
X14391640Y2286000D02*
X14507852Y2402212D01*
X2211243Y3807460D02*
X3241040D01*
X5963920Y5849620D02*
X8229600D01*
X9936480Y16883380D02*
X9959340Y16860519D01*
X9931400Y16888460D02*
X9936480Y16883380D01*
X3832139D02*
X9936480D01*
X7901940Y11300460D02*
X8031480Y11430000D01*
X8247380D01*
X8267700Y11450320D01*
Y11633200D01*
X8234680Y11666220D02*
X8267700Y11633200D01*
X8107680Y11666220D02*
X8234680D01*
X8028940Y11744960D02*
X8107680Y11666220D01*
X8028940Y11744960D02*
Y11907520D01*
X8001000Y11935460D02*
X8028940Y11907520D01*
X7818120Y11935460D02*
X8001000D01*
X7790180Y11963400D02*
X7818120Y11935460D01*
X7790180Y11963400D02*
Y12113260D01*
X7932420Y12255500D01*
X13924280D01*
X14378940Y12710160D01*
X8013700Y10718800D02*
X8051800Y10680700D01*
X8229600D01*
X8267700Y10718800D01*
Y11188700D01*
X8155940Y11300460D02*
X8267700Y11188700D01*
X2910840Y11224260D02*
X3040380Y11353800D01*
X3642360D01*
X3781186Y11214974D01*
Y11159094D02*
Y11214974D01*
Y11159094D02*
X3810000Y11130280D01*
X3888740D01*
X3916680Y11158220D01*
X8044180D01*
X8155940Y11046460D01*
X4259580Y10408920D02*
X8031480D01*
X8155940Y10284460D01*
X7228840Y11681460D02*
X8028940D01*
X8155940Y11554460D01*
X8006080Y11188700D02*
X8044180Y11226800D01*
Y11379200D01*
X8077200Y11412220D01*
X8255000D01*
X8285480Y11442700D01*
Y11678920D01*
X8155940Y11808460D02*
X8285480Y11678920D01*
X8155940Y4950460D02*
X9961880Y3144520D01*
X10675620Y5204460D02*
X11567160Y4312920D01*
X8155940Y5204460D02*
X10675620D01*
X1173480Y3131820D02*
X1706880D01*
X1711960Y3136900D01*
X2240280D01*
X2773680D01*
X2781300Y3129280D01*
X3307080D01*
X3815080D01*
X3825240Y3139440D01*
X4320540D01*
X4823460D01*
X4826000Y3141980D01*
X5326380D01*
X5831840D01*
X5836920Y3136900D01*
X6337300D01*
X7391400D01*
X7904480D01*
X7909560Y3141980D01*
X8417560D01*
X10951002Y8311002D02*
X11078124Y8183880D01*
X14450999D01*
X14618762Y8351642D01*
X13117744Y9801860D02*
X13168544D01*
X12818024Y10101580D02*
X13117744Y9801860D01*
X12818024Y10101580D02*
X13957300D01*
X12693442Y10226162D02*
X12818024Y10101580D01*
X13957300D02*
X14137640Y10281920D01*
X12729002Y4495922D02*
X14066521Y3158404D01*
X14564360Y20899120D02*
X15265401D01*
X15288260Y20876260D01*
X15966440D01*
X3241040Y3807460D02*
X4244340D01*
X8044180Y5824220D02*
X8155940Y5712460D01*
X14607539Y2542540D02*
X15422881D01*
X5345262Y3822700D02*
X6000582Y4478020D01*
X8044180D01*
X4434840Y4018280D02*
X5128260Y4711700D01*
X7983220D01*
X4272280Y7378700D02*
X8013700D01*
X8155940Y7236460D01*
X3027680Y7569200D02*
X3060700Y7602220D01*
X8044180D01*
X8155940Y7490460D01*
X1534160Y7632700D02*
X8044180D01*
X8155940Y7744460D01*
Y7998460D02*
X14715576D01*
X15068758Y8351642D01*
X9822180Y6586220D02*
X14560880D01*
X15071298Y6075802D01*
X11205540Y8506460D02*
X11400998Y8311002D01*
X8155940Y8506460D02*
X11205540D01*
X6573520Y8887460D02*
X8028940D01*
X8155940Y9014460D01*
Y9268460D02*
X11567160D01*
X12209780Y21206461D02*
X15534641D01*
X15966440Y21638260D01*
X5963920Y5789320D02*
Y5849620D01*
X8229600D02*
X8267700Y5887720D01*
Y7109460D01*
X5963920Y6189320D02*
X7212940D01*
X7625080Y6601460D01*
X6878320Y10142220D02*
X8044180D01*
X8155940Y10030460D01*
X7383780Y10866120D02*
X7823200Y10426700D01*
X8044180D01*
X8155940Y10538460D01*
X3482340Y4950460D02*
X7901940D01*
X3421380Y5204460D02*
X7901940D01*
X3360420Y5458460D02*
X7901940D01*
X3192780Y6273800D02*
X6522720D01*
Y5760720D02*
X7853680D01*
X7901940Y5712460D01*
X2687320Y6205220D02*
Y6807200D01*
Y6205220D02*
X2895600Y5996940D01*
X5608320D01*
X5681980Y6070600D01*
X7797800D01*
X7901940Y5966460D01*
X3229275Y6088380D02*
X7769860D01*
X7901940Y6220460D01*
X2948940Y6078220D02*
X3053080Y6182360D01*
X5488940D01*
X5562600Y6108700D01*
X7536180D01*
X7901940Y6474460D01*
X2626360Y5571815D02*
X2738120Y5460055D01*
X2626360Y5571815D02*
Y6832600D01*
X2661920Y6868160D01*
X2791460D01*
X2931160Y6728460D01*
X7901940D01*
X2948940Y6197600D02*
X3421380Y6670040D01*
X7678420D01*
X7747000Y6601460D01*
X7985760D01*
X8013700Y6629400D01*
Y6870700D01*
X7901940Y6982460D02*
X8013700Y6870700D01*
X2116922Y15856117D02*
X2550160Y15422881D01*
X7691120D01*
X1696720Y7490460D02*
X7901940D01*
X2113280Y20243800D02*
X6426200D01*
X7068820Y8577580D02*
X7901940Y7744460D01*
X3670300Y19278600D02*
X7711440D01*
X4091940Y9563100D02*
X4978400Y8676640D01*
X7477760D01*
X7901940Y8252460D01*
X4013200Y8821420D02*
X4196080Y8638540D01*
X7129780D01*
X7642860Y8125460D01*
X7985760D01*
X8013700Y8153400D01*
Y8394700D01*
X7901940Y8506460D02*
X8013700Y8394700D01*
X3623859Y17348199D02*
X4800600D01*
Y9177020D02*
X5217160Y8760460D01*
X7901940D01*
X5783580Y9639300D02*
X7277100D01*
X7901940Y9014460D01*
X2786380Y18757722D02*
X2865059D01*
X2970500Y18863164D01*
X3089859D01*
X3145820Y18807201D01*
Y18602960D02*
Y18807201D01*
Y18602960D02*
X3610640Y18138139D01*
X7772400D01*
X2532380Y18757722D02*
X2620040Y18670062D01*
X2828747D01*
X3004068Y18845383D01*
X3076692D01*
X3128040Y18794034D01*
Y18084801D02*
Y18794034D01*
Y18084801D02*
X3171220Y18041620D01*
X7150100D01*
X7574280Y9850120D02*
X7901940Y9522460D01*
X2969260Y13804539D02*
X3074700Y13909979D01*
X3267192D01*
X3330245Y13846927D01*
Y13696677D02*
Y13846927D01*
Y13696677D02*
X3361720Y13665199D01*
X5892800D01*
X5930900Y13703300D01*
X7335520Y9918700D02*
X7759700D01*
X7901940Y9776460D01*
X2715260Y13804539D02*
X2802920Y13716879D01*
X3026019D01*
X3136900Y13827760D01*
Y13854100D01*
X3175000Y13892200D01*
X3259572D01*
X3312160Y13839612D01*
Y13685519D02*
Y13839612D01*
Y13685519D02*
X3355340Y13642340D01*
X5991860D01*
X6807200Y10055860D02*
Y10228580D01*
Y10055860D02*
X6832600Y10030460D01*
X7901940D01*
Y10284460D02*
X8013700Y10172700D01*
X8788400D01*
X7901940Y10792460D02*
X8044180Y10650220D01*
X8595360D01*
X9342120Y11396980D01*
X7752080Y13672820D02*
X8371840D01*
X8415020Y13716000D01*
Y13785880D01*
X8491220Y13862080D01*
X9000460D01*
X9088120Y13774420D01*
X7909560Y21795740D02*
X16055341D01*
X16083279Y21767799D01*
Y21374100D02*
Y21767799D01*
X15966440Y21257260D02*
X16083279Y21374100D01*
X7233920Y11808460D02*
X7901940D01*
X13804362Y20899120D02*
X14921423Y19782059D01*
X14965141D01*
X15245081Y19502119D01*
X3578682Y20734019D02*
X3802380Y20957718D01*
X3010078Y20734019D02*
X3578682D01*
X2786380Y20957718D02*
X3010078Y20734019D01*
X2532380Y20957718D02*
X2986862Y21412199D01*
X3093898D01*
X3548380Y20957718D01*
X2024380D02*
X2113458Y20868640D01*
X2667000D01*
X2676759Y20878400D01*
Y21007629D01*
X2732288Y21063158D01*
X3188940D01*
X3294380Y20957718D01*
X1770380D02*
X1886158Y20841940D01*
X2667000D01*
X2698720Y20873659D01*
Y20994031D01*
X2750068Y21045378D01*
X2952720D01*
X3040380Y20957718D01*
X1770380Y18757722D02*
X1875820Y18652283D01*
X2934940D01*
X3040380Y18757722D01*
X2024380D02*
X2165380Y18898723D01*
X3153380D01*
X3294380Y18757722D01*
X2278380D02*
X2383820Y18863164D01*
X2917160D01*
X2934940Y18880943D01*
X3107639D01*
X3174091Y18814491D01*
Y18725789D02*
Y18814491D01*
Y18725789D02*
X3230880Y18669000D01*
X3713658D01*
X3802380Y18757722D01*
X2969260Y16004539D02*
X3058160Y15915640D01*
X3896360D01*
X3985260Y16004539D01*
X2715260D02*
X3098800Y16388080D01*
X3347720D01*
X3731260Y16004539D01*
X2207260D02*
X2321560Y15890240D01*
X2794000D01*
X2829560Y15925800D01*
Y16092200D01*
X2847340Y16109979D01*
X3371820D01*
X3477260Y16004539D01*
X1953260D02*
X2067560D01*
X2222500Y15849600D01*
X2842260D01*
X2867660Y15875000D01*
Y16032480D01*
X2927380Y16092200D01*
X3135600D01*
X3223260Y16004539D01*
X1953260Y13804539D02*
X2058700Y13699100D01*
X3117820D01*
X3223260Y13804539D01*
X2207260D02*
X2348260Y13945540D01*
X3336260D01*
X3477260Y13804539D01*
X2461260D02*
X2584480Y13927760D01*
X3284220D01*
X3384520Y13827460D01*
Y13741400D02*
Y13827460D01*
Y13741400D02*
X3409920Y13716000D01*
X3896721D01*
X3985260Y13804539D01*
X9254541Y20987318D02*
X9720062Y21452840D01*
X9805020D01*
X10270541Y20987318D01*
X9000541D02*
X9233520Y20754340D01*
X9783562D01*
X10016541Y20987318D01*
X8492541D02*
X8650722Y21145500D01*
X9072880D01*
X9149100Y21069279D01*
Y20902177D02*
Y21069279D01*
Y20902177D02*
X9169400Y20881879D01*
X9657100D01*
X9762541Y20987318D01*
X8238541D02*
X8485622Y21234399D01*
X9141480D01*
X9166880Y21209000D01*
Y20927579D02*
Y21209000D01*
Y20927579D02*
X9194800Y20899658D01*
X9420880D01*
X9508541Y20987318D01*
X8836660Y18656300D02*
X9534906D01*
X9674860Y18796254D01*
Y18847038D01*
X9702800Y18874979D01*
X9928880D01*
X10016541Y18787318D01*
X8238541D02*
X8513923Y19062700D01*
X9233159D01*
X9508541Y18787318D01*
X8492541D02*
X8920739Y18359120D01*
X9334343D01*
X9762541Y18787318D01*
X8746541D02*
X8826403D01*
X8914242Y18699480D01*
X9552940D01*
X9598660Y18745200D01*
Y18849339D01*
X9642079Y18892760D01*
X10165100D01*
X10270541Y18787318D01*
X9342120Y15974422D02*
X9740539Y16372839D01*
X9959701D01*
X10358120Y15974422D01*
X9977598Y15847897D02*
X10104120Y15974422D01*
X9214642Y15847897D02*
X9977598D01*
X9088120Y15974422D02*
X9214642Y15847897D01*
X8580120Y15974422D02*
X8808359Y16202660D01*
X9194800D01*
X9224777Y16172684D01*
Y15900400D02*
Y16172684D01*
Y15900400D02*
X9259499Y15865678D01*
X9741378D01*
X9850120Y15974422D01*
X8326120D02*
X8617859Y16266161D01*
X9220200D01*
X9253220Y16233141D01*
Y15939348D02*
Y16233141D01*
Y15939348D02*
X9305808Y15886760D01*
X9508460D01*
X9596120Y15974422D01*
X8834120D02*
X10104120Y14704420D01*
X8326120Y13774420D02*
X8431560Y13879860D01*
X9490680D01*
X9596120Y13774420D01*
X9744680Y13668980D02*
X9850120Y13774420D01*
X8685560Y13668980D02*
X9744680D01*
X8580120Y13774420D02*
X8685560Y13668980D01*
X8834120Y13774420D02*
X8921780Y13686760D01*
X9650700D01*
X9761220Y13797279D01*
Y13820140D01*
X9804400Y13863319D01*
X10269220D01*
X10358120Y13774420D01*
X2931160Y16992599D02*
X7480300D01*
X8181340Y17693640D01*
X8587019Y17348921D02*
X8796020Y17139920D01*
X9718040D01*
X2407920Y16695419D02*
X2788691D01*
X2915691Y16822420D01*
X9898380D01*
X9458960Y16888460D02*
X9931400D01*
X3535680Y16695419D02*
X9657080D01*
X3065059Y16906239D02*
X3115859Y16957040D01*
X3855720D01*
X3873500Y16939259D01*
X9399179D01*
X9409760Y16949841D01*
X2700020Y13078461D02*
X10166899D01*
X10461539Y13373100D01*
X9956800Y13428979D02*
X10193020Y13665199D01*
X11307140Y12062460D02*
X13143439Y10226162D01*
X8155940Y12062460D02*
X11307140D01*
X7901940D02*
X8013700Y12174220D01*
X11894820D01*
X12969240Y11099800D01*
D28*
X10270541Y18787318D02*
D03*
X10016541D02*
D03*
X9762541D02*
D03*
X9508541D02*
D03*
X8746541D02*
D03*
X8492541D02*
D03*
X8238541D02*
D03*
Y20987318D02*
D03*
X8492541D02*
D03*
X8746541D02*
D03*
X9000541D02*
D03*
X9254541D02*
D03*
X9508541D02*
D03*
X9762541D02*
D03*
X10016541D02*
D03*
X9000541Y18787318D02*
D03*
X9254541D02*
D03*
X9088120Y13774420D02*
D03*
X9342120D02*
D03*
X10104120Y15974422D02*
D03*
X9850120D02*
D03*
X9596120D02*
D03*
X9342120D02*
D03*
X9088120D02*
D03*
X8834120D02*
D03*
X8580120D02*
D03*
X8326120D02*
D03*
Y13774420D02*
D03*
X8580120D02*
D03*
X8834120D02*
D03*
X9596120D02*
D03*
X9850120D02*
D03*
X10104120D02*
D03*
X10358120D02*
D03*
X3802380Y18757722D02*
D03*
X3548380D02*
D03*
X3294380D02*
D03*
X3040380D02*
D03*
X2278380D02*
D03*
X2024380D02*
D03*
X1770380D02*
D03*
Y20957718D02*
D03*
X2024380D02*
D03*
X2278380D02*
D03*
X2532380D02*
D03*
X2786380D02*
D03*
X3040380D02*
D03*
X3294380D02*
D03*
X3548380D02*
D03*
X2786380Y18757722D02*
D03*
X2532380D02*
D03*
X3985260Y13804539D02*
D03*
X3731260D02*
D03*
X3477260D02*
D03*
X3223260D02*
D03*
X2461260D02*
D03*
X2207260D02*
D03*
X1953260D02*
D03*
Y16004539D02*
D03*
X2207260D02*
D03*
X2461260D02*
D03*
X2715260D02*
D03*
X2969260D02*
D03*
X3223260D02*
D03*
X3477260D02*
D03*
X3731260D02*
D03*
X2715260Y13804539D02*
D03*
X2969260D02*
D03*
X13178998Y5145918D02*
D03*
Y4495922D02*
D03*
X12729002Y5145918D02*
D03*
X12693442Y10876158D02*
D03*
X13143439D02*
D03*
Y10226162D02*
D03*
X11400998Y8311002D02*
D03*
Y6025002D02*
D03*
X15068758Y8351642D02*
D03*
X15071298Y6075802D02*
D03*
X14618762Y9001638D02*
D03*
X15068758D02*
D03*
X10951002Y8960998D02*
D03*
X11400998D02*
D03*
X14621301Y6725798D02*
D03*
X15071298D02*
D03*
X10951002Y6674998D02*
D03*
X11400998D02*
D03*
D29*
X10270541Y20987318D02*
D03*
X10358120Y15974422D02*
D03*
X3802380Y20957718D02*
D03*
X3985260Y16004539D02*
D03*
D30*
X12729002Y4495922D02*
D03*
X12693442Y10226162D02*
D03*
X14621301Y6075802D02*
D03*
X14618762Y8351642D02*
D03*
X10951002Y8311002D02*
D03*
Y6025002D02*
D03*
D31*
X8155940Y11554460D02*
D03*
X7901940Y12062460D02*
D03*
Y11808460D02*
D03*
X8155940D02*
D03*
Y12062460D02*
D03*
X7901940Y11554460D02*
D03*
Y11300460D02*
D03*
Y11046460D02*
D03*
Y10792460D02*
D03*
Y10538460D02*
D03*
Y10284460D02*
D03*
Y10030460D02*
D03*
Y9776460D02*
D03*
Y9522460D02*
D03*
Y9268460D02*
D03*
Y9014460D02*
D03*
Y8760460D02*
D03*
Y8506460D02*
D03*
Y8252460D02*
D03*
Y7998460D02*
D03*
Y7744460D02*
D03*
Y7490460D02*
D03*
Y7236460D02*
D03*
Y6982460D02*
D03*
Y6728460D02*
D03*
Y6474460D02*
D03*
Y6220460D02*
D03*
Y5966460D02*
D03*
Y5712460D02*
D03*
Y5458460D02*
D03*
Y5204460D02*
D03*
Y4950460D02*
D03*
X8155940Y11300460D02*
D03*
Y11046460D02*
D03*
Y10792460D02*
D03*
Y10538460D02*
D03*
Y10284460D02*
D03*
Y10030460D02*
D03*
Y9522460D02*
D03*
Y9268460D02*
D03*
Y9014460D02*
D03*
Y8760460D02*
D03*
Y8506460D02*
D03*
Y8252460D02*
D03*
Y7998460D02*
D03*
Y7744460D02*
D03*
Y7490460D02*
D03*
Y7236460D02*
D03*
Y6982460D02*
D03*
Y6728460D02*
D03*
Y6474460D02*
D03*
Y6220460D02*
D03*
Y5966460D02*
D03*
Y5458460D02*
D03*
Y5204460D02*
D03*
Y9776460D02*
D03*
Y5712460D02*
D03*
D32*
Y4950460D02*
D03*
D33*
X13804362Y20899120D02*
D03*
D34*
X14564360D02*
D03*
D35*
X5963920Y6589319D02*
D03*
Y6389319D02*
D03*
Y6189320D02*
D03*
Y5989320D02*
D03*
X5763920Y6389319D02*
D03*
Y5989320D02*
D03*
Y5789320D02*
D03*
Y6189320D02*
D03*
Y6589319D02*
D03*
D36*
X5963920Y5789320D02*
D03*
D37*
X15118080Y19375121D02*
D03*
X15245081Y19502119D02*
D03*
X14991080D02*
D03*
D38*
X1173480Y2115820D02*
D03*
Y2623820D02*
D03*
X3307080Y2621280D02*
D03*
X8417560Y2633980D02*
D03*
X2240280Y2628900D02*
D03*
X7391400D02*
D03*
X6337300D02*
D03*
X5326380Y2633980D02*
D03*
X4320540Y2631440D02*
D03*
X2240280Y2120900D02*
D03*
X3307080Y2113280D02*
D03*
X4320540Y2123440D02*
D03*
X5326380Y2125980D02*
D03*
X6337300Y2120900D02*
D03*
X7391400D02*
D03*
X8417560Y2125980D02*
D03*
D39*
X1173480Y3131820D02*
D03*
X8417560Y3141980D02*
D03*
X7391400Y3136900D02*
D03*
X6337300D02*
D03*
X5326380Y3141980D02*
D03*
X4320540Y3139440D02*
D03*
X2240280Y3136900D02*
D03*
X3307080Y3129280D02*
D03*
D40*
X15966440Y20876260D02*
D03*
Y21638260D02*
D03*
Y21257260D02*
D03*
Y20495261D02*
D03*
D41*
X8326120Y5379720D02*
D03*
X7305040Y5661660D02*
D03*
X7094220Y11686540D02*
D03*
X7155180Y13578841D02*
D03*
X3746500Y13418820D02*
D03*
X3357880Y10896600D02*
D03*
X3388360Y11023600D02*
D03*
X3827780Y10825480D02*
D03*
X10525760Y16596359D02*
D03*
X10126980Y16482060D02*
D03*
X3957320Y11252200D02*
D03*
X8923020Y13500101D02*
D03*
X14391640Y2286000D02*
D03*
X14378940Y12710160D02*
D03*
X2910840Y11224260D02*
D03*
X3855720Y11191240D02*
D03*
X9961880Y3144520D02*
D03*
X11567160Y4312920D02*
D03*
X13168544Y9801860D02*
D03*
X14137640Y10281920D02*
D03*
X14066521Y3158404D02*
D03*
X2211243Y3807460D02*
D03*
X4244340D02*
D03*
X3241040D02*
D03*
X6179820Y5707380D02*
D03*
X11483340Y5367020D02*
D03*
X15422881Y2542540D02*
D03*
X5345262Y3822700D02*
D03*
X8044180Y4478020D02*
D03*
X4434840Y4018280D02*
D03*
X7983220Y4711700D02*
D03*
X4272280Y7378700D02*
D03*
X3027680Y7569200D02*
D03*
X1534160Y7632700D02*
D03*
X9822180Y6586220D02*
D03*
X10787380Y6129020D02*
D03*
X6573520Y8887460D02*
D03*
X11567160Y9268460D02*
D03*
X12209780Y21206461D02*
D03*
X8267700Y7109460D02*
D03*
X7625080Y6601460D02*
D03*
X6878320Y10142220D02*
D03*
X3169920Y11277102D02*
D03*
X3482340Y4950460D02*
D03*
X3421380Y5204460D02*
D03*
X3360420Y5458460D02*
D03*
X3192780Y6273800D02*
D03*
X6522720D02*
D03*
Y5760720D02*
D03*
X2687320Y6807200D02*
D03*
X3229275Y6088380D02*
D03*
X2948940Y6078220D02*
D03*
X2738120Y5460055D02*
D03*
X2948940Y6197600D02*
D03*
X2116922Y15856117D02*
D03*
X7691120Y15422881D02*
D03*
X1696720Y7490460D02*
D03*
X2113280Y20243800D02*
D03*
X6426200D02*
D03*
X7068820Y8577580D02*
D03*
X3670300Y19278600D02*
D03*
X7711440D02*
D03*
X4091940Y9563100D02*
D03*
X4013200Y8821420D02*
D03*
X3623859Y17348199D02*
D03*
X4800600D02*
D03*
Y9177020D02*
D03*
X5783580Y9639300D02*
D03*
X7772400Y18138139D02*
D03*
X7150100Y18041620D02*
D03*
X7574280Y9850120D02*
D03*
X7335520Y9918700D02*
D03*
X5991860Y13642340D02*
D03*
X6807200Y10228580D02*
D03*
X8788400Y10172700D02*
D03*
X9342120Y11396980D02*
D03*
X7752080Y13672820D02*
D03*
X7909560Y21795740D02*
D03*
X8836660Y18656300D02*
D03*
X10104120Y14704420D02*
D03*
X2931160Y16992599D02*
D03*
X8181340Y17693640D02*
D03*
X8587019Y17348921D02*
D03*
X9718040Y17139920D02*
D03*
X2016039Y13489940D02*
D03*
X9685020D02*
D03*
X2407920Y16695419D02*
D03*
X9898380Y16822420D02*
D03*
X9458960Y16888460D02*
D03*
X3832139Y16883380D02*
D03*
X3535680Y16695419D02*
D03*
X9657080D02*
D03*
X3065059Y16906239D02*
D03*
X2700020Y13078461D02*
D03*
X10461539Y13373100D02*
D03*
X10193020Y13665199D02*
D03*
X12969240Y11099800D02*
D03*
%TF.MD5,0a0bab601250041bc4a2ec40174ae5de*%
M02*
