%TF.GenerationSoftware,Altium Limited,Altium Designer,26.7.1 (11)*%
G04 Layer_Physical_Order=1*
G04 Layer_Color=255*
G04 Board_Origin=0|0*
%FSLAX45Y45*%
%MOMM*%
%TF.SameCoordinates,4D1129F9-08A1-487B-85B4-D750B3D58634*%
%TF.FilePolarity,Positive*%
%TF.FileFunction,Copper,L1,Top,Signal*%
%TF.Part,Single*%
G01*
G75*
%TA.AperFunction,SMDPad,CuDef*%
G04:AMPARAMS|DCode=10|XSize=0.55mm|YSize=0.5mm|CornerRadius=0.0625mm|HoleSize=0mm|Usage=FLASHONLY|Rotation=180.000|XOffset=0mm|YOffset=0mm|HoleType=Round|Shape=RoundedRectangle|*
%AMROUNDEDRECTD10*
21,1,0.55000,0.37500,0,0,180.0*
21,1,0.42500,0.50000,0,0,180.0*
1,1,0.12500,-0.21250,0.18750*
1,1,0.12500,0.21250,0.18750*
1,1,0.12500,0.21250,-0.18750*
1,1,0.12500,-0.21250,-0.18750*
%
%ADD10ROUNDEDRECTD10*%
%ADD11R,1.00429X0.87213*%
G04:AMPARAMS|DCode=12|XSize=1.00429mm|YSize=0.87213mm|CornerRadius=0.43606mm|HoleSize=0mm|Usage=FLASHONLY|Rotation=0.000|XOffset=0mm|YOffset=0mm|HoleType=Round|Shape=RoundedRectangle|*
%AMROUNDEDRECTD12*
21,1,1.00429,0.00000,0,0,0.0*
21,1,0.13216,0.87213,0,0,0.0*
1,1,0.87213,0.06608,0.00000*
1,1,0.87213,-0.06608,0.00000*
1,1,0.87213,-0.06608,0.00000*
1,1,0.87213,0.06608,0.00000*
%
%ADD12ROUNDEDRECTD12*%
G04:AMPARAMS|DCode=13|XSize=1.00429mm|YSize=3.18213mm|CornerRadius=0.43687mm|HoleSize=0mm|Usage=FLASHONLY|Rotation=0.000|XOffset=0mm|YOffset=0mm|HoleType=Round|Shape=RoundedRectangle|*
%AMROUNDEDRECTD13*
21,1,1.00429,2.30840,0,0,0.0*
21,1,0.13056,3.18213,0,0,0.0*
1,1,0.87373,0.06528,-1.15420*
1,1,0.87373,-0.06528,-1.15420*
1,1,0.87373,-0.06528,1.15420*
1,1,0.87373,0.06528,1.15420*
%
%ADD13ROUNDEDRECTD13*%
%ADD14R,2.70000X1.00000*%
%ADD15R,2.70000X3.30000*%
%ADD16R,2.30000X0.70000*%
%ADD17R,6.30000X5.50000*%
G04:AMPARAMS|DCode=18|XSize=0.55mm|YSize=0.5mm|CornerRadius=0.0625mm|HoleSize=0mm|Usage=FLASHONLY|Rotation=90.000|XOffset=0mm|YOffset=0mm|HoleType=Round|Shape=RoundedRectangle|*
%AMROUNDEDRECTD18*
21,1,0.55000,0.37500,0,0,90.0*
21,1,0.42500,0.50000,0,0,90.0*
1,1,0.12500,0.18750,0.21250*
1,1,0.12500,0.18750,-0.21250*
1,1,0.12500,-0.18750,-0.21250*
1,1,0.12500,-0.18750,0.21250*
%
%ADD18ROUNDEDRECTD18*%
G04:AMPARAMS|DCode=19|XSize=1.3mm|YSize=0.76mm|CornerRadius=0.095mm|HoleSize=0mm|Usage=FLASHONLY|Rotation=90.000|XOffset=0mm|YOffset=0mm|HoleType=Round|Shape=RoundedRectangle|*
%AMROUNDEDRECTD19*
21,1,1.30000,0.57000,0,0,90.0*
21,1,1.11000,0.76000,0,0,90.0*
1,1,0.19000,0.28500,0.55500*
1,1,0.19000,0.28500,-0.55500*
1,1,0.19000,-0.28500,-0.55500*
1,1,0.19000,-0.28500,0.55500*
%
%ADD19ROUNDEDRECTD19*%
%ADD20R,0.40640X0.60960*%
%TA.AperFunction,ConnectorPad*%
%ADD21R,3.30000X4.06000*%
%ADD22R,3.30000X6.35000*%
%ADD23R,3.81000X6.35000*%
%TA.AperFunction,SMDPad,CuDef*%
%ADD24R,1.00000X1.10000*%
%ADD25R,0.70000X0.75000*%
%TA.AperFunction,Conductor*%
%ADD26C,0.15240*%
%ADD27C,0.63500*%
%TA.AperFunction,ComponentPad*%
%ADD28C,1.55000*%
%ADD29R,1.55000X1.55000*%
%ADD30R,1.55000X1.55000*%
%ADD31C,2.03200*%
%ADD32R,2.03200X2.03200*%
%ADD33R,1.35000X1.35000*%
%ADD34C,1.35000*%
%ADD35C,1.40000*%
%ADD36R,1.40000X1.40000*%
%ADD37C,1.25000*%
%ADD38C,1.70000*%
%ADD39R,1.70000X1.70000*%
%ADD40C,2.10000*%
%TA.AperFunction,ViaPad*%
%ADD41C,1.01600*%
D10*
X13548360Y4493260D02*
D03*
Y4403263D02*
D03*
X6121400Y4911263D02*
D03*
Y5001260D02*
D03*
X13522960Y10212619D02*
D03*
Y10122621D02*
D03*
X15333980Y8258983D02*
D03*
X15336520Y5985683D02*
D03*
X11671300Y8218343D02*
D03*
X11656060Y5934883D02*
D03*
X2950210Y7766741D02*
D03*
Y10073427D02*
D03*
X11671300Y8308340D02*
D03*
X2950210Y4998720D02*
D03*
Y7305406D02*
D03*
X11656060Y6024880D02*
D03*
X2950210Y6844071D02*
D03*
Y6382730D02*
D03*
Y11457442D02*
D03*
Y8689416D02*
D03*
X15333980Y8348980D02*
D03*
X2948940Y5926922D02*
D03*
X2950210Y8228081D02*
D03*
X15336520Y6075680D02*
D03*
X2950210Y5460055D02*
D03*
Y5370058D02*
D03*
Y6754068D02*
D03*
Y6292733D02*
D03*
Y7215408D02*
D03*
Y4908723D02*
D03*
X2948940Y5836920D02*
D03*
X2950210Y10906105D02*
D03*
Y10996102D02*
D03*
Y11367440D02*
D03*
Y9522094D02*
D03*
Y9612092D02*
D03*
Y9983429D02*
D03*
Y10444764D02*
D03*
Y10534767D02*
D03*
Y8599419D02*
D03*
Y8138079D02*
D03*
Y9060754D02*
D03*
Y9150756D02*
D03*
Y11828780D02*
D03*
Y11918777D02*
D03*
Y7676744D02*
D03*
D11*
X14270421Y2380381D02*
D03*
D12*
Y2151380D02*
D03*
Y1922379D02*
D03*
D13*
X14929419Y2151380D02*
D03*
D14*
X12463780Y2353442D02*
D03*
Y2123440D02*
D03*
Y1893438D02*
D03*
D15*
X13053781Y2123440D02*
D03*
D16*
X10492659Y2410460D02*
D03*
Y2283460D02*
D03*
Y2029460D02*
D03*
Y1902460D02*
D03*
D17*
X11122660Y2156460D02*
D03*
D18*
X10197379Y1841500D02*
D03*
X10107381D02*
D03*
X10197379Y2451100D02*
D03*
X10107381D02*
D03*
X9567083Y16588741D02*
D03*
X9657080D02*
D03*
X13976523Y2334260D02*
D03*
X13979063Y1734820D02*
D03*
X12032701Y2283460D02*
D03*
X12037781Y1729740D02*
D03*
X8333740Y4005580D02*
D03*
X6272703D02*
D03*
X7305040D02*
D03*
X5255260Y4013200D02*
D03*
X4244340Y4018280D02*
D03*
X3241040Y4013200D02*
D03*
X2211243Y4010660D02*
D03*
X1249680Y4005580D02*
D03*
X3906520Y21673820D02*
D03*
X3331042Y4013200D02*
D03*
X8423742Y4005580D02*
D03*
X3882939Y18074640D02*
D03*
X2116922Y18107660D02*
D03*
X2301240Y4010660D02*
D03*
X7395042Y4005580D02*
D03*
X3623859Y18087340D02*
D03*
X1159683Y4005580D02*
D03*
X12122699Y2283460D02*
D03*
X1696720Y18100040D02*
D03*
X6362700Y4005580D02*
D03*
X14066521Y2334260D02*
D03*
X3140161Y21673820D02*
D03*
X2113280Y21643340D02*
D03*
X5345262Y4013200D02*
D03*
X3670300Y21673820D02*
D03*
X4334342Y4018280D02*
D03*
X14069060Y1734820D02*
D03*
X9685020Y13101320D02*
D03*
X9595023D02*
D03*
X1786722Y18100040D02*
D03*
X2016039Y13078461D02*
D03*
X1926041D02*
D03*
X2023283Y21643340D02*
D03*
X2026920Y18107660D02*
D03*
X2274402Y13078461D02*
D03*
X2184400D02*
D03*
X2311400Y16695419D02*
D03*
X2221403D02*
D03*
X2546899Y13078461D02*
D03*
X2456901D02*
D03*
X3065059Y16703040D02*
D03*
X2975061D02*
D03*
X3050159Y21673820D02*
D03*
X10152380Y16588741D02*
D03*
X10062383D02*
D03*
X10182860Y13106400D02*
D03*
X10092863D02*
D03*
X10419080Y16596359D02*
D03*
X10329083D02*
D03*
X10461539Y13106400D02*
D03*
X10371541D02*
D03*
X3329219Y16695419D02*
D03*
X3239221D02*
D03*
X3766820Y13078461D02*
D03*
X3676823D02*
D03*
X3832139Y16695419D02*
D03*
X3742141D02*
D03*
X3792941Y18074640D02*
D03*
X3816523Y21673820D02*
D03*
X8314522Y18143221D02*
D03*
X8224520D02*
D03*
X8587019Y18145760D02*
D03*
X8497021D02*
D03*
X8592820Y21628101D02*
D03*
X8502823D02*
D03*
X9107002Y21630640D02*
D03*
X9017000D02*
D03*
X9608099Y21640800D02*
D03*
X9518101D02*
D03*
X9911080Y13106400D02*
D03*
X9821083D02*
D03*
X10093239Y18094960D02*
D03*
X10003241D02*
D03*
X10352319Y21628101D02*
D03*
X10262321D02*
D03*
X10358120Y18094960D02*
D03*
X10268123D02*
D03*
X3533861Y18087340D02*
D03*
X3580303Y21673820D02*
D03*
X9898380Y16588741D02*
D03*
X9808383D02*
D03*
X12127779Y1729740D02*
D03*
D19*
X10226142Y2026920D02*
D03*
X10047138D02*
D03*
X10226142Y2291080D02*
D03*
X10047138D02*
D03*
X13926820Y2153920D02*
D03*
X13925719Y1922780D02*
D03*
X11990238Y2128520D02*
D03*
Y1892300D02*
D03*
X12169242Y2128520D02*
D03*
X14105820Y2153920D02*
D03*
X14104723Y1922780D02*
D03*
X12169242Y1892300D02*
D03*
D20*
X2199640Y4914900D02*
D03*
X2100580D02*
D03*
Y8603656D02*
D03*
Y8142564D02*
D03*
Y11831320D02*
D03*
Y9064752D02*
D03*
Y6759280D02*
D03*
Y6298184D02*
D03*
Y7681468D02*
D03*
Y7220372D02*
D03*
Y5837088D02*
D03*
Y5375996D02*
D03*
Y11370224D02*
D03*
Y9986940D02*
D03*
Y9525848D02*
D03*
Y10909127D02*
D03*
Y10448036D02*
D03*
X2199640D02*
D03*
Y10909127D02*
D03*
Y9986940D02*
D03*
Y9525848D02*
D03*
Y5837088D02*
D03*
Y11831320D02*
D03*
Y7681468D02*
D03*
Y9064752D02*
D03*
Y8142564D02*
D03*
Y8603656D02*
D03*
Y7220372D02*
D03*
Y6298184D02*
D03*
Y6759280D02*
D03*
Y11370224D02*
D03*
Y5375996D02*
D03*
D21*
X16267319Y2948742D02*
D03*
D22*
X16877319Y2034738D02*
D03*
D23*
X15548320D02*
D03*
D24*
X5919541Y4837679D02*
D03*
X5769539D02*
D03*
Y5027681D02*
D03*
X5919541D02*
D03*
D25*
X14401801Y19358102D02*
D03*
Y19453098D02*
D03*
D26*
X8155940Y5458460D02*
X8270240Y5344160D01*
X8275884Y3283656D02*
Y5310576D01*
X8270240Y5316220D02*
X8275884Y5310576D01*
Y3283656D02*
X8417560Y3141980D01*
X8270240Y5316220D02*
Y5344160D01*
X8155940Y5712460D02*
X8329930Y5538470D01*
Y4009390D02*
Y5538470D01*
Y4009390D02*
X8333740Y4005580D01*
X7305040D02*
Y5661660D01*
X7094220Y10040620D02*
X7180580Y9954260D01*
X7033260Y11661289D02*
X7068820Y11625729D01*
X7033260Y11661289D02*
Y19636740D01*
X7155180Y13578841D02*
X7155180Y13578839D01*
Y10099039D02*
Y13578839D01*
X7068820Y8577580D02*
Y11625729D01*
X7094220Y10040620D02*
Y11686540D01*
X6426200Y20243800D02*
X7033260Y19636740D01*
X7155180Y10099039D02*
X7335520Y9918700D01*
X3746500Y13139420D02*
Y13418820D01*
Y13139420D02*
X3766028Y13119891D01*
X3360420Y10157247D02*
Y10894060D01*
X3357880Y10896600D02*
X3360420Y10894060D01*
X2950210Y11023600D02*
X3388360D01*
X3276600Y10073427D02*
X3360420Y10157247D01*
X3855720Y11000560D02*
Y11191240D01*
Y11000560D02*
X3888740Y10967540D01*
X3811256Y10842004D02*
X3827780Y10825480D01*
X3439160Y10099040D02*
Y10350650D01*
X3811256Y10842004D02*
Y10890264D01*
X3439160Y10350650D02*
X3888740Y10800230D01*
Y10967540D01*
X3794760Y10906761D02*
X3811256Y10890264D01*
X3766028Y13079253D02*
Y13119891D01*
Y13079253D02*
X3766820Y13078461D01*
X10419080Y16596359D02*
X10525760D01*
X10126980Y16482060D02*
X10139680Y16494760D01*
Y16576041D01*
X10152380Y16588741D01*
X10062383Y16300278D02*
Y16588741D01*
Y16300278D02*
X10104120Y16258540D01*
X4018280Y11226950D02*
Y13698219D01*
X4072920Y13752859D01*
X3300192Y9612092D02*
X3957320Y10269220D01*
X4013200Y8821420D02*
Y11221870D01*
X3957320Y10269220D02*
Y11252200D01*
X4013200Y11221870D02*
X4018280Y11226950D01*
X3794760Y10906761D02*
Y11273617D01*
X8923020Y13500101D02*
X8930640Y13507719D01*
Y17983200D01*
X14368781Y2435860D02*
X14452600Y2352040D01*
Y2260750D02*
Y2352040D01*
X14343497Y2151645D02*
X14452600Y2260750D01*
X14209161Y2380381D02*
X14277029D01*
X14270686Y2151645D02*
X14343497D01*
X14371410Y2286000D02*
X14391640D01*
X14270421Y2151380D02*
X14270686Y2151645D01*
X14277029Y2380381D02*
X14371410Y2286000D01*
X10226142Y2021418D02*
X10352618D01*
X14066521Y3158404D02*
Y5521020D01*
Y2405380D02*
Y3158404D01*
X15460201Y2579860D02*
X15548320Y2491740D01*
X15336520Y2703540D02*
X15460201Y2579860D01*
X6121400Y5027681D02*
X6152901D01*
X6007100D02*
X6121400D01*
X2948940Y7305406D02*
Y7594600D01*
X7893746Y9372600D02*
X7901940D01*
X9253220Y10637520D02*
Y18787318D01*
X8999220Y11049000D02*
Y18787318D01*
X2199640Y11828780D02*
X2950210D01*
X2199640Y4908723D02*
X2950210D01*
X10193020Y13451840D02*
Y13665199D01*
X14378940Y12710160D02*
Y18031461D01*
X14356081Y18054320D02*
X14378940Y18031461D01*
X14356081Y18054320D02*
Y19445477D01*
X14363699Y19453098D01*
X14401801D01*
X2950210Y10073427D02*
X3276600D01*
X2950210Y10534767D02*
Y10551160D01*
X2989580Y10590530D01*
Y10937240D01*
X2971800Y10955020D02*
X2989580Y10937240D01*
X2921000Y10955020D02*
X2971800D01*
X2910840Y10965180D02*
X2921000Y10955020D01*
X2910840Y10965180D02*
Y11224260D01*
X2950210Y11918777D02*
X3149600D01*
X3794760Y11273617D01*
X2950210Y9612092D02*
X3300192D01*
X2950210Y9150756D02*
X2978150D01*
X2989580Y9162186D01*
Y9550400D01*
X2979420Y9560560D02*
X2989580Y9550400D01*
X2926080Y9560560D02*
X2979420D01*
X2910840Y9575800D02*
X2926080Y9560560D01*
X2910840Y9575800D02*
Y9804400D01*
X2946400Y9839960D01*
X3180080D01*
X3439160Y10099040D01*
X10197379Y1809750D02*
Y1841500D01*
X10191029Y1803400D02*
X10197379Y1809750D01*
X9989820Y1803400D02*
X10191029D01*
X9961880Y1831340D02*
X9989820Y1803400D01*
X9961880Y1831340D02*
Y3144520D01*
X10197379Y1841500D02*
Y1917700D01*
X10226142Y1946463D01*
Y2021418D01*
X10352618D02*
X10360660Y2029460D01*
X10492659D01*
X10226142Y2021418D02*
Y2026920D01*
X12122699Y2283460D02*
Y3757381D01*
X11567160Y4312920D02*
X12122699Y3757381D01*
Y2283460D02*
X12153900D01*
X12169242Y2268118D01*
Y2128520D02*
Y2268118D01*
Y2128520D02*
X12313920D01*
X12319000Y2123440D01*
X12463780D01*
X10951002Y6025002D02*
X11038840Y6112840D01*
Y8223164D01*
X10951002Y8311002D02*
X11038840Y8223164D01*
X5763920Y5989320D02*
X5861863Y5891378D01*
Y5691378D02*
Y5891378D01*
X5844540Y5674055D02*
X5861863Y5691378D01*
X5844540Y4981082D02*
Y5674055D01*
X5769539Y4906081D02*
X5844540Y4981082D01*
X5769539Y4837679D02*
Y4906081D01*
X14618762Y8351642D02*
X14709140Y8261264D01*
Y6163640D02*
Y8261264D01*
X14621301Y6075802D02*
X14709140Y6163640D01*
X5769539Y4774001D02*
Y4837679D01*
Y4774001D02*
X5778500Y4765040D01*
X6096000D01*
X6121400Y4790440D01*
Y4911263D01*
X13168544Y9801860D02*
X14618762Y8351642D01*
X14137640Y10281920D02*
Y20472400D01*
X14564360Y20899120D01*
X14066521Y5521020D02*
X14621301Y6075802D01*
X14097000Y2435860D02*
X14368781D01*
X14066521Y2405380D02*
X14097000Y2435860D01*
X14066521Y2334260D02*
Y2405380D01*
X14188440Y2151380D02*
X14270421D01*
X14185899Y2153920D02*
X14188440Y2151380D01*
X14105820Y2153920D02*
X14185899D01*
X2211243Y3807460D02*
Y4010660D01*
X4244340Y3807460D02*
Y4018280D01*
X3241040Y3807460D02*
Y4013200D01*
X2128520Y4010660D02*
X2211243D01*
X2100580Y4038600D02*
X2128520Y4010660D01*
X2067560Y4005580D02*
X2100580Y4038600D01*
Y4914900D01*
X1249680Y4005580D02*
X2067560D01*
X2100580Y4914900D02*
Y5375996D01*
Y5837088D01*
Y6298184D01*
Y6759280D01*
X4244340Y4018280D02*
X4269740D01*
X4341449Y4089989D01*
X4795520D01*
X4872309Y4013200D01*
X5255260D01*
X2100580Y6759280D02*
Y7220372D01*
Y7681468D01*
Y8142564D01*
Y8603656D01*
Y9064752D01*
X5255260Y4013200D02*
X5280660D01*
X5318760Y4051300D01*
X5786120D01*
X5831840Y4005580D01*
X6272703D01*
X2100580Y9064752D02*
Y9525848D01*
Y9986940D01*
Y10448036D01*
X6272703Y4005580D02*
Y4953000D01*
X6224443Y5001260D02*
X6272703Y4953000D01*
X6121400Y5001260D02*
X6224443D01*
X2100580Y10448036D02*
Y10909127D01*
Y11370224D01*
Y11831320D01*
X6033521Y5001260D02*
X6121400D01*
X6007100Y5027681D02*
X6033521Y5001260D01*
X5919541Y5027681D02*
X6007100D01*
X6152901D02*
X6179820Y5054600D01*
Y5707380D01*
X5661889Y5891352D02*
X5763920Y5789320D01*
X5661889Y5891352D02*
Y6087288D01*
X5763920Y6189320D01*
X5844540Y6269939D01*
Y6508699D01*
X5763920Y6589319D02*
X5844540Y6508699D01*
X11483340Y5367020D02*
X11656060Y5539740D01*
Y5934883D01*
Y5958840D01*
X11694160Y5996940D01*
Y7109460D01*
X11671300Y7132320D02*
X11694160Y7109460D01*
X11671300Y7132320D02*
Y8218343D01*
X11122660Y2156460D02*
X11554460D01*
X11582400Y2128520D01*
X11990238D01*
X11150600Y5934883D02*
X11656060D01*
X11122660Y5906943D02*
X11150600Y5934883D01*
X11122660Y2463800D02*
Y5906943D01*
X10134600Y2506980D02*
X11079480D01*
X11122660Y2156460D02*
Y2463800D01*
X11079480Y2506980D02*
X11122660Y2463800D01*
X10107381Y2479761D02*
X10134600Y2506980D01*
X10107381Y2451100D02*
Y2479761D01*
X11990238Y2128520D02*
Y2184400D01*
X12032701Y2226864D01*
Y2283460D01*
X10107381Y2399584D02*
Y2451100D01*
X10047138Y2339340D02*
X10107381Y2399584D01*
X10047138Y2291080D02*
Y2339340D01*
Y2026920D02*
Y2291080D01*
X11990238Y1833164D02*
Y1892300D01*
Y1833164D02*
X12037781Y1785620D01*
Y1729740D02*
Y1785620D01*
X10047138Y1962704D02*
Y2026920D01*
Y1962704D02*
X10107381Y1902460D01*
Y1841500D02*
Y1902460D01*
X11990238Y1892300D02*
Y1962150D01*
X11996588Y1968500D01*
X12611100Y2062480D02*
Y2347092D01*
X11990238Y1962150D02*
Y2128520D01*
X11996588Y1968500D02*
X12517120D01*
X12611100Y2062480D01*
X12604750Y2353442D02*
X12611100Y2347092D01*
X12463780Y2353442D02*
X12604750D01*
X13210539D01*
X13229723Y2334260D01*
X13976523D01*
Y2267123D02*
Y2334260D01*
X13926820Y2217420D02*
X13976523Y2267123D01*
X13926820Y2153920D02*
Y2217420D01*
X13976523Y2334260D02*
Y2827020D01*
X13548360Y3255183D02*
X13976523Y2827020D01*
X13548360Y3255183D02*
Y4403263D01*
X13976523Y2334260D02*
X14000481D01*
X14038580Y2296160D01*
X14124940D01*
X14209161Y2380381D01*
X13926820Y2038182D02*
Y2153920D01*
X13925719Y2037080D02*
X13926820Y2038182D01*
X13925719Y1922780D02*
Y2037080D01*
Y1854205D02*
Y1922780D01*
Y1854205D02*
X13979063Y1800860D01*
Y1734820D02*
Y1800860D01*
X15422881Y2542540D02*
X15511003Y2454422D01*
X15548320Y2034738D02*
Y2417100D01*
X15511003Y2454422D02*
X15548320Y2417100D01*
X15511003Y2454422D02*
X15548320Y2491740D01*
X15336520Y2703540D02*
Y5985683D01*
Y6009640D01*
X15374620Y6047740D01*
Y7145020D01*
X15333980Y7185660D02*
X15374620Y7145020D01*
X15333980Y7185660D02*
Y8258983D01*
X15363364D01*
X15372079Y8267700D01*
Y9695901D01*
X14945360Y10122621D02*
X15372079Y9695901D01*
X14300200Y10122621D02*
X14945360D01*
X14317979Y19469099D02*
X14350999Y19502119D01*
X14991080D01*
X13522960Y10122621D02*
X14300200D01*
X14317979Y10140401D01*
Y19469099D01*
X14991080Y19502119D02*
Y20449541D01*
X15036800Y20495261D01*
X15966440D01*
X8423742Y4005580D02*
Y5698658D01*
X8155940Y5966460D02*
X8423742Y5698658D01*
Y3618398D02*
Y4005580D01*
Y3618398D02*
X8514080Y3528060D01*
Y2730500D02*
Y3528060D01*
X8417560Y2633980D02*
X8514080Y2730500D01*
X7391400Y2628900D02*
X7487920Y2725420D01*
Y3459480D01*
X7395042Y3552358D02*
X7487920Y3459480D01*
X7395042Y3552358D02*
Y4005580D01*
Y6046302D01*
X7442200Y6093460D01*
X8028940D01*
X8155940Y6220460D01*
X6240780Y2725420D02*
X6337300Y2628900D01*
X6240780Y2725420D02*
Y3230880D01*
X6362700Y3352800D01*
Y4005580D01*
Y5412740D01*
X7297420Y6347460D01*
X8028940D01*
X8155940Y6474460D01*
X5326380Y2633980D02*
X5422900Y2730500D01*
Y3538220D01*
X5345262Y3615858D02*
X5422900Y3538220D01*
X5345262Y3615858D02*
Y3822700D01*
X8105226Y6090920D02*
X8255000D01*
X5345262Y3822700D02*
Y4013200D01*
X8044180Y4478020D02*
Y6029874D01*
X8105226Y6090920D01*
X8255000D02*
X8285480Y6121400D01*
Y6598920D01*
X8155940Y6728460D02*
X8285480Y6598920D01*
X4320540Y2631440D02*
X4417060Y2727960D01*
Y3535680D01*
X4334342Y3618398D02*
X4417060Y3535680D01*
X4334342Y3618398D02*
Y4018280D01*
X4434840D01*
X7983220Y4711700D02*
X8026400Y4754880D01*
Y6055451D01*
X8079649Y6108700D01*
X8211698D01*
X8267700Y6164702D01*
Y6553200D01*
X8234680Y6586220D02*
X8267700Y6553200D01*
X8074660Y6586220D02*
X8234680D01*
X8031480Y6629400D02*
X8074660Y6586220D01*
X8031480Y6629400D02*
Y6858000D01*
X8155940Y6982460D01*
X3307080Y2621280D02*
X3403600Y2717800D01*
Y3533140D01*
X3331042Y3605698D02*
X3403600Y3533140D01*
X3331042Y3605698D02*
Y4013200D01*
Y4314022D01*
X4272280Y5255260D01*
Y7378700D01*
X2240280Y2628900D02*
X2336800Y2725420D01*
Y3573780D01*
X2301240Y3609340D02*
X2336800Y3573780D01*
X2301240Y3609340D02*
Y4010660D01*
Y4521200D01*
X2402840Y4622800D01*
X3040380D01*
X3065780Y4648200D01*
Y6299200D01*
X3025140Y6339840D02*
X3065780Y6299200D01*
X2921000Y6339840D02*
X3025140D01*
X2910840Y6350000D02*
X2921000Y6339840D01*
X2910840Y6350000D02*
Y6609080D01*
X3027680Y6725920D01*
Y7569200D01*
X1159683Y3623137D02*
Y4005580D01*
Y3623137D02*
X1270000Y3512820D01*
Y2720340D02*
Y3512820D01*
X1173480Y2623820D02*
X1270000Y2720340D01*
X1159683Y4005580D02*
Y7258223D01*
X1534160Y7632700D01*
X15068758Y8351642D02*
X15199361D01*
X15202022Y8348980D01*
X15333980D01*
X8155940Y8252460D02*
X9822180Y6586220D01*
X15071298Y6075802D02*
X15201900D01*
X15202022Y6075680D01*
X15336520D01*
X11400998Y8311002D02*
X11534140D01*
X11536802Y8308340D01*
X11671300D01*
X8155940Y8760460D02*
X10787380Y6129020D01*
X11400998Y6025002D02*
X11526520D01*
X11526642Y6024880D01*
X11656060D01*
X5769539Y5027681D02*
Y5660319D01*
X5844083Y5734863D01*
Y5827217D01*
X5762142Y5909158D02*
X5844083Y5827217D01*
X5730712Y5909158D02*
X5762142D01*
X5683758Y5956112D02*
X5730712Y5909158D01*
X5683758Y5956112D02*
Y6022528D01*
X5747070Y6085840D01*
X6172200D01*
X6200140Y6113780D01*
Y8514080D01*
X6573520Y8887460D01*
X11567160Y9268460D02*
X12209780Y9911080D01*
Y21206461D01*
X8072120Y7109460D02*
X8267700D01*
X8044180Y7137400D02*
X8072120Y7109460D01*
X8044180Y7137400D02*
Y9410700D01*
X8155940Y9522460D01*
X7625080Y6601460D02*
X7965440D01*
X8013700Y6649720D01*
Y9634220D01*
X8155940Y9776460D01*
X5963920Y6589319D02*
Y9227820D01*
X6878320Y10142220D01*
X2950210Y11457442D02*
X2989580D01*
X3169920Y11277102D01*
X2950210Y10996102D02*
Y11023600D01*
Y8689416D02*
X3136900D01*
X3482340Y8343976D01*
Y4950460D02*
Y8343976D01*
X2950210Y8228081D02*
X3101340D01*
X3421380Y7908041D01*
Y5204460D02*
Y7908041D01*
X2950210Y7766741D02*
X2987619D01*
X3360420Y7393940D01*
Y5458460D02*
Y7393940D01*
X2948940Y7305406D02*
X2950210D01*
X2948940Y7594600D02*
X2984500Y7630160D01*
X3053080D01*
X3192780Y7490460D01*
Y6273800D02*
Y7490460D01*
X6522720Y5760720D02*
Y6273800D01*
X2724191Y6844071D02*
X2950210D01*
X2687320Y6807200D02*
X2724191Y6844071D01*
X2950210Y6382730D02*
X3040380D01*
X3119242Y6303869D01*
Y6198413D02*
Y6303869D01*
Y6198413D02*
X3229275Y6088380D01*
X2948940Y5926922D02*
Y6078220D01*
X2738120Y5460055D02*
X2950210D01*
Y4998720D02*
Y5267960D01*
X3009900Y5327650D01*
Y6136640D01*
X2948940Y6197600D02*
X3009900Y6136640D01*
X2116922Y15856117D02*
Y18107660D01*
X7691120Y13610966D02*
Y15422881D01*
Y13610966D02*
X7742753Y13559332D01*
Y7395647D02*
Y13559332D01*
Y7395647D02*
X7901940Y7236460D01*
X1696720Y7490460D02*
Y18100040D01*
X2113280Y20243800D02*
Y21643340D01*
X3670300Y19278600D02*
Y21673820D01*
X7711440Y17157700D02*
Y19278600D01*
Y17157700D02*
X8013700Y16855440D01*
Y10942320D02*
Y16855440D01*
X7975600Y10904220D02*
X8013700Y10942320D01*
X7823200Y10904220D02*
X7975600D01*
X7772400Y10853420D02*
X7823200Y10904220D01*
X7772400Y9410700D02*
Y10853420D01*
Y9410700D02*
X7790180Y9392920D01*
Y8110220D02*
Y9392920D01*
Y8110220D02*
X7901940Y7998460D01*
X3906520Y18722340D02*
Y21673820D01*
Y18722340D02*
X4091940Y18536920D01*
Y9563100D02*
Y18536920D01*
X3882939Y17940021D02*
Y18074640D01*
Y17940021D02*
X4072920Y17750038D01*
Y13752859D02*
Y17750038D01*
X3623859Y17348199D02*
Y18087340D01*
X4800600Y9177020D02*
Y17348199D01*
X3140161Y21673820D02*
X3497580D01*
X3545840Y21722079D01*
X4229100D01*
X5783580Y20167599D01*
Y9639300D02*
Y20167599D01*
X7772400Y18138139D02*
X8044180Y17866360D01*
Y10711180D02*
Y17866360D01*
X8013700Y10680700D02*
X8044180Y10711180D01*
X7886126Y10680700D02*
X8013700D01*
X7790180Y10584754D02*
X7886126Y10680700D01*
X7790180Y9476166D02*
Y10584754D01*
Y9476166D02*
X7893746Y9372600D01*
X7901940Y9268460D02*
Y9372600D01*
X7150100Y18041620D02*
X7221220Y17970500D01*
Y10203180D02*
Y17970500D01*
Y10203180D02*
X7574280Y9850120D01*
X5991860Y11043920D02*
Y13642340D01*
Y11043920D02*
X6807200Y10228580D01*
X8788400Y10172700D02*
X9253220Y10637520D01*
Y18787318D02*
X9254541D01*
X7901940Y10538460D02*
X8028940Y10665460D01*
X8615680D01*
X8999220Y11049000D01*
Y18787318D02*
X9000541D01*
X9342120Y11396980D02*
Y13774420D01*
X7772400Y11176000D02*
X7901940Y11046460D01*
X7772400Y11176000D02*
Y13652499D01*
X7752080Y13672820D02*
X7772400Y13652499D01*
X7790180Y11666220D02*
X7901940Y11554460D01*
X7790180Y11666220D02*
Y13587251D01*
X7813893Y13610966D01*
Y15505847D01*
X7650480Y15669260D02*
X7813893Y15505847D01*
X7650480Y15669260D02*
Y21536659D01*
X7909560Y21795740D01*
X5963920Y5989320D02*
X6355080D01*
X6385560Y6019800D01*
Y6908800D01*
X7180580Y7703820D01*
Y9954260D01*
X2199640Y11828780D02*
Y11831320D01*
Y11370224D02*
X2573020D01*
X2575804Y11367440D01*
X2950210D01*
X2199640Y10909127D02*
X2573020D01*
X2576043Y10906105D01*
X2950210D01*
X2199640Y10448036D02*
X2573020D01*
X2576292Y10444764D01*
X2950210D01*
X2199640Y9986940D02*
X2573020D01*
X2576530Y9983429D01*
X2950210D01*
X2199640Y9525848D02*
X2573020D01*
X2576774Y9522094D01*
X2950210D01*
X2199640Y9064752D02*
X2570480D01*
X2574478Y9060754D01*
X2950210D01*
X2199640Y8603656D02*
X2570480D01*
X2574717Y8599419D01*
X2950210D01*
X2199640Y8142564D02*
X2570480D01*
X2574966Y8138079D01*
X2950210D01*
X2199640Y7681468D02*
X2570480D01*
X2575204Y7676744D01*
X2950210D01*
X2199640Y7220372D02*
X2570480D01*
X2575443Y7215408D01*
X2950210D01*
X2199640Y6759280D02*
X2242170Y6716751D01*
X2734391D01*
X2771709Y6754068D01*
X2950210D01*
X2199640Y6298184D02*
X2570480D01*
X2575931Y6292733D01*
X2950210D01*
X2199640Y5837088D02*
X2573020D01*
X2573188Y5836920D01*
X2948940D01*
X2199640Y5375996D02*
X2570480D01*
X2576419Y5370058D01*
X2950210D01*
X2199640Y4908723D02*
Y4914900D01*
X3802380Y20957718D02*
Y21308060D01*
X3816523Y21322203D01*
Y21673820D01*
X3548380Y20957718D02*
Y21297900D01*
X3580303Y21329823D01*
Y21673820D01*
X2024380Y20957718D02*
Y21297900D01*
X2023283Y21298997D02*
X2024380Y21297900D01*
X2023283Y21298997D02*
Y21643340D01*
X3040380Y20957718D02*
Y21310600D01*
X3050159Y21320380D01*
Y21673820D01*
X2278380Y20027722D02*
X3548380Y18757722D01*
X2278380Y20027722D02*
Y20957718D01*
X3548380Y18429520D02*
Y18757722D01*
X3533861Y18414999D02*
X3548380Y18429520D01*
X3533861Y18087340D02*
Y18414999D01*
X1770380Y18436423D02*
Y18757722D01*
Y18436423D02*
X1786722Y18420081D01*
Y18100040D02*
Y18420081D01*
X2024380Y18432780D02*
Y18757722D01*
Y18432780D02*
X2026920Y18430240D01*
Y18107660D02*
Y18430240D01*
X3802380Y18419359D02*
Y18757722D01*
X3792941Y18409920D02*
X3802380Y18419359D01*
X3792941Y18074640D02*
Y18409920D01*
X2969260Y16004539D02*
Y16349980D01*
X2975061Y16355782D01*
Y16703040D01*
X3731260Y16004539D02*
Y16342360D01*
X3742141Y16353241D01*
Y16695419D01*
X2207260Y16004539D02*
Y16342360D01*
X2221403Y16356503D01*
Y16695419D01*
X3223260Y16004539D02*
Y16339819D01*
X3239221Y16355782D01*
Y16695419D01*
X3676823Y13078461D02*
Y13387253D01*
X3672124Y13391953D02*
X3676823Y13387253D01*
X3672124Y13391953D02*
Y13745403D01*
X3731260Y13804539D01*
X2461260Y15074539D02*
X3731260Y13804539D01*
X2461260Y15074539D02*
Y16004539D01*
X1926041Y13078461D02*
Y13426440D01*
X1953260Y13453659D01*
Y13804539D01*
X2184400Y13078461D02*
Y13439140D01*
X2207260Y13462000D01*
Y13804539D01*
X2456901Y13078461D02*
Y13439140D01*
X2461260Y13443500D01*
Y13804539D01*
X10270541Y20987318D02*
Y21302980D01*
X10262321Y21311198D02*
X10270541Y21302980D01*
X10262321Y21311198D02*
Y21628101D01*
X9000541Y20987318D02*
Y21310600D01*
X9017000Y21327058D01*
Y21630640D01*
X8492541Y20987318D02*
Y21300439D01*
X8502823Y21310722D01*
Y21628101D01*
X9508541Y20987318D02*
Y21308060D01*
X9518101Y21317621D01*
Y21640800D01*
X8746541Y20987318D02*
X8836660Y20897200D01*
Y18656300D02*
Y20897200D01*
X10016541Y18446078D02*
Y18787318D01*
X10003241Y18432780D02*
X10016541Y18446078D01*
X10003241Y18094960D02*
Y18432780D01*
X8224520Y18143221D02*
Y18463260D01*
X8238541Y18477281D01*
Y18787318D01*
X8497021Y18145760D02*
Y18463260D01*
X8492541Y18467741D02*
X8497021Y18463260D01*
X8492541Y18467741D02*
Y18787318D01*
X10270541Y18440279D02*
Y18787318D01*
X10268123Y18437860D02*
X10270541Y18440279D01*
X10268123Y18094960D02*
Y18437860D01*
X10358120Y15974422D02*
Y16268700D01*
X10329083Y16297737D02*
X10358120Y16268700D01*
X10329083Y16297737D02*
Y16596359D01*
X10104120Y15974422D02*
Y16258540D01*
X9850120Y15974422D02*
Y16258540D01*
X9808383Y16300278D02*
X9850120Y16258540D01*
X9808383Y16300278D02*
Y16588741D01*
X9596120Y15974422D02*
Y16266161D01*
X9567083Y16295197D02*
X9596120Y16266161D01*
X9567083Y16295197D02*
Y16588741D01*
X10104120Y13774420D02*
Y14704420D01*
Y13445317D02*
Y13774420D01*
X10092863Y13434061D02*
X10104120Y13445317D01*
X10092863Y13106400D02*
Y13434061D01*
X9596120Y13437697D02*
Y13774420D01*
X9595023Y13436600D02*
X9596120Y13437697D01*
X9595023Y13101320D02*
Y13436600D01*
X9850120Y13452937D02*
Y13774420D01*
X9821083Y13423900D02*
X9850120Y13452937D01*
X9821083Y13106400D02*
Y13423900D01*
X10358120Y13444942D02*
Y13774420D01*
Y13444942D02*
X10371541Y13431520D01*
Y13106400D02*
Y13431520D01*
X14401801Y19358102D02*
X14749780D01*
X14766798Y19375121D01*
X15118080D01*
X2274402Y13078461D02*
X2334260D01*
X2372360Y13116560D01*
Y16433800D01*
X2931160Y16992599D01*
X8181340Y17693640D02*
X8587019Y18099319D01*
X9718040Y17139920D02*
X9761220Y17096741D01*
Y13081000D02*
Y17096741D01*
Y13081000D02*
X9773920Y13068300D01*
X9904730D01*
X8587019Y18099319D02*
Y18145760D01*
Y17348921D02*
Y18099319D01*
X9904730Y13068300D02*
X9911080Y13074651D01*
Y13106400D01*
X2016039Y13078461D02*
Y13489940D01*
X8534400Y18166080D02*
X8559800Y18191479D01*
X8534400Y18115280D02*
Y18166080D01*
X8521700Y18102580D02*
X8534400Y18115280D01*
X8314522Y18110201D02*
X8521700Y18102580D01*
X9685020Y13101320D02*
Y13489940D01*
X8722360Y18191479D02*
X8930640Y17983200D01*
X8559800Y18191479D02*
X8722360D01*
X8314522Y18110201D02*
Y18143221D01*
X2311400Y16695419D02*
X2407920D01*
X9898380Y16822420D02*
Y21871941D01*
X9773920Y21996400D02*
X9898380Y21871941D01*
Y16588741D02*
Y16822420D01*
X8618220Y21996400D02*
X9773920D01*
X8592820Y21971001D02*
X8618220Y21996400D01*
X8592820Y21628101D02*
Y21971001D01*
X9107002Y21499998D02*
Y21630640D01*
Y21499998D02*
X9370060Y21236940D01*
Y16977361D02*
Y21236940D01*
Y16977361D02*
X9458960Y16888460D01*
X3832139Y16695419D02*
Y16883380D01*
X3329219Y16695419D02*
X3535680D01*
X9657080D02*
Y21628101D01*
X9644380Y21640800D02*
X9657080Y21628101D01*
X9608099Y21640800D02*
X9644380D01*
X9657080Y16588741D02*
Y16695419D01*
X3065059Y16703040D02*
Y16906239D01*
X10419080Y16596359D02*
Y21597620D01*
X10388600Y21628101D02*
X10419080Y21597620D01*
X10352319Y21628101D02*
X10388600D01*
X2546899Y13078461D02*
X2700020D01*
X10461539Y13373100D02*
Y16452301D01*
X10380980Y16532860D02*
X10461539Y16452301D01*
X10358120Y17058640D02*
X10380980Y17035780D01*
X10461539Y13106400D02*
Y13373100D01*
X10380980Y16532860D02*
Y17035780D01*
X10358120Y17058640D02*
Y18094960D01*
X10193020Y13665199D02*
Y16710660D01*
X10093239Y16810442D02*
X10193020Y16710660D01*
X10182860Y13106400D02*
Y13441679D01*
X10193020Y13451840D01*
X10093239Y16810442D02*
Y18094960D01*
X13143439Y10226162D02*
X13324840D01*
X13338383Y10212619D01*
X13522960D01*
X12969240Y4705680D02*
Y11099800D01*
Y4705680D02*
X13178998Y4495922D01*
X13360400D01*
X13363062Y4493260D01*
X13548360D01*
D27*
X10642600Y1902460D02*
X10738167D01*
X10613390D02*
X10642600D01*
Y1931670D02*
Y2243012D01*
X10605402Y2280210D02*
X10642600Y2243012D01*
X10613390Y1902460D02*
X10642600Y1931670D01*
X10495909Y2280210D02*
X10605402D01*
X10492659Y2283460D02*
X10495909Y2280210D01*
X12127779Y1701800D02*
Y1788160D01*
X10817270Y1847170D02*
X11021060Y1643380D01*
X12069359D02*
X12127779Y1701800D01*
X10738167Y1902460D02*
X10793457Y1847170D01*
X11021060Y1643380D02*
X12069359D01*
X10793457Y1847170D02*
X10817270D01*
X13692001Y1893438D02*
X13929729Y1655713D01*
X14069060Y1727485D02*
Y1808480D01*
X12463780Y1893438D02*
X13692001D01*
X13997287Y1655713D02*
X14069060Y1727485D01*
X13929729Y1655713D02*
X13997287D01*
X16229050Y1682948D02*
X16267319Y1721218D01*
X15342545Y1684020D02*
X15343617Y1682948D01*
X14684142Y1922379D02*
X14922501Y1684020D01*
X15343617Y1682948D02*
X16229050D01*
X14922501Y1684020D02*
X15342545D01*
X16267319Y1721218D02*
Y2948742D01*
X10492659Y1902460D02*
X10613390D01*
X10492659Y2283460D02*
Y2410460D01*
X10363200Y2283460D02*
X10492659D01*
X10355580Y2291080D02*
X10363200Y2283460D01*
X10226142Y2291080D02*
X10355580D01*
X12127779Y1788160D02*
X12169242Y1829623D01*
Y1892300D01*
X10226142Y2291080D02*
Y2354580D01*
X10197379Y2383343D02*
X10226142Y2354580D01*
X10197379Y2383343D02*
Y2451100D01*
X12169242Y1892300D02*
X12313920D01*
X12315058Y1893438D01*
X12463780D01*
X14069060Y1808480D02*
X14104723Y1844142D01*
Y1922780D01*
X14185899D01*
X14186301Y1922379D01*
X14270421D01*
X14684142D01*
D28*
X10270541Y18787318D02*
D03*
X10016541D02*
D03*
X9762541D02*
D03*
X9508541D02*
D03*
X8746541D02*
D03*
X8492541D02*
D03*
X8238541D02*
D03*
Y20987318D02*
D03*
X8492541D02*
D03*
X8746541D02*
D03*
X9000541D02*
D03*
X9254541D02*
D03*
X9508541D02*
D03*
X9762541D02*
D03*
X10016541D02*
D03*
X9000541Y18787318D02*
D03*
X9254541D02*
D03*
X9088120Y13774420D02*
D03*
X9342120D02*
D03*
X10104120Y15974422D02*
D03*
X9850120D02*
D03*
X9596120D02*
D03*
X9342120D02*
D03*
X9088120D02*
D03*
X8834120D02*
D03*
X8580120D02*
D03*
X8326120D02*
D03*
Y13774420D02*
D03*
X8580120D02*
D03*
X8834120D02*
D03*
X9596120D02*
D03*
X9850120D02*
D03*
X10104120D02*
D03*
X10358120D02*
D03*
X3802380Y18757722D02*
D03*
X3548380D02*
D03*
X3294380D02*
D03*
X3040380D02*
D03*
X2278380D02*
D03*
X2024380D02*
D03*
X1770380D02*
D03*
Y20957718D02*
D03*
X2024380D02*
D03*
X2278380D02*
D03*
X2532380D02*
D03*
X2786380D02*
D03*
X3040380D02*
D03*
X3294380D02*
D03*
X3548380D02*
D03*
X2786380Y18757722D02*
D03*
X2532380D02*
D03*
X3985260Y13804539D02*
D03*
X3731260D02*
D03*
X3477260D02*
D03*
X3223260D02*
D03*
X2461260D02*
D03*
X2207260D02*
D03*
X1953260D02*
D03*
Y16004539D02*
D03*
X2207260D02*
D03*
X2461260D02*
D03*
X2715260D02*
D03*
X2969260D02*
D03*
X3223260D02*
D03*
X3477260D02*
D03*
X3731260D02*
D03*
X2715260Y13804539D02*
D03*
X2969260D02*
D03*
X13178998Y5145918D02*
D03*
Y4495922D02*
D03*
X12729002Y5145918D02*
D03*
X12693442Y10876158D02*
D03*
X13143439D02*
D03*
Y10226162D02*
D03*
X11400998Y8311002D02*
D03*
Y6025002D02*
D03*
X15068758Y8351642D02*
D03*
X15071298Y6075802D02*
D03*
X14618762Y9001638D02*
D03*
X15068758D02*
D03*
X10951002Y8960998D02*
D03*
X11400998D02*
D03*
X14621301Y6725798D02*
D03*
X15071298D02*
D03*
X10951002Y6674998D02*
D03*
X11400998D02*
D03*
D29*
X10270541Y20987318D02*
D03*
X10358120Y15974422D02*
D03*
X3802380Y20957718D02*
D03*
X3985260Y16004539D02*
D03*
D30*
X12729002Y4495922D02*
D03*
X12693442Y10226162D02*
D03*
X14621301Y6075802D02*
D03*
X14618762Y8351642D02*
D03*
X10951002Y8311002D02*
D03*
Y6025002D02*
D03*
D31*
X8155940Y11554460D02*
D03*
X7901940Y12062460D02*
D03*
Y11808460D02*
D03*
X8155940D02*
D03*
Y12062460D02*
D03*
X7901940Y11554460D02*
D03*
Y11300460D02*
D03*
Y11046460D02*
D03*
Y10792460D02*
D03*
Y10538460D02*
D03*
Y10284460D02*
D03*
Y10030460D02*
D03*
Y9776460D02*
D03*
Y9522460D02*
D03*
Y9268460D02*
D03*
Y9014460D02*
D03*
Y8760460D02*
D03*
Y8506460D02*
D03*
Y8252460D02*
D03*
Y7998460D02*
D03*
Y7744460D02*
D03*
Y7490460D02*
D03*
Y7236460D02*
D03*
Y6982460D02*
D03*
Y6728460D02*
D03*
Y6474460D02*
D03*
Y6220460D02*
D03*
Y5966460D02*
D03*
Y5712460D02*
D03*
Y5458460D02*
D03*
Y5204460D02*
D03*
Y4950460D02*
D03*
X8155940Y11300460D02*
D03*
Y11046460D02*
D03*
Y10792460D02*
D03*
Y10538460D02*
D03*
Y10284460D02*
D03*
Y10030460D02*
D03*
Y9522460D02*
D03*
Y9268460D02*
D03*
Y9014460D02*
D03*
Y8760460D02*
D03*
Y8506460D02*
D03*
Y8252460D02*
D03*
Y7998460D02*
D03*
Y7744460D02*
D03*
Y7490460D02*
D03*
Y7236460D02*
D03*
Y6982460D02*
D03*
Y6728460D02*
D03*
Y6474460D02*
D03*
Y6220460D02*
D03*
Y5966460D02*
D03*
Y5458460D02*
D03*
Y5204460D02*
D03*
Y9776460D02*
D03*
Y5712460D02*
D03*
D32*
Y4950460D02*
D03*
D33*
X13804362Y20899120D02*
D03*
D34*
X14564360D02*
D03*
D35*
X5963920Y6589319D02*
D03*
Y6389319D02*
D03*
Y6189320D02*
D03*
Y5989320D02*
D03*
X5763920Y6389319D02*
D03*
Y5989320D02*
D03*
Y5789320D02*
D03*
Y6189320D02*
D03*
Y6589319D02*
D03*
D36*
X5963920Y5789320D02*
D03*
D37*
X15118080Y19375121D02*
D03*
X15245081Y19502119D02*
D03*
X14991080D02*
D03*
D38*
X1173480Y2115820D02*
D03*
Y2623820D02*
D03*
X3307080Y2621280D02*
D03*
X8417560Y2633980D02*
D03*
X2240280Y2628900D02*
D03*
X7391400D02*
D03*
X6337300D02*
D03*
X5326380Y2633980D02*
D03*
X4320540Y2631440D02*
D03*
X2240280Y2120900D02*
D03*
X3307080Y2113280D02*
D03*
X4320540Y2123440D02*
D03*
X5326380Y2125980D02*
D03*
X6337300Y2120900D02*
D03*
X7391400D02*
D03*
X8417560Y2125980D02*
D03*
D39*
X1173480Y3131820D02*
D03*
X8417560Y3141980D02*
D03*
X7391400Y3136900D02*
D03*
X6337300D02*
D03*
X5326380Y3141980D02*
D03*
X4320540Y3139440D02*
D03*
X2240280Y3136900D02*
D03*
X3307080Y3129280D02*
D03*
D40*
X15966440Y20876260D02*
D03*
Y21638260D02*
D03*
Y21257260D02*
D03*
Y20495261D02*
D03*
D41*
X8326120Y5379720D02*
D03*
X7305040Y5661660D02*
D03*
X7094220Y11686540D02*
D03*
X7155180Y13578841D02*
D03*
X3746500Y13418820D02*
D03*
X3357880Y10896600D02*
D03*
X3388360Y11023600D02*
D03*
X3827780Y10825480D02*
D03*
X10525760Y16596359D02*
D03*
X10126980Y16482060D02*
D03*
X3957320Y11252200D02*
D03*
X8923020Y13500101D02*
D03*
X14391640Y2286000D02*
D03*
X14378940Y12710160D02*
D03*
X2910840Y11224260D02*
D03*
X3855720Y11191240D02*
D03*
X9961880Y3144520D02*
D03*
X11567160Y4312920D02*
D03*
X13168544Y9801860D02*
D03*
X14137640Y10281920D02*
D03*
X14066521Y3158404D02*
D03*
X2211243Y3807460D02*
D03*
X4244340D02*
D03*
X3241040D02*
D03*
X6179820Y5707380D02*
D03*
X11483340Y5367020D02*
D03*
X15422881Y2542540D02*
D03*
X5345262Y3822700D02*
D03*
X8044180Y4478020D02*
D03*
X4434840Y4018280D02*
D03*
X7983220Y4711700D02*
D03*
X4272280Y7378700D02*
D03*
X3027680Y7569200D02*
D03*
X1534160Y7632700D02*
D03*
X9822180Y6586220D02*
D03*
X10787380Y6129020D02*
D03*
X6573520Y8887460D02*
D03*
X11567160Y9268460D02*
D03*
X12209780Y21206461D02*
D03*
X8267700Y7109460D02*
D03*
X7625080Y6601460D02*
D03*
X6878320Y10142220D02*
D03*
X3169920Y11277102D02*
D03*
X3482340Y4950460D02*
D03*
X3421380Y5204460D02*
D03*
X3360420Y5458460D02*
D03*
X3192780Y6273800D02*
D03*
X6522720D02*
D03*
Y5760720D02*
D03*
X2687320Y6807200D02*
D03*
X3229275Y6088380D02*
D03*
X2948940Y6078220D02*
D03*
X2738120Y5460055D02*
D03*
X2948940Y6197600D02*
D03*
X2116922Y15856117D02*
D03*
X7691120Y15422881D02*
D03*
X1696720Y7490460D02*
D03*
X2113280Y20243800D02*
D03*
X6426200D02*
D03*
X7068820Y8577580D02*
D03*
X3670300Y19278600D02*
D03*
X7711440D02*
D03*
X4091940Y9563100D02*
D03*
X4013200Y8821420D02*
D03*
X3623859Y17348199D02*
D03*
X4800600D02*
D03*
Y9177020D02*
D03*
X5783580Y9639300D02*
D03*
X7772400Y18138139D02*
D03*
X7150100Y18041620D02*
D03*
X7574280Y9850120D02*
D03*
X7335520Y9918700D02*
D03*
X5991860Y13642340D02*
D03*
X6807200Y10228580D02*
D03*
X8788400Y10172700D02*
D03*
X9342120Y11396980D02*
D03*
X7752080Y13672820D02*
D03*
X7909560Y21795740D02*
D03*
X8836660Y18656300D02*
D03*
X10104120Y14704420D02*
D03*
X2931160Y16992599D02*
D03*
X8181340Y17693640D02*
D03*
X8587019Y17348921D02*
D03*
X9718040Y17139920D02*
D03*
X2016039Y13489940D02*
D03*
X9685020D02*
D03*
X2407920Y16695419D02*
D03*
X9898380Y16822420D02*
D03*
X9458960Y16888460D02*
D03*
X3832139Y16883380D02*
D03*
X3535680Y16695419D02*
D03*
X9657080D02*
D03*
X3065059Y16906239D02*
D03*
X2700020Y13078461D02*
D03*
X10461539Y13373100D02*
D03*
X10193020Y13665199D02*
D03*
X12969240Y11099800D02*
D03*
%TF.MD5,da152dfdc976708008e43e3c8fe2d0d5*%
M02*
