%TF.GenerationSoftware,Altium Limited,Altium Designer,26.7.1 (11)*%
G04 Layer_Color=8388736*
G04 Board_Origin=0|0*
%FSLAX45Y45*%
%MOMM*%
%TF.SameCoordinates,4D1129F9-08A1-487B-85B4-D750B3D58634*%
%TF.FilePolarity,Negative*%
%TF.FileFunction,Soldermask,Top*%
%TF.Part,Single*%
G01*
G75*
%TA.AperFunction,SMDPad,CuDef*%
G04:AMPARAMS|DCode=10|XSize=0.55mm|YSize=0.5mm|CornerRadius=0.0625mm|HoleSize=0mm|Usage=FLASHONLY|Rotation=180.000|XOffset=0mm|YOffset=0mm|HoleType=Round|Shape=RoundedRectangle|*
%AMROUNDEDRECTD10*
21,1,0.55000,0.37500,0,0,180.0*
21,1,0.42500,0.50000,0,0,180.0*
1,1,0.12500,-0.21250,0.18750*
1,1,0.12500,0.21250,0.18750*
1,1,0.12500,0.21250,-0.18750*
1,1,0.12500,-0.21250,-0.18750*
%
%ADD10ROUNDEDRECTD10*%
%ADD11R,1.00429X0.87213*%
G04:AMPARAMS|DCode=12|XSize=1.00429mm|YSize=0.87213mm|CornerRadius=0.43606mm|HoleSize=0mm|Usage=FLASHONLY|Rotation=0.000|XOffset=0mm|YOffset=0mm|HoleType=Round|Shape=RoundedRectangle|*
%AMROUNDEDRECTD12*
21,1,1.00429,0.00000,0,0,0.0*
21,1,0.13216,0.87213,0,0,0.0*
1,1,0.87213,0.06608,0.00000*
1,1,0.87213,-0.06608,0.00000*
1,1,0.87213,-0.06608,0.00000*
1,1,0.87213,0.06608,0.00000*
%
%ADD12ROUNDEDRECTD12*%
G04:AMPARAMS|DCode=13|XSize=1.00429mm|YSize=3.18213mm|CornerRadius=0.43687mm|HoleSize=0mm|Usage=FLASHONLY|Rotation=0.000|XOffset=0mm|YOffset=0mm|HoleType=Round|Shape=RoundedRectangle|*
%AMROUNDEDRECTD13*
21,1,1.00429,2.30840,0,0,0.0*
21,1,0.13056,3.18213,0,0,0.0*
1,1,0.87373,0.06528,-1.15420*
1,1,0.87373,-0.06528,-1.15420*
1,1,0.87373,-0.06528,1.15420*
1,1,0.87373,0.06528,1.15420*
%
%ADD13ROUNDEDRECTD13*%
%ADD14R,2.70000X1.00000*%
%ADD15R,2.70000X3.30000*%
%ADD16R,2.30000X0.70000*%
%ADD17R,6.30000X5.50000*%
G04:AMPARAMS|DCode=18|XSize=0.55mm|YSize=0.5mm|CornerRadius=0.0625mm|HoleSize=0mm|Usage=FLASHONLY|Rotation=90.000|XOffset=0mm|YOffset=0mm|HoleType=Round|Shape=RoundedRectangle|*
%AMROUNDEDRECTD18*
21,1,0.55000,0.37500,0,0,90.0*
21,1,0.42500,0.50000,0,0,90.0*
1,1,0.12500,0.18750,0.21250*
1,1,0.12500,0.18750,-0.21250*
1,1,0.12500,-0.18750,-0.21250*
1,1,0.12500,-0.18750,0.21250*
%
%ADD18ROUNDEDRECTD18*%
G04:AMPARAMS|DCode=19|XSize=1.3mm|YSize=0.76mm|CornerRadius=0.095mm|HoleSize=0mm|Usage=FLASHONLY|Rotation=90.000|XOffset=0mm|YOffset=0mm|HoleType=Round|Shape=RoundedRectangle|*
%AMROUNDEDRECTD19*
21,1,1.30000,0.57000,0,0,90.0*
21,1,1.11000,0.76000,0,0,90.0*
1,1,0.19000,0.28500,0.55500*
1,1,0.19000,0.28500,-0.55500*
1,1,0.19000,-0.28500,-0.55500*
1,1,0.19000,-0.28500,0.55500*
%
%ADD19ROUNDEDRECTD19*%
%ADD20R,0.40640X0.60960*%
%TA.AperFunction,ConnectorPad*%
%ADD21R,3.30000X4.06000*%
%ADD22R,3.30000X6.35000*%
%ADD23R,3.81000X6.35000*%
%TA.AperFunction,SMDPad,CuDef*%
%ADD24R,1.00000X1.10000*%
%ADD25R,0.70000X0.75000*%
%TA.AperFunction,ComponentPad*%
%ADD28C,1.55000*%
%ADD29R,1.55000X1.55000*%
%ADD30R,1.55000X1.55000*%
%ADD31C,2.03200*%
%ADD32R,2.03200X2.03200*%
%ADD33R,1.35000X1.35000*%
%ADD34C,1.35000*%
%ADD35C,1.40000*%
%ADD36R,1.40000X1.40000*%
%ADD37C,1.25000*%
%ADD38C,1.70000*%
%ADD39R,1.70000X1.70000*%
%ADD40C,2.10000*%
%TA.AperFunction,ViaPad*%
%ADD41C,1.01600*%
D10*
X13548360Y4493260D02*
D03*
Y4403263D02*
D03*
X6121400Y4911263D02*
D03*
Y5001260D02*
D03*
X13522960Y10212619D02*
D03*
Y10122621D02*
D03*
X15333980Y8258983D02*
D03*
X15336520Y5985683D02*
D03*
X11671300Y8218343D02*
D03*
X11656060Y5934883D02*
D03*
X2950210Y7766741D02*
D03*
Y10073427D02*
D03*
X11671300Y8308340D02*
D03*
X2950210Y4998720D02*
D03*
Y7305406D02*
D03*
X11656060Y6024880D02*
D03*
X2950210Y6844071D02*
D03*
Y6382730D02*
D03*
Y11457442D02*
D03*
Y8689416D02*
D03*
X15333980Y8348980D02*
D03*
X2948940Y5926922D02*
D03*
X2950210Y8228081D02*
D03*
X15336520Y6075680D02*
D03*
X2950210Y5460055D02*
D03*
Y5370058D02*
D03*
Y6754068D02*
D03*
Y6292733D02*
D03*
Y7215408D02*
D03*
Y4908723D02*
D03*
X2948940Y5836920D02*
D03*
X2950210Y10906105D02*
D03*
Y10996102D02*
D03*
Y11367440D02*
D03*
Y9522094D02*
D03*
Y9612092D02*
D03*
Y9983429D02*
D03*
Y10444764D02*
D03*
Y10534767D02*
D03*
Y8599419D02*
D03*
Y8138079D02*
D03*
Y9060754D02*
D03*
Y9150756D02*
D03*
Y11828780D02*
D03*
Y11918777D02*
D03*
Y7676744D02*
D03*
D11*
X14270421Y2380381D02*
D03*
D12*
Y2151380D02*
D03*
Y1922379D02*
D03*
D13*
X14929419Y2151380D02*
D03*
D14*
X12463780Y2353442D02*
D03*
Y2123440D02*
D03*
Y1893438D02*
D03*
D15*
X13053781Y2123440D02*
D03*
D16*
X10492659Y2410460D02*
D03*
Y2283460D02*
D03*
Y2029460D02*
D03*
Y1902460D02*
D03*
D17*
X11122660Y2156460D02*
D03*
D18*
X10197379Y1841500D02*
D03*
X10107381D02*
D03*
X10197379Y2451100D02*
D03*
X10107381D02*
D03*
X9567083Y16588741D02*
D03*
X9657080D02*
D03*
X13976523Y2334260D02*
D03*
X13979063Y1734820D02*
D03*
X12032701Y2283460D02*
D03*
X12037781Y1729740D02*
D03*
X8333740Y4005580D02*
D03*
X6272703D02*
D03*
X7305040D02*
D03*
X5255260Y4013200D02*
D03*
X4244340Y4018280D02*
D03*
X3241040Y4013200D02*
D03*
X2211243Y4010660D02*
D03*
X1249680Y4005580D02*
D03*
X3906520Y21673820D02*
D03*
X3331042Y4013200D02*
D03*
X8423742Y4005580D02*
D03*
X3882939Y18074640D02*
D03*
X2116922Y18107660D02*
D03*
X2301240Y4010660D02*
D03*
X7395042Y4005580D02*
D03*
X3623859Y18087340D02*
D03*
X1159683Y4005580D02*
D03*
X12122699Y2283460D02*
D03*
X1696720Y18100040D02*
D03*
X6362700Y4005580D02*
D03*
X14066521Y2334260D02*
D03*
X3140161Y21673820D02*
D03*
X2113280Y21643340D02*
D03*
X5345262Y4013200D02*
D03*
X3670300Y21673820D02*
D03*
X4334342Y4018280D02*
D03*
X14069060Y1734820D02*
D03*
X9685020Y13101320D02*
D03*
X9595023D02*
D03*
X1786722Y18100040D02*
D03*
X2016039Y13078461D02*
D03*
X1926041D02*
D03*
X2023283Y21643340D02*
D03*
X2026920Y18107660D02*
D03*
X2274402Y13078461D02*
D03*
X2184400D02*
D03*
X2311400Y16695419D02*
D03*
X2221403D02*
D03*
X2546899Y13078461D02*
D03*
X2456901D02*
D03*
X3065059Y16703040D02*
D03*
X2975061D02*
D03*
X3050159Y21673820D02*
D03*
X10152380Y16588741D02*
D03*
X10062383D02*
D03*
X10182860Y13106400D02*
D03*
X10092863D02*
D03*
X10419080Y16596359D02*
D03*
X10329083D02*
D03*
X10461539Y13106400D02*
D03*
X10371541D02*
D03*
X3329219Y16695419D02*
D03*
X3239221D02*
D03*
X3766820Y13078461D02*
D03*
X3676823D02*
D03*
X3832139Y16695419D02*
D03*
X3742141D02*
D03*
X3792941Y18074640D02*
D03*
X3816523Y21673820D02*
D03*
X8314522Y18143221D02*
D03*
X8224520D02*
D03*
X8587019Y18145760D02*
D03*
X8497021D02*
D03*
X8592820Y21628101D02*
D03*
X8502823D02*
D03*
X9107002Y21630640D02*
D03*
X9017000D02*
D03*
X9608099Y21640800D02*
D03*
X9518101D02*
D03*
X9911080Y13106400D02*
D03*
X9821083D02*
D03*
X10093239Y18094960D02*
D03*
X10003241D02*
D03*
X10352319Y21628101D02*
D03*
X10262321D02*
D03*
X10358120Y18094960D02*
D03*
X10268123D02*
D03*
X3533861Y18087340D02*
D03*
X3580303Y21673820D02*
D03*
X9898380Y16588741D02*
D03*
X9808383D02*
D03*
X12127779Y1729740D02*
D03*
D19*
X10226142Y2026920D02*
D03*
X10047138D02*
D03*
X10226142Y2291080D02*
D03*
X10047138D02*
D03*
X13926820Y2153920D02*
D03*
X13925719Y1922780D02*
D03*
X11990238Y2128520D02*
D03*
Y1892300D02*
D03*
X12169242Y2128520D02*
D03*
X14105820Y2153920D02*
D03*
X14104723Y1922780D02*
D03*
X12169242Y1892300D02*
D03*
D20*
X2199640Y4914900D02*
D03*
X2100580D02*
D03*
Y8603656D02*
D03*
Y8142564D02*
D03*
Y11831320D02*
D03*
Y9064752D02*
D03*
Y6759280D02*
D03*
Y6298184D02*
D03*
Y7681468D02*
D03*
Y7220372D02*
D03*
Y5837088D02*
D03*
Y5375996D02*
D03*
Y11370224D02*
D03*
Y9986940D02*
D03*
Y9525848D02*
D03*
Y10909127D02*
D03*
Y10448036D02*
D03*
X2199640D02*
D03*
Y10909127D02*
D03*
Y9986940D02*
D03*
Y9525848D02*
D03*
Y5837088D02*
D03*
Y11831320D02*
D03*
Y7681468D02*
D03*
Y9064752D02*
D03*
Y8142564D02*
D03*
Y8603656D02*
D03*
Y7220372D02*
D03*
Y6298184D02*
D03*
Y6759280D02*
D03*
Y11370224D02*
D03*
Y5375996D02*
D03*
D21*
X16267319Y2948742D02*
D03*
D22*
X16877319Y2034738D02*
D03*
D23*
X15548320D02*
D03*
D24*
X5919541Y4837679D02*
D03*
X5769539D02*
D03*
Y5027681D02*
D03*
X5919541D02*
D03*
D25*
X14401801Y19358102D02*
D03*
Y19453098D02*
D03*
D28*
X10270541Y18787318D02*
D03*
X10016541D02*
D03*
X9762541D02*
D03*
X9508541D02*
D03*
X8746541D02*
D03*
X8492541D02*
D03*
X8238541D02*
D03*
Y20987318D02*
D03*
X8492541D02*
D03*
X8746541D02*
D03*
X9000541D02*
D03*
X9254541D02*
D03*
X9508541D02*
D03*
X9762541D02*
D03*
X10016541D02*
D03*
X9000541Y18787318D02*
D03*
X9254541D02*
D03*
X9088120Y13774420D02*
D03*
X9342120D02*
D03*
X10104120Y15974422D02*
D03*
X9850120D02*
D03*
X9596120D02*
D03*
X9342120D02*
D03*
X9088120D02*
D03*
X8834120D02*
D03*
X8580120D02*
D03*
X8326120D02*
D03*
Y13774420D02*
D03*
X8580120D02*
D03*
X8834120D02*
D03*
X9596120D02*
D03*
X9850120D02*
D03*
X10104120D02*
D03*
X10358120D02*
D03*
X3802380Y18757722D02*
D03*
X3548380D02*
D03*
X3294380D02*
D03*
X3040380D02*
D03*
X2278380D02*
D03*
X2024380D02*
D03*
X1770380D02*
D03*
Y20957718D02*
D03*
X2024380D02*
D03*
X2278380D02*
D03*
X2532380D02*
D03*
X2786380D02*
D03*
X3040380D02*
D03*
X3294380D02*
D03*
X3548380D02*
D03*
X2786380Y18757722D02*
D03*
X2532380D02*
D03*
X3985260Y13804539D02*
D03*
X3731260D02*
D03*
X3477260D02*
D03*
X3223260D02*
D03*
X2461260D02*
D03*
X2207260D02*
D03*
X1953260D02*
D03*
Y16004539D02*
D03*
X2207260D02*
D03*
X2461260D02*
D03*
X2715260D02*
D03*
X2969260D02*
D03*
X3223260D02*
D03*
X3477260D02*
D03*
X3731260D02*
D03*
X2715260Y13804539D02*
D03*
X2969260D02*
D03*
X13178998Y5145918D02*
D03*
Y4495922D02*
D03*
X12729002Y5145918D02*
D03*
X12693442Y10876158D02*
D03*
X13143439D02*
D03*
Y10226162D02*
D03*
X11400998Y8311002D02*
D03*
Y6025002D02*
D03*
X15068758Y8351642D02*
D03*
X15071298Y6075802D02*
D03*
X14618762Y9001638D02*
D03*
X15068758D02*
D03*
X10951002Y8960998D02*
D03*
X11400998D02*
D03*
X14621301Y6725798D02*
D03*
X15071298D02*
D03*
X10951002Y6674998D02*
D03*
X11400998D02*
D03*
D29*
X10270541Y20987318D02*
D03*
X10358120Y15974422D02*
D03*
X3802380Y20957718D02*
D03*
X3985260Y16004539D02*
D03*
D30*
X12729002Y4495922D02*
D03*
X12693442Y10226162D02*
D03*
X14621301Y6075802D02*
D03*
X14618762Y8351642D02*
D03*
X10951002Y8311002D02*
D03*
Y6025002D02*
D03*
D31*
X8155940Y11554460D02*
D03*
X7901940Y12062460D02*
D03*
Y11808460D02*
D03*
X8155940D02*
D03*
Y12062460D02*
D03*
X7901940Y11554460D02*
D03*
Y11300460D02*
D03*
Y11046460D02*
D03*
Y10792460D02*
D03*
Y10538460D02*
D03*
Y10284460D02*
D03*
Y10030460D02*
D03*
Y9776460D02*
D03*
Y9522460D02*
D03*
Y9268460D02*
D03*
Y9014460D02*
D03*
Y8760460D02*
D03*
Y8506460D02*
D03*
Y8252460D02*
D03*
Y7998460D02*
D03*
Y7744460D02*
D03*
Y7490460D02*
D03*
Y7236460D02*
D03*
Y6982460D02*
D03*
Y6728460D02*
D03*
Y6474460D02*
D03*
Y6220460D02*
D03*
Y5966460D02*
D03*
Y5712460D02*
D03*
Y5458460D02*
D03*
Y5204460D02*
D03*
Y4950460D02*
D03*
X8155940Y11300460D02*
D03*
Y11046460D02*
D03*
Y10792460D02*
D03*
Y10538460D02*
D03*
Y10284460D02*
D03*
Y10030460D02*
D03*
Y9522460D02*
D03*
Y9268460D02*
D03*
Y9014460D02*
D03*
Y8760460D02*
D03*
Y8506460D02*
D03*
Y8252460D02*
D03*
Y7998460D02*
D03*
Y7744460D02*
D03*
Y7490460D02*
D03*
Y7236460D02*
D03*
Y6982460D02*
D03*
Y6728460D02*
D03*
Y6474460D02*
D03*
Y6220460D02*
D03*
Y5966460D02*
D03*
Y5458460D02*
D03*
Y5204460D02*
D03*
Y9776460D02*
D03*
Y5712460D02*
D03*
D32*
Y4950460D02*
D03*
D33*
X13804362Y20899120D02*
D03*
D34*
X14564360D02*
D03*
D35*
X5963920Y6589319D02*
D03*
Y6389319D02*
D03*
Y6189320D02*
D03*
Y5989320D02*
D03*
X5763920Y6389319D02*
D03*
Y5989320D02*
D03*
Y5789320D02*
D03*
Y6189320D02*
D03*
Y6589319D02*
D03*
D36*
X5963920Y5789320D02*
D03*
D37*
X15118080Y19375121D02*
D03*
X15245081Y19502119D02*
D03*
X14991080D02*
D03*
D38*
X1173480Y2115820D02*
D03*
Y2623820D02*
D03*
X3307080Y2621280D02*
D03*
X8417560Y2633980D02*
D03*
X2240280Y2628900D02*
D03*
X7391400D02*
D03*
X6337300D02*
D03*
X5326380Y2633980D02*
D03*
X4320540Y2631440D02*
D03*
X2240280Y2120900D02*
D03*
X3307080Y2113280D02*
D03*
X4320540Y2123440D02*
D03*
X5326380Y2125980D02*
D03*
X6337300Y2120900D02*
D03*
X7391400D02*
D03*
X8417560Y2125980D02*
D03*
D39*
X1173480Y3131820D02*
D03*
X8417560Y3141980D02*
D03*
X7391400Y3136900D02*
D03*
X6337300D02*
D03*
X5326380Y3141980D02*
D03*
X4320540Y3139440D02*
D03*
X2240280Y3136900D02*
D03*
X3307080Y3129280D02*
D03*
D40*
X15966440Y20876260D02*
D03*
Y21638260D02*
D03*
Y21257260D02*
D03*
Y20495261D02*
D03*
D41*
X8326120Y5379720D02*
D03*
X7305040Y5661660D02*
D03*
X7094220Y11686540D02*
D03*
X7155180Y13578841D02*
D03*
X3746500Y13418820D02*
D03*
X3357880Y10896600D02*
D03*
X3388360Y11023600D02*
D03*
X3827780Y10825480D02*
D03*
X10525760Y16596359D02*
D03*
X10126980Y16482060D02*
D03*
X3957320Y11252200D02*
D03*
X8923020Y13500101D02*
D03*
X14391640Y2286000D02*
D03*
X14378940Y12710160D02*
D03*
X2910840Y11224260D02*
D03*
X3855720Y11191240D02*
D03*
X9961880Y3144520D02*
D03*
X11567160Y4312920D02*
D03*
X13168544Y9801860D02*
D03*
X14137640Y10281920D02*
D03*
X14066521Y3158404D02*
D03*
X2211243Y3807460D02*
D03*
X4244340D02*
D03*
X3241040D02*
D03*
X6179820Y5707380D02*
D03*
X11483340Y5367020D02*
D03*
X15422881Y2542540D02*
D03*
X5345262Y3822700D02*
D03*
X8044180Y4478020D02*
D03*
X4434840Y4018280D02*
D03*
X7983220Y4711700D02*
D03*
X4272280Y7378700D02*
D03*
X3027680Y7569200D02*
D03*
X1534160Y7632700D02*
D03*
X9822180Y6586220D02*
D03*
X10787380Y6129020D02*
D03*
X6573520Y8887460D02*
D03*
X11567160Y9268460D02*
D03*
X12209780Y21206461D02*
D03*
X8267700Y7109460D02*
D03*
X7625080Y6601460D02*
D03*
X6878320Y10142220D02*
D03*
X3169920Y11277102D02*
D03*
X3482340Y4950460D02*
D03*
X3421380Y5204460D02*
D03*
X3360420Y5458460D02*
D03*
X3192780Y6273800D02*
D03*
X6522720D02*
D03*
Y5760720D02*
D03*
X2687320Y6807200D02*
D03*
X3229275Y6088380D02*
D03*
X2948940Y6078220D02*
D03*
X2738120Y5460055D02*
D03*
X2948940Y6197600D02*
D03*
X2116922Y15856117D02*
D03*
X7691120Y15422881D02*
D03*
X1696720Y7490460D02*
D03*
X2113280Y20243800D02*
D03*
X6426200D02*
D03*
X7068820Y8577580D02*
D03*
X3670300Y19278600D02*
D03*
X7711440D02*
D03*
X4091940Y9563100D02*
D03*
X4013200Y8821420D02*
D03*
X3623859Y17348199D02*
D03*
X4800600D02*
D03*
Y9177020D02*
D03*
X5783580Y9639300D02*
D03*
X7772400Y18138139D02*
D03*
X7150100Y18041620D02*
D03*
X7574280Y9850120D02*
D03*
X7335520Y9918700D02*
D03*
X5991860Y13642340D02*
D03*
X6807200Y10228580D02*
D03*
X8788400Y10172700D02*
D03*
X9342120Y11396980D02*
D03*
X7752080Y13672820D02*
D03*
X7909560Y21795740D02*
D03*
X8836660Y18656300D02*
D03*
X10104120Y14704420D02*
D03*
X2931160Y16992599D02*
D03*
X8181340Y17693640D02*
D03*
X8587019Y17348921D02*
D03*
X9718040Y17139920D02*
D03*
X2016039Y13489940D02*
D03*
X9685020D02*
D03*
X2407920Y16695419D02*
D03*
X9898380Y16822420D02*
D03*
X9458960Y16888460D02*
D03*
X3832139Y16883380D02*
D03*
X3535680Y16695419D02*
D03*
X9657080D02*
D03*
X3065059Y16906239D02*
D03*
X2700020Y13078461D02*
D03*
X10461539Y13373100D02*
D03*
X10193020Y13665199D02*
D03*
X12969240Y11099800D02*
D03*
%TF.MD5,8db02f4648ea0c0001bf4a25be2181be*%
M02*
